<?xml version="1.0" encoding="utf-8"?>
<!-- Generator: Adobe Illustrator 16.0.0, SVG Export Plug-In . SVG Version: 6.00 Build 0)  -->
<!DOCTYPE svg PUBLIC "-//W3C//DTD SVG 1.1//EN" "http://www.w3.org/Graphics/SVG/1.1/DTD/svg11.dtd">
<svg version="1.1" id="Layer_1" xmlns="http://www.w3.org/2000/svg" xmlns:xlink="http://www.w3.org/1999/xlink" x="0px" y="0px"
	 width="1110.777px" height="256px" viewBox="0 0 1110.777 256" enable-background="new 0 0 1110.777 256" xml:space="preserve">
<rect x="0" y="-0.915" fill="#1A202C" width="1110.777" height="256.915"/>
<path fill="#FFFFFF" d="M25.001,231.85c0-68.873,0-137.746,0-206.849c28.728,0.001,57.458,0.001,86.187,0.001
	c-0.306,1.157-0.483,2.371-0.942,3.464c-27.919,66.817-55.861,133.62-83.81,200.421C26.015,229.896,25.484,230.863,25.001,231.85z"
	/>
<path fill="#FFFFFF" d="M160.913,232.514c-0.639-1.967-1.18-3.97-1.933-5.893c-4.354-11.094-8.814-22.141-13.09-33.264
	c-0.811-2.101-1.865-2.82-4.109-2.803c-11.037,0.117-22.078,0.053-33.117,0.053c-1.189,0-2.38,0-4.181,0
	c12.59-29.666,24.983-58.857,37.685-88.789c18.585,43.996,36.896,87.348,55.209,130.695
	C185.223,232.514,173.066,232.514,160.913,232.514z"/>
<path fill="#FFFFFF" d="M259.13,230.009c-0.169,0.068-0.34,0.136-0.509,0.203c-0.395-0.772-0.848-1.522-1.183-2.323
	c-27.876-66.69-55.745-133.39-83.607-200.088c-0.38-0.91-0.66-1.867-0.981-2.799c28.727,0,57.455,0,86.185,0
	c0.032,1.213,0.093,2.424,0.093,3.639c0.003,66.137,0.003,132.276,0.003,198.413C259.13,228.039,259.13,229.025,259.13,230.009z"/>
<path fill="#FFFFFF" d="M442.153,228.535c-1.347-0.036-3.21-2.549-3.83-4.271c-4.288-11.875-8.446-23.803-12.334-35.811
	c-1.116-3.452-2.673-4.739-6.382-4.707c-19.04,0.186-38.081,0.214-57.122-0.021c-4.025-0.048-5.523,1.488-6.62,5.058
	c-3.598,11.729-7.637,23.325-11.238,35.053c-1.127,3.676-2.958,5.128-6.85,5.028c-8.891-0.235-17.792-0.063-26.688-0.08
	c-6.632-0.018-6.896-0.37-4.72-6.643c15.666-45.203,31.477-90.354,46.934-135.625c4.865-14.24,11.677-27.968,12.474-43.431
	c0.054-0.999,2.261-2.682,3.482-2.695c14.231-0.192,28.474-0.295,42.698,0.112c1.652,0.047,3.958,3.03,4.705,5.104
	c12.284,34.137,24.364,68.347,36.496,102.54c8.739,24.639,17.491,49.276,26.224,73.916c0.641,1.804,1.182,3.64,2.153,6.668
	C467.663,228.729,454.901,228.863,442.153,228.535z"/>
<path fill="#FFFFFF" d="M619.373,215.337c-0.09,1.812-1.387,4.552-2.846,5.149c-24.191,10.013-49.344,14.133-75.203,9.144
	c-40.166-7.756-58.361-39.261-55.205-77.271c3.115-37.544,30.02-63.972,68.177-68.359c7.75-0.895,15.6-0.882,24.453-1.338
	c0-6.244,0-12.6,0-18.954c0.004-11.387-0.109-22.779,0.135-34.161c0.035-1.548,1.797-4.364,2.818-4.392
	c12.051-0.306,24.109-0.196,36.896-0.196c0,2.82-0.002,5.073,0,7.324c0.037,56.941,0.063,113.882,0.148,170.82
	C618.757,207.186,619.583,211.281,619.373,215.337z"/>
<path fill="#FFFFFF" d="M763.074,211.668c-21.154,20.946-47.02,24.178-74.326,16.262c-26.023-7.545-39.643-26.992-45.051-52.697
	c-1.203-5.717-1.463-11.629-2.023-16.32c1.277-31.919,12.381-57.069,41.998-69.89c39.455-17.08,96.586-0.981,99.813,63.382
	C784.601,174.752,779.451,195.451,763.074,211.668z"/>
<path fill="#FFFFFF" d="M865.902,230.962c-18.059,1.688-35.896,0.006-53.428-4.87c-3.709-1.033-5.219-2.768-5.215-6.685
	c0.084-63.208,0.08-126.417,0-189.62c-0.006-3.677,1.133-5.015,4.891-4.939c10.146,0.198,20.297,0.206,30.443-0.004
	c3.889-0.08,4.783,1.485,4.754,5.052c-0.143,16.558-0.059,33.115-0.059,49.675c-0.004,1.913-0.004,3.827-0.004,5.463
	c9.115-0.717,17.578-1.964,26.047-1.941c38.719,0.091,66.695,28.039,67.174,66.694C941.062,194.391,911.484,226.706,865.902,230.962
	z"/>
<path fill="#FFFFFF" d="M1085.638,158.498c-0.055,7.65-0.553,8.388-8.1,8.492c-24.377,0.324-48.756,0.463-73.137,0.678
	c-2.258,0.021-4.523,0.001-7.395,0.001c1.318,12.292,6.887,20.729,17.432,25.604c12.814,5.922,26.326,5.554,39.816,3.381
	c6.799-1.098,13.428-3.221,20.926-5.074c0,9.541,0.232,18.786-0.209,27.998c-0.084,1.734-2.531,4.174-4.418,4.891
	c-23.768,9.082-47.955,9.907-72.129,2.031c-13.66-4.454-24.861-13.089-31.301-25.97c-4.543-9.078-8.119-19.097-9.721-29.087
	c-3.275-20.414,0.178-40.107,11.318-57.942c17.693-28.341,56.799-39.425,86.521-24.02c19.475,10.095,29.17,26.982,30.346,48.73
	C1085.955,144.952,1085.681,151.732,1085.638,158.498z"/>
<path fill="#1A202C" d="M690.128,127.718c-10.631,15.021-10.602,43.857,0.053,58.817c12.215,17.152,36.836,15.77,46.986-2.656
	c4.49-8.165,5.918-17.052,5.854-28.807c0.02-8.932-2.27-18.649-6.637-25.639C725.652,112.228,701.716,111.346,690.128,127.718z"/>
<path fill="#1A202C" d="M863.423,116.434c-3.52,0.423-7.033,1.003-10.57,1.232c-4.514,0.295-5.721,2.473-5.672,6.916
	c0.23,22.409,0.277,44.829-0.027,67.232c-0.072,5.146,1.969,6.277,6.441,6.584c30.82,2.112,50.779-20.151,45.807-51.277
	C896.201,127.078,883.628,116.425,863.423,116.434z"/>
<path fill="#1A202C" d="M578.75,156.482c0-11.56-0.037-23.111,0.025-34.672c0.018-2.734-0.313-4.536-3.67-5.28
	c-19.832-4.406-41.396,7.848-46.699,27.102c-3.01,10.912-2.422,21.869,1.652,32.472c3.975,10.345,11.479,17.383,22.215,19.664
	c6.998,1.485,14.422,1.077,21.664,1.264c3.785,0.101,4.969-2.11,4.895-5.877C578.607,179.604,578.75,168.038,578.75,156.482z"/>
<path fill="#1A202C" d="M1020.189,114.668c-12.344,1.467-21.74,11.395-22.963,24.831c1.523,0.163,2.73,0.407,3.932,0.409
	c13.48,0.021,26.967,0.084,40.449-0.027c8.051-0.064,8.881-1.386,6.367-9.068C1044.148,119.085,1033.763,113.05,1020.189,114.668z"
	/>
<path fill="#1A202C" d="M368.222,147.786c15.188,0,29.829,0,45.364,0c-7.566-24.431-14.997-48.419-22.798-73.603
	C383.097,99.272,375.728,123.3,368.222,147.786z"/>
</svg>
