<?xml version="1.0" encoding="utf-8"?>
<!-- Generator: Adobe Illustrator 16.0.0, SVG Export Plug-In . SVG Version: 6.00 Build 0)  -->
<!DOCTYPE svg PUBLIC "-//W3C//DTD SVG 1.0//EN" "http://www.w3.org/TR/2001/REC-SVG-20010904/DTD/svg10.dtd">
<svg version="1.0" id="Layer_1" xmlns="http://www.w3.org/2000/svg" xmlns:xlink="http://www.w3.org/1999/xlink" x="0px" y="0px"
	 width="981.305px" height="256px" viewBox="-234.726 0 981.305 256" enable-background="new -234.726 0 981.305 256"
	 xml:space="preserve">
<g>
	<path fill="#FFFFFF" d="M-128.4,0c-0.379,1.428-0.597,2.925-1.162,4.276c-34.443,82.427-68.915,164.839-103.393,247.25
		c-0.522,1.246-1.178,2.438-1.771,3.654c0-84.966,0-169.93,0-255.181C-199.285,0-163.841,0-128.4,0z"/>
	<path fill="#FFFFFF" d="M53.99,0c0.04,1.496,0.115,2.991,0.115,4.489C54.11,86.08,54.11,167.673,54.11,249.264
		c0,1.217,0,2.432,0,3.648c-0.209,0.083-0.419,0.166-0.629,0.25c-0.487-0.956-1.045-1.881-1.458-2.869
		C17.631,168.02-16.75,85.737-51.122,3.454c-0.47-1.125-0.813-2.303-1.213-3.454C-16.894,0,18.548,0,53.99,0z"/>
	<path fill="#FFFFFF" d="M-67.058,256c-0.789-2.427-1.456-4.896-2.384-7.27c-5.372-13.685-10.875-27.315-16.151-41.037
		c-0.999-2.592-2.3-3.48-5.067-3.455c-13.617,0.141-27.238,0.063-40.856,0.063c-1.469,0-2.937,0-5.158,0
		c15.532-36.597,30.82-72.612,46.491-109.536C-67.256,149.043-44.666,202.521-22.073,256C-37.068,256-52.064,256-67.058,256z"/>
	<path fill="#FFFFFF" d="M564.16,94.958c6.979-0.548,13.457-1.503,19.938-1.486c29.639,0.071,51.055,21.464,51.42,51.051
		c0.426,34.143-22.215,58.879-57.105,62.138c-13.822,1.292-27.477,0.004-40.896-3.728c-2.841-0.791-3.997-2.119-3.994-5.117
		c0.064-48.383,0.063-96.766,0-145.146c-0.003-2.815,0.869-3.839,3.744-3.782c7.766,0.152,15.538,0.159,23.305-0.002
		c2.974-0.062,3.66,1.135,3.639,3.867c-0.107,12.675-0.047,25.349-0.047,38.024C564.16,92.24,564.16,93.706,564.16,94.958z
		 M576.516,118.993c-2.695,0.323-5.386,0.768-8.092,0.942c-3.456,0.226-4.381,1.894-4.344,5.295
		c0.178,17.154,0.214,34.314-0.018,51.465c-0.055,3.938,1.505,4.804,4.928,5.039c23.592,1.617,38.872-15.426,35.064-39.252
		C601.605,127.14,591.98,118.987,576.516,118.993z"/>
	<path fill="#FFFFFF" d="M358.607,93.142c0-4.78,0-9.645,0-14.508c0.002-8.718-0.082-17.436,0.104-26.15
		c0.025-1.184,1.376-3.34,2.156-3.36c9.224-0.236,18.456-0.151,28.242-0.151c0,2.159-0.002,3.883,0,5.607
		c0.029,43.586,0.05,87.172,0.115,130.757c0.006,3.124,0.637,6.259,0.477,9.362c-0.069,1.386-1.061,3.482-2.178,3.943
		c-18.517,7.664-37.771,10.817-57.563,6.998c-30.746-5.936-44.674-30.052-42.258-59.147c2.385-28.739,22.979-48.97,52.188-52.328
		C345.822,93.481,351.831,93.491,358.607,93.142z M358.607,149.65c0-8.849-0.029-17.691,0.021-26.54
		c0.013-2.093-0.239-3.471-2.81-4.041c-15.18-3.374-31.688,6.007-35.746,20.743c-2.303,8.354-1.855,16.742,1.265,24.856
		c3.042,7.918,8.787,13.306,17.005,15.052c5.356,1.139,11.04,0.823,16.583,0.967c2.896,0.076,3.802-1.615,3.746-4.5
		C358.498,167.346,358.607,158.495,358.607,149.65z"/>
	<path fill="#FFFFFF" d="M284.193,204.95c-10.619,0-20.387,0.102-30.146-0.149c-1.03-0.025-2.456-1.949-2.932-3.271
		c-3.283-9.088-6.466-18.217-9.441-27.409c-0.855-2.642-2.047-3.629-4.886-3.604c-14.573,0.142-29.149,0.164-43.723-0.016
		c-3.083-0.036-4.23,1.139-5.068,3.871c-2.754,8.98-5.846,17.854-8.602,26.832c-0.863,2.814-2.265,3.927-5.243,3.849
		c-6.806-0.181-13.618-0.047-20.43-0.062c-5.077-0.01-5.277-0.281-3.613-5.083c11.991-34.601,24.093-69.161,35.927-103.816
		c3.724-10.898,8.938-21.408,9.548-33.244c0.04-0.765,1.729-2.053,2.665-2.063c10.894-0.146,21.796-0.226,32.684,0.085
		c1.265,0.036,3.03,2.319,3.601,3.908c9.403,26.13,18.65,52.316,27.936,78.489c6.69,18.86,13.389,37.719,20.073,56.58
		C283.035,201.227,283.449,202.632,284.193,204.95z M214.729,86.653c-5.887,19.205-11.527,37.596-17.272,56.339
		c11.625,0,22.833,0,34.724,0C226.389,124.291,220.701,105.929,214.729,86.653z"/>
	<path fill="#FFFFFF" d="M406.773,151.507c0.977-24.433,9.475-43.683,32.146-53.497c30.203-13.074,73.935-0.751,76.404,48.516
		c0.856,17.107-3.087,32.953-15.623,45.367c-16.193,16.032-35.994,18.506-56.895,12.446c-19.92-5.776-30.343-20.661-34.484-40.34
		C407.4,159.626,407.201,155.1,406.773,151.507z M484.351,148.57c0.011-6.838-1.74-14.275-5.081-19.627
		c-8.215-13.17-26.537-13.846-35.407-1.312c-8.138,11.496-8.115,33.571,0.04,45.022c9.35,13.128,28.197,12.07,35.966-2.035
		C483.309,164.37,484.398,157.568,484.351,148.57z"/>
	<path fill="#FFFFFF" d="M738.606,176.516c0,7.303,0.18,14.379-0.158,21.43c-0.063,1.33-1.938,3.195-3.383,3.744
		c-18.194,6.953-36.709,7.584-55.212,1.555c-10.456-3.408-19.029-10.018-23.959-19.88c-3.474-6.948-6.211-14.617-7.438-22.263
		c-2.508-15.627,0.135-30.701,8.661-44.354c13.545-21.694,43.48-30.178,66.231-18.387c14.91,7.728,22.328,20.655,23.229,37.301
		c0.278,5.161,0.069,10.352,0.035,15.529c-0.04,5.857-0.423,6.422-6.2,6.5c-18.66,0.25-37.321,0.357-55.982,0.519
		c-1.729,0.017-3.466,0.002-5.66,0.002c1.007,9.409,5.27,15.865,13.342,19.599c9.81,4.535,20.152,4.252,30.479,2.588
		C727.794,179.559,732.866,177.936,738.606,176.516z M678.936,136.648c1.166,0.125,2.089,0.311,3.01,0.312
		c10.318,0.019,20.641,0.067,30.961-0.019c6.163-0.051,6.796-1.06,4.877-6.943c-2.932-8.976-10.881-13.595-21.271-12.358
		C687.064,118.765,679.871,126.363,678.936,136.648z"/>
</g>
</svg>
