<?xml version="1.0" encoding="utf-8"?>
<!-- Generator: Adobe Illustrator 16.0.0, SVG Export Plug-In . SVG Version: 6.00 Build 0)  -->
<!DOCTYPE svg PUBLIC "-//W3C//DTD SVG 1.0//EN" "http://www.w3.org/TR/2001/REC-SVG-20010904/DTD/svg10.dtd">
<svg version="1.0" id="Layer_1" xmlns="http://www.w3.org/2000/svg" xmlns:xlink="http://www.w3.org/1999/xlink" x="0px" y="0px"
	 width="979.486px" height="256px" viewBox="-233.743 0 979.486 256" enable-background="new -233.743 0 979.486 256"
	 xml:space="preserve">
<g>
	<path fill="#FFFFFF" d="M-136.455,154.146c-0.859,0.619-1.506,1.033-2.097,1.518c-19.802,16.204-39.594,32.421-59.398,48.622
		c-5.385,4.405-11.45,6.976-18.536,6.881c-11.935-0.158-19.595-10.118-16.61-21.671c1.679-6.497,5.577-11.421,10.817-15.438
		c16.966-13.004,33.913-26.031,50.864-39.054c20.076-15.423,40.149-30.849,60.221-46.278c0.556-0.427,1.072-0.904,1.605-1.357
		c-0.045-0.173-0.091-0.346-0.137-0.519c-0.826,0-1.651,0-2.477,0c-20.581,0.002-41.162,0.072-61.741-0.078
		c-2.569-0.02-5.319-0.809-7.659-1.926c-6.669-3.186-8.948-10.042-5.71-16.688c3.084-6.332,8.52-9.786,15.13-11.459
		c2.364-0.599,4.88-0.824,7.328-0.828c40.359-0.059,80.719-0.055,121.079-0.065c0.837,0,1.674,0,2.511,0
		c0.064-0.162,0.129-0.323,0.193-0.485c-0.552-0.508-1.079-1.045-1.659-1.518c-12.741-10.379-25.488-20.751-38.235-31.122
		c-2.213-1.801-4.072-3.837-4.804-6.711c-0.882-3.464,0.081-6.506,2.227-9.167c3.477-4.31,8.222-6.234,13.607-6.715
		c6.004-0.536,11.14,1.325,15.955,5.047c31.605,24.432,63.299,48.748,95.003,73.05c17.926,13.741,31.024,30.962,36.823,52.945
		c8.488,32.176,1.301,61.104-20.063,86.355C40.926,237.411,19.08,249.32-6.432,253.859c-34.343,6.109-66.018-0.732-93.772-22.385
		c-18.206-14.203-30.383-32.576-35.46-55.353c-1.496-6.713-1.876-13.453-0.801-20.261
		C-136.395,155.43-136.455,154.973-136.455,154.146z M-28.6,208.553c1.737,0,3.475,0.038,5.21-0.015
		c0.929-0.028,1.852-0.229,2.781-0.323c15.075-1.535,28.274-7.326,39.619-17.386c21.951-19.461,26.203-51.318,9.585-75.254
		C15.851,97.218-2.407,88.329-24.392,86.924c-13.606-0.871-26.58,1.954-38.507,8.68c-18.138,10.228-29.721,25.29-32.13,46.3
		c-1.946,16.975,3.368,31.947,14.871,44.527C-66.354,201.527-48.85,208.339-28.6,208.553z"/>
	<path fill="#FFFFFF" d="M126.538,190.038c0,2.948,0,5.321,0,7.872c-8.946,0-17.703,0-26.561,0c0-38.473,0-76.802,0-115.455
		c2.097,0.501,4.13,0.957,6.147,1.474c6.195,1.586,12.376,3.232,18.584,4.767c1.424,0.352,1.854,0.987,1.842,2.452
		c-0.071,9.354-0.036,18.709-0.036,28.063c0,0.727,0,1.452,0,2.275c0.346-0.083,0.581-0.066,0.689-0.175
		c6.436-6.445,14.375-9.473,23.294-10.311c10.973-1.03,21.64,0.136,31.592,5.086c14.756,7.339,22.604,19.45,23.891,35.828
		c0.966,12.292-1.94,23.477-10.013,32.999c-7.611,8.979-17.623,13.646-29.07,15.397c-8.668,1.328-17.294,1.068-25.763-1.49
		C135.734,197.188,131.067,194.303,126.538,190.038z M152.245,130.859c-0.03,0.176-0.062,0.351-0.092,0.524
		c-1.067,0-2.137-0.043-3.202,0.007c-9.8,0.457-18.04,6.521-21.086,15.485c-1.288,3.791-1.483,7.698-1.318,11.651
		c0.396,9.486,6.37,17.664,15.333,20.738c6.635,2.274,13.352,2.281,20.022,0.105c7.538-2.459,12.394-7.555,14.607-15.169
		c1.252-4.302,1.439-8.673,0.694-13.065c-1.487-8.775-6.076-15.188-14.673-18.104C159.236,131.915,155.682,131.563,152.245,130.859z
		"/>
	<path fill="#FFFFFF" d="M541.292,121.321c0-0.75,0-1.514,0-2.277c0-9.353,0.009-18.705-0.012-28.058
		c-0.002-1.064,0.019-1.849,1.37-2.186c7.883-1.967,15.738-4.033,23.609-6.048c0.366-0.094,0.777-0.012,1.354-0.012
		c0.04,0.811,0.11,1.594,0.11,2.378c0.008,36.742,0.008,73.483,0.006,110.228c0,2.738-0.009,2.744-2.731,2.746
		c-7.081,0.004-14.163-0.08-21.242,0.051c-2.089,0.039-2.697-0.625-2.498-2.607c0.163-1.626,0.033-3.282,0.033-5.238
		c-0.592,0.333-0.902,0.438-1.117,0.641c-6.333,5.985-14.057,8.85-22.549,9.727c-9.606,0.992-19.091,0.273-28.137-3.389
		c-16.202-6.56-25.654-18.479-27.601-35.933c-1.615-14.516,2.035-27.452,12.808-37.792c7.806-7.492,17.439-11.153,28.04-12.411
		c7.812-0.927,15.582-0.755,23.201,1.529c5.137,1.54,9.713,4.047,13.615,7.744c0.339,0.319,0.696,0.618,1.065,0.9
		C540.699,121.372,540.864,121.321,541.292,121.321z M515.662,130.891c-0.025,0.166-0.051,0.33-0.076,0.495
		c-1.067,0-2.138-0.044-3.202,0.007c-10.229,0.489-18.675,6.881-21.149,16.592c-0.924,3.615-1.172,7.551-0.927,11.285
		c0.499,7.604,3.77,14.022,10.571,17.826c9.381,5.243,19.194,5.381,28.712,0.413c9.396-4.901,12.51-15.128,11.513-24.555
		c-1.041-9.836-5.948-16.899-15.494-20.123C522.435,131.761,518.985,131.514,515.662,130.891z"/>
	<path fill="#FFFFFF" d="M648.059,170.328c7.183,4.143,14.438,8.328,21.807,12.579c-5.327,6.614-11.849,11.311-19.637,13.995
		c-17.06,5.883-34.176,5.961-50.734-1.489c-15.375-6.918-23.144-19.504-24.563-36.174c-0.763-8.956,0.365-17.609,4.264-25.75
		c5.259-10.99,14.079-18.016,25.521-21.66c14.792-4.712,29.744-4.768,44.479,0.119c16.064,5.328,25.186,16.936,28.183,33.368
		c0.95,5.207,1.093,10.563,1.639,16.197c-1.396,0-2.235,0-3.08,0c-22.854,0-45.706,0-68.561,0.002c-2.819,0-2.819,0.002-2.531,2.859
		c1.009,10.003,8.943,17.561,19.034,18.104c4.295,0.231,8.529,0.037,12.613-1.563c4.598-1.804,8.146-4.763,10.495-9.124
		c0.188-0.354,0.374-0.708,0.581-1.05C647.631,170.639,647.761,170.575,648.059,170.328z M649.131,143.755
		c-0.777-6.795-3.737-11.888-9.656-14.786c-8.028-3.933-16.293-3.937-24.313-0.027c-5.966,2.906-9.064,7.983-9.652,14.813
		C620.091,143.755,634.475,143.755,649.131,143.755z"/>
	<path fill="#FFFFFF" d="M350.739,161.539c-1.595,0-2.449,0-3.304,0c-22.787,0-45.572-0.001-68.358,0.001
		c-2.784,0.001-2.839,0.065-2.552,2.798c1.055,10.027,8.9,17.671,18.996,18.104c3.553,0.152,7.229-0.082,10.688-0.863
		c5.658-1.279,9.941-4.711,12.65-9.949c0.207-0.4,0.469-0.771,0.81-1.334c7.302,4.213,14.504,8.369,21.966,12.674
		c-0.656,0.779-1.171,1.434-1.729,2.045c-7.508,8.221-17.006,12.803-27.787,14.743c-12.479,2.246-24.895,1.892-36.896-2.577
		c-16.51-6.146-26.056-18.021-28.264-35.568c-1.213-9.646-0.281-19.063,3.942-27.953c5.304-11.166,14.24-18.231,25.822-21.867
		c14.596-4.581,29.367-4.631,43.922,0.112c15.996,5.214,25.266,16.619,28.356,32.978
		C350.012,150.21,350.158,155.704,350.739,161.539z M320.629,143.82c0.063-0.385,0.137-0.641,0.139-0.896
		c0.002-0.332-0.021-0.671-0.086-0.996c-1.263-6.24-4.641-10.849-10.521-13.467c-5.155-2.296-10.543-2.65-16.075-1.864
		c-8.625,1.226-14.768,6.701-16.566,14.889c-0.162,0.73-0.119,1.509-0.178,2.336C291.932,143.82,306.262,143.82,320.629,143.82z"/>
	<path fill="#FFFFFF" d="M383.746,124.763c1.936-1.746,3.372-3.107,4.877-4.391c10.043-8.568,21.656-11.945,34.75-10.589
		c5.703,0.591,11.17,1.894,16.211,4.673c8.388,4.623,13.12,11.765,14.137,21.254c0.47,4.37,0.731,8.782,0.757,13.177
		c0.092,15.563,0.037,31.129,0.038,46.693c0,0.721,0,1.441,0,2.354c-0.944,0.062-1.721,0.152-2.496,0.153
		c-7.146,0.011-14.295,0.009-21.44,0.006c-2.655-0.002-2.655-0.007-2.66-2.592c-0.023-14.629,0.021-29.259-0.129-43.887
		c-0.032-3.104-0.547-6.257-1.248-9.29c-1.452-6.282-5.462-10.102-11.883-11.165c-5.627-0.933-11.2-0.636-16.548,1.446
		c-9.09,3.537-13.769,10.566-14.074,20.014c-0.451,13.88-0.221,27.781-0.292,41.675c-0.021,4.272,0.43,3.776-3.704,3.793
		c-6.682,0.024-13.359,0.007-20.04,0.007c-0.794,0-1.588,0-2.556,0c0-26.599,0-53.012,0-79.636c0.48-0.047,1.052-0.15,1.621-0.15
		c7.549-0.011,15.098,0.035,22.646-0.042c1.595-0.017,2.166,0.492,2.056,2.048C383.673,121.612,383.746,122.923,383.746,124.763z"/>
	<path fill="#FFFFFF" d="M745.74,131.715c-3.816,0-7.289-0.186-10.736,0.034c-11.962,0.759-20.313,8.321-22.229,20.123
		c-0.479,2.952-0.729,5.974-0.75,8.963c-0.084,11.692-0.071,23.388,0.005,35.079c0.012,1.783-0.536,2.281-2.271,2.263
		c-7.35-0.081-14.7-0.057-22.05-0.017c-1.427,0.008-2.157-0.245-2.153-1.961c0.053-25.391,0.034-50.781,0.039-76.173
		c0.001-0.461,0.067-0.921,0.115-1.545c8.684,0,17.324,0,26.172,0c0.071,1.408,0.145,2.82,0.243,4.813
		c0.941-1.023,1.504-1.632,2.062-2.243c5.145-5.626,10.966-10.353,18.674-11.648c3.814-0.641,7.816-0.217,11.733-0.176
		c0.386,0.005,1.095,0.702,1.101,1.083C745.759,117.376,745.74,124.443,745.74,131.715z"/>
	<path fill="#FFFFFF" d="M239.507,197.938c-0.77,0.061-1.415,0.15-2.062,0.151c-7.351,0.011-14.701-0.03-22.051,0.037
		c-1.612,0.015-2.199-0.414-2.197-2.124c0.044-34.88,0.041-69.761,0.008-104.642c-0.002-1.518,0.387-2.135,2.013-2.119
		c7.483,0.066,14.968,0.056,22.451,0.006c1.449-0.01,1.945,0.406,1.943,1.938c-0.043,35.147-0.033,70.295-0.036,105.442
		C239.576,196.96,239.542,197.292,239.507,197.938z"/>
	<path fill="#FFFFFF" d="M-29.637,184.322c-9.979-0.221-21.095-4.359-29.839-13.793c-13.996-15.098-13.145-36.93,1.837-51.354
		c16.498-15.885,45.054-15.839,61.512,0.097c17.897,17.332,14.752,44.833-6.66,58.25C-9.904,181.979-18.199,184.318-29.637,184.322z
		"/>
</g>
</svg>
