<?xml version="1.0" encoding="utf-8"?>
<!-- Generator: Adobe Illustrator 16.0.0, SVG Export Plug-In . SVG Version: 6.00 Build 0)  -->
<!DOCTYPE svg PUBLIC "-//W3C//DTD SVG 1.1//EN" "http://www.w3.org/Graphics/SVG/1.1/DTD/svg11.dtd">
<svg version="1.1" id="Layer_1" xmlns="http://www.w3.org/2000/svg" xmlns:xlink="http://www.w3.org/1999/xlink" x="0px" y="0px"
	 width="1162.246px" height="256px" viewBox="0 0 1162.246 256" enable-background="new 0 0 1162.246 256" xml:space="preserve">
<polygon fill="#1C2533" points="0,-0.003 0,255.995 1162.246,256.001 1162.246,-0.003 "/>
<path fill="#FFFFFF" d="M228.77,183.909c-10.337,12.221-23.733,19.522-39.378,22.308c-21.059,3.744-40.483-0.449-57.502-13.728
	c-11.165-8.71-18.631-19.978-21.745-33.944c-0.918-4.115-1.151-8.25-0.491-12.426c0.042-0.262,0.006-0.542,0.006-1.049
	c-0.527,0.38-0.923,0.633-1.286,0.931c-12.143,9.937-24.28,19.881-36.424,29.815c-3.302,2.701-7.021,4.276-11.366,4.22
	c-7.319-0.097-12.016-6.205-10.186-13.289c1.03-3.983,3.42-7.004,6.633-9.466c10.404-7.975,20.796-15.965,31.191-23.95
	c12.311-9.458,24.62-18.917,36.929-28.379c0.341-0.262,0.657-0.554,0.984-0.832c-0.028-0.107-0.056-0.212-0.084-0.318
	c-0.506,0-1.013,0-1.519,0c-12.621,0.001-25.242,0.044-37.861-0.048c-1.576-0.012-3.262-0.496-4.697-1.181
	c-4.09-1.954-5.487-6.158-3.501-10.233c1.891-3.883,5.225-6.001,9.278-7.027c1.45-0.368,2.993-0.505,4.494-0.508
	c24.749-0.037,49.499-0.034,74.249-0.04c0.513,0,1.026,0,1.54,0c0.039-0.1,0.079-0.198,0.118-0.298
	c-0.338-0.312-0.661-0.641-1.017-0.931c-7.813-6.364-15.629-12.725-23.446-19.084c-1.357-1.105-2.498-2.354-2.946-4.116
	c-0.541-2.124,0.05-3.99,1.366-5.622c2.132-2.643,5.042-3.823,8.344-4.117c3.682-0.329,6.832,0.813,9.784,3.095
	c19.381,14.982,38.816,29.893,58.258,44.795c10.993,8.426,19.024,18.987,22.581,32.467
	C246.278,150.688,241.871,168.425,228.77,183.909z"/>
<path fill="#FFFFFF" d="M382.123,186.611c-10.107,11.927-23.404,18.123-38.606,20.449c-11.511,1.764-22.967,1.416-34.214-1.979
	c-7.171-2.169-13.369-5.999-19.383-11.663c0,3.915,0,7.066,0,10.455c-11.881,0-23.511,0-35.274,0c0-51.094,0-101.997,0-153.33
	c2.785,0.666,5.485,1.271,8.164,1.958c8.227,2.106,16.436,4.292,24.681,6.331c1.891,0.467,2.462,1.311,2.446,3.256
	c-0.094,12.423-0.048,24.847-0.048,37.269c0,0.965,0,1.928,0,3.021c0.459-0.11,0.772-0.087,0.915-0.232
	c8.547-8.559,19.09-12.581,30.936-13.693c14.572-1.368,28.739,0.181,41.955,6.755c19.597,9.746,30.019,25.83,31.729,47.58
	C396.703,159.113,392.844,173.967,382.123,186.611z"/>
<path fill="#FFFFFF" d="M440.038,202.169c0,0.442-0.045,0.883-0.092,1.74c-1.022,0.084-1.879,0.2-2.739,0.2
	c-9.761,0.016-19.522-0.039-29.284,0.051c-2.141,0.02-2.921-0.551-2.918-2.821c0.061-46.321,0.055-92.645,0.011-138.968
	c-0.002-2.016,0.515-2.835,2.674-2.814c9.938,0.088,19.878,0.074,29.815,0.008c1.925-0.014,2.583,0.539,2.58,2.574
	C440.028,108.814,440.042,155.493,440.038,202.169z"/>
<path fill="#FFFFFF" d="M583.276,155.57c-30.261,0-60.52-0.002-90.779,0.002c-3.698,0.002-3.771,0.087-3.389,3.716
	c1.4,13.315,11.818,23.468,25.227,24.043c4.719,0.201,9.6-0.108,14.193-1.146c7.514-1.699,13.203-6.256,16.801-13.213
	c0.275-0.529,0.621-1.023,1.074-1.771c9.696,5.595,19.262,11.113,29.172,16.831c-0.871,1.034-1.556,1.905-2.295,2.718
	c-9.972,10.918-22.584,17.003-36.902,19.578c-16.572,2.982-33.062,2.514-49-3.42c-21.926-8.164-34.603-23.934-37.536-47.237
	c-1.61-12.812-0.373-25.315,5.236-37.122c7.044-14.83,18.91-24.212,34.292-29.041c19.383-6.084,39-6.15,58.328,0.149
	c21.244,6.924,33.557,22.069,37.658,43.796c1.344,7.07,1.536,14.367,2.311,22.117C585.546,155.57,584.415,155.57,583.276,155.57z"/>
<path fill="#FFFFFF" d="M725.485,200.777c0,0.959,0,1.916,0,3.128c-1.25,0.084-2.285,0.2-3.314,0.202
	c-9.488,0.015-18.984,0.012-28.471,0.009c-3.527-0.003-3.527-0.011-3.533-3.442c-0.029-19.428,0.029-38.855-0.172-58.283
	c-0.043-4.121-0.726-8.31-1.656-12.338c-1.93-8.343-7.254-13.415-15.781-14.827c-7.473-1.238-14.875-0.845-21.977,1.921
	c-12.072,4.697-18.287,14.03-18.691,26.58c-0.6,18.433-0.293,36.895-0.387,55.346c-0.029,5.674,0.57,5.015-4.92,5.037
	c-8.873,0.031-17.742,0.009-26.613,0.009c-1.055,0-2.108,0-3.395,0c0-35.324,0-70.401,0-105.76c0.635-0.062,1.396-0.198,2.151-0.198
	c10.025-0.015,20.052,0.045,30.074-0.056c2.119-0.023,2.877,0.653,2.73,2.72c-0.129,1.723-0.031,3.465-0.031,5.909
	c2.57-2.319,4.479-4.126,6.477-5.832c13.338-11.378,28.761-15.864,46.15-14.063c7.574,0.785,14.834,2.515,21.527,6.206
	c11.139,6.14,17.424,15.625,18.774,28.226c0.625,5.804,0.972,11.664,1.004,17.5C725.56,159.438,725.485,180.109,725.485,200.777z"/>
<path fill="#FFFFFF" d="M872.21,204.115c-9.404,0.004-18.809-0.106-28.211,0.066c-2.775,0.053-3.582-0.83-3.316-3.461
	c0.216-2.16,0.044-4.357,0.044-6.957c-0.785,0.442-1.199,0.582-1.484,0.854c-8.41,7.944-18.666,11.752-29.945,12.917
	c-12.758,1.316-25.354,0.361-37.367-4.5c-21.516-8.715-34.069-24.542-36.655-47.723c-2.146-19.277,2.702-36.456,17.012-50.189
	c10.365-9.95,23.156-14.812,37.238-16.482c10.375-1.231,20.692-1.002,30.809,2.031c6.824,2.045,12.902,5.375,18.082,10.285
	c0.449,0.423,0.926,0.821,1.416,1.195c0.111,0.076,0.33,0.008,0.898,0.008c0-0.996,0-2.01,0-3.024
	c0-12.421,0.012-24.841-0.017-37.262c-0.002-1.413,0.025-2.455,1.82-2.903c10.469-2.612,20.897-5.356,31.352-8.032
	c0.486-0.125,1.033-0.015,1.799-0.015c0.054,1.076,0.146,2.117,0.146,3.158c0.01,48.795,0.01,97.589,0.008,146.387
	C875.835,204.104,875.823,204.111,872.21,204.115z"/>
<path fill="#FFFFFF" d="M1019.546,155.537c-30.352,0-60.697,0-91.051,0.003c-3.744,0-3.744,0.003-3.363,3.795
	c1.342,13.284,11.879,23.323,25.279,24.042c5.703,0.307,11.326,0.049,16.75-2.075c6.106-2.396,10.817-6.325,13.938-12.116
	c0.25-0.472,0.498-0.939,0.771-1.395c0.08-0.135,0.252-0.22,0.647-0.548c9.541,5.502,19.175,11.06,28.964,16.705
	c-7.074,8.784-15.738,15.021-26.08,18.587c-22.656,7.813-45.388,7.916-67.377-1.979c-20.419-9.188-30.736-25.901-32.619-48.039
	c-1.015-11.896,0.483-23.388,5.664-34.198c6.983-14.596,18.696-23.926,33.893-28.766c19.644-6.257,39.5-6.332,59.07,0.158
	c21.332,7.076,33.446,22.491,37.428,44.315c1.262,6.914,1.451,14.027,2.176,21.51
	C1021.782,155.537,1020.669,155.537,1019.546,155.537z"/>
<path fill="#FFFFFF" d="M1112.243,115.963c-5.068,0-9.681-0.246-14.258,0.045c-15.888,1.008-26.978,11.051-29.521,26.725
	c-0.637,3.922-0.971,7.934-0.996,11.903c-0.113,15.527-0.096,31.06,0.006,46.587c0.017,2.367-0.713,3.028-3.018,3.004
	c-9.76-0.107-19.521-0.074-29.283-0.021c-1.895,0.011-2.863-0.325-2.858-2.604c0.071-33.721,0.047-67.439,0.053-101.163
	c0-0.612,0.09-1.223,0.151-2.052c11.533,0,23.009,0,34.759,0c0.094,1.87,0.192,3.745,0.321,6.392
	c1.25-1.359,1.998-2.167,2.738-2.979c6.836-7.471,14.566-13.748,24.803-15.469c5.063-0.852,10.377-0.288,15.58-0.233
	c0.513,0.007,1.453,0.933,1.463,1.438C1112.27,96.921,1112.243,106.306,1112.243,115.963z"/>
<path fill="#1C2533" d="M971.118,112.317c-10.658-5.223-21.638-5.228-32.287-0.037c-7.924,3.859-12.039,10.602-12.818,19.673
	c19.363,0,38.466,0,57.931,0C982.909,122.929,978.979,116.165,971.118,112.317z"/>
<path fill="#1C2533" d="M533.777,111.642c-6.848-3.049-14.001-3.519-21.35-2.475c-11.454,1.628-19.61,8.899-22.001,19.772
	c-0.215,0.969-0.157,2.004-0.234,3.104c19.375-0.003,38.405-0.003,57.485-0.003c0.084-0.511,0.183-0.851,0.185-1.19
	c0.004-0.439-0.025-0.892-0.113-1.322C546.071,121.239,541.587,115.12,533.777,111.642z"/>
<path fill="#1C2533" d="M819.903,117.446c-4.22-1.421-8.8-1.75-13.213-2.577c-0.033,0.22-0.066,0.438-0.103,0.657
	c-1.416,0-2.838-0.058-4.252,0.009c-13.584,0.65-24.801,9.138-28.084,22.035c-1.229,4.801-1.559,10.029-1.234,14.986
	c0.662,10.1,5.011,18.622,14.039,23.674c12.459,6.963,25.49,7.146,38.131,0.549c12.479-6.51,16.613-20.09,15.289-32.609
	C839.095,131.107,832.581,121.727,819.903,117.446z"/>
<path fill="#1C2533" d="M337.717,117.709c-4.374-1.479-9.094-1.948-13.658-2.882c-0.04,0.233-0.083,0.466-0.123,0.694
	c-1.416,0-2.837-0.058-4.252,0.012c-13.015,0.606-23.958,8.659-28.001,20.563c-1.711,5.034-1.971,10.225-1.751,15.471
	c0.526,12.599,8.46,23.459,20.363,27.541c8.813,3.021,17.732,3.031,26.59,0.141c10.011-3.266,16.459-10.032,19.398-20.145
	c1.663-5.713,1.912-11.519,0.922-17.352C355.229,130.098,349.134,121.581,337.717,117.709z"/>
<path fill="#1C2533" d="M178.379,103.848c-8.344-0.534-16.3,1.199-23.613,5.323c-11.123,6.272-18.226,15.508-19.703,28.394
	c-1.193,10.408,2.065,19.591,9.119,27.305c8.465,9.257,19.199,13.435,31.617,13.564c1.065,0,2.131,0.023,3.194-0.009
	c0.57-0.019,1.136-0.142,1.706-0.198c9.244-0.94,17.338-4.492,24.295-10.66c13.461-11.936,16.068-31.471,5.877-46.148
	C203.057,110.16,191.861,104.71,178.379,103.848z"/>
<path fill="#1C2533" d="M191.627,159.404c-4.364,2.731-9.451,4.168-16.465,4.171c-6.12-0.136-12.936-2.675-18.298-8.459
	c-8.583-9.259-8.061-22.646,1.126-31.491c10.117-9.741,27.628-9.713,37.72,0.06C206.687,134.313,204.758,151.178,191.627,159.404z"
	/>
</svg>
