<?xml version="1.0" encoding="utf-8"?>
<!-- Generator: Adobe Illustrator 16.0.0, SVG Export Plug-In . SVG Version: 6.00 Build 0)  -->
<!DOCTYPE svg PUBLIC "-//W3C//DTD SVG 1.1//EN" "http://www.w3.org/Graphics/SVG/1.1/DTD/svg11.dtd">
<svg version="1.1" id="Layer_1" xmlns="http://www.w3.org/2000/svg" xmlns:xlink="http://www.w3.org/1999/xlink" x="0px" y="0px"
	 width="549.75px" height="256px" viewBox="0 0 549.75 256" enable-background="new 0 0 549.75 256" xml:space="preserve">
<polygon fill="#1A202C" points="549.741,0 0.009,0 0.02,256 549.75,256 "/>
<path fill="#FFFFFF" d="M75.359,163.841c-11.964-3.344-19.617-11.039-23.135-22.825c-3.542-11.865-2.909-23.542,2.324-34.84
	c3.917-8.453,10.653-13.816,19.239-17.031c9.254-3.466,18.738-4.022,28.403-2.179c0.148,0.028,0.297,0.051,0.539,0.091
	c0-0.339,0-0.638,0-0.937c-0.002-11.614-0.004-23.229-0.007-34.843c0-1.157,0.092-1.282,1.13-1.283
	c7.488-0.003,14.976-0.002,22.464,0c0.237,0,0.475,0.031,0.755,0.049c0,37.626,0,75.206,0,112.863
	c-2.062,0.316-4.108,0.644-6.156,0.951c-8.796,1.336-17.621,2.396-26.534,2.391C87.946,166.243,81.597,165.583,75.359,163.841z"/>
<path fill="#FFFFFF" d="M165.763,138.521c-0.063,6.992-0.599,13.979-0.998,20.965c-0.306,5.371-0.908,10.713-2.262,15.937
	c-1.214,4.69-2.984,9.134-6.385,12.71c-3.619,3.807-7.795,6.938-12.24,9.719c-1.834,1.146-3.741,1.428-5.744,0.474
	c-3.854-1.836-7.715-3.658-11.557-5.523c-2.739-1.323-5.449-2.712-8.14-4.057c2.955-1.896,6.047-3.796,9.058-5.822
	c5.61-3.774,9.835-8.655,11.817-15.257c1.396-4.648,2.121-9.432,2.257-14.258c0.246-8.734,0.341-17.479,0.388-26.215
	c0.069-12.806,0.041-25.611,0.053-38.417c0-0.391,0-0.781,0-1.226c7.967,0,15.833,0,23.81,0c0,0.352,0,0.677,0,1.003
	C165.818,105.208,165.913,121.866,165.763,138.521z"/>
<path fill="#FFFFFF" d="M240.787,119.733c-0.063,3.208-0.172,6.416-0.178,9.625c-0.022,11.127-0.009,22.252-0.009,33.377
	c0,0.363,0,0.727,0,1.188c-1.476,0.125-2.895,0.234-4.312,0.367c-6.994,0.655-13.983,1.392-20.985,1.958
	c-7.352,0.598-14.711,0.82-22.01-0.637c-3.438-0.688-6.721-1.787-9.65-3.778c-4.343-2.952-6.538-7.245-7.479-12.248
	c-0.972-5.171-0.613-10.272,1.115-15.269c1.895-5.479,5.794-9.076,10.818-11.628c4.703-2.391,9.752-3.717,14.916-4.551
	c4.639-0.749,9.318-1.262,13.987-1.812c0.701-0.082,0.946-0.357,1.078-0.948c0.689-3.086,0.329-6.063-0.901-8.958
	c-0.254-0.597-0.666-0.85-1.29-0.989c-5.961-1.336-11.894-1.029-17.814,0.25c-5.482,1.185-10.7,3.158-15.841,5.355
	c-0.252,0.108-0.507,0.21-0.764,0.304c-0.051,0.018-0.118-0.008-0.255-0.02c0-0.292,0-0.592,0-0.891
	c0-5.532,0.018-11.064-0.021-16.597c-0.005-0.749,0.262-1.051,0.909-1.323c8.367-3.515,17.081-5.631,26.101-6.533
	c5.378-0.537,10.739-0.534,16.056,0.581c3.503,0.734,6.791,1.978,9.659,4.189c3.874,2.986,5.598,7.133,6.364,11.789
	C241.222,108.242,240.9,113.992,240.787,119.733z"/>
<path fill="#FFFFFF" d="M411.221,106.755c-1.03-0.026-2.063-0.164-3.092-0.265c-0.334-0.032-0.664-0.104-1-0.113
	c-0.756-0.022-1.168,0.248-1.146,1.122c0.147,5.774,0.182,11.553,0.397,17.324c0.412,10.903,1.142,21.798,0.813,32.718
	c-0.207,6.977-0.814,13.908-2.746,20.656c-3.426,11.978-11.06,20.09-22.683,24.466c-7.112,2.677-14.53,3.397-22.063,3.349
	c-8.465-0.055-16.617-1.703-24.525-4.666c-0.514-0.188-0.772-0.404-0.771-1.022c0.022-6.938,0.014-13.88,0.018-20.816
	c0-0.175,0.021-0.349,0.037-0.598c1.412,0.655,2.73,1.35,4.107,1.896c8.45,3.381,17.203,5.065,26.325,4.396
	c3.248-0.238,6.396-0.965,9.359-2.377c4.937-2.359,7.559-6.383,8.355-11.698c0.379-2.532,0.729-5.063,1.129-7.846
	c-2.066,0.401-4.013,0.724-5.929,1.166c-3.573,0.823-7.135,1.679-10.842,1.636c-7.24-0.083-14.057-1.689-20.149-5.729
	c-6.966-4.614-11.438-11.088-13.357-19.154c-2.877-12.075-1.486-23.689,4.807-34.499c4.33-7.44,10.863-12.363,18.773-15.554
	c6.398-2.581,13.082-3.929,19.92-4.586c9.6-0.922,19.18-0.505,28.732,0.587c4.666,0.533,9.307,1.287,14.135,1.966
	c-0.344,0.967-0.568,1.786-0.92,2.543c-2.265,4.87-4.547,9.729-6.857,14.577C411.926,106.489,411.499,106.761,411.221,106.755z"/>
<path fill="#FFFFFF" d="M492.499,147.588c-3.187,6.135-7.496,11.295-13.549,14.811c-4.199,2.438-8.779,3.822-13.568,4.471
	c-2.627,0.354-5.287,0.477-7.934,0.704c-6.24-0.163-12.33-0.941-18.031-3.636c-9.885-4.67-16.457-12.35-19.771-22.668
	c-4.164-12.979-2.771-25.604,3.53-37.614c3.979-7.576,10.373-12.483,18.451-15.135c9.453-3.103,19.082-3.825,28.805-1.412
	c8.574,2.128,15.656,6.595,20.729,13.953c3.44,4.998,5.313,10.638,6.231,16.58C499.024,128.139,497.395,138.15,492.499,147.588z"/>
<path fill="#1A202C" d="M383.196,106.977c0-0.433,0.057-0.823-0.547-0.96c-5.563-1.272-10.886-0.796-15.783,2.297
	c-8.416,5.315-12.33,16.49-9.246,26.249c1.127,3.567,2.789,6.813,6.104,8.846c6.115,3.744,12.519,3.771,19.089,1.345
	c0.713-0.263,0.944-0.621,0.918-1.392c-0.209-6.018-0.371-12.032-0.539-17.763C383.192,119.199,383.192,113.088,383.196,106.977z"/>
<path fill="#1A202C" d="M102.115,106.525c-2.284-0.383-4.549-1.008-6.846-1.147c-7.934-0.479-14.89,3.016-18.392,10.566
	c-2.624,5.657-2.94,11.566-1.279,17.533c1.639,5.892,5.358,9.99,11.145,12.092c5.245,1.901,10.561,1.55,15.922,0.377
	c0.032-0.196,0.059-0.287,0.059-0.377c0.003-12.742,0.001-25.486,0.014-38.231C102.738,106.858,102.613,106.608,102.115,106.525z"/>
<path fill="#FFFFFF" d="M142.04,50.044c7.942,0,15.817,0,23.73,0c0,8.287,0,16.522,0,24.801c-7.929,0-15.804,0-23.73,0
	C142.04,66.561,142.04,58.301,142.04,50.044z"/>
<path fill="#FFFFFF" d="M324.75,127.828c-0.209,10.267-0.441,20.533-0.625,30.8c-0.033,1.8,0.117,3.604,0.178,5.405
	c0.011,0.296,0,0.595,0,0.938c-7.951,0-15.819,0-23.816,0c0-0.363-0.002-0.688,0-1.013c0.084-13.724,0.179-27.444,0.244-41.168
	c0.017-3.301-0.035-6.605-0.799-9.844c-1.217-5.155-3.75-7.236-9.055-7.496c-4.66-0.229-9.193,0.514-13.678,1.674
	c-0.236,0.062-0.438,0.456-0.557,0.736c-0.088,0.208-0.017,0.481-0.017,0.726c0,18.371,0,36.74,0,55.11c0,0.394,0,0.79,0,1.256
	c-7.954,0-15.849,0-23.808,0c-0.017-0.318-0.046-0.614-0.046-0.91c-0.002-23.935,0.001-47.866-0.016-71.799
	c0-0.692,0.157-0.968,0.888-1.153c7.315-1.858,14.701-3.365,22.194-4.272c8.613-1.043,17.238-1.438,25.842,0.104
	c4.295,0.769,8.406,2.087,12.15,4.403c5.883,3.638,9.25,8.953,10.262,15.728C325.124,113.944,324.893,120.892,324.75,127.828z"/>
<path fill="#1A202C" d="M205.372,133.924c-4.258,0.791-7.223,3.139-8.071,7.633c-0.343,1.813,0.142,3.389,1.396,4.717
	c1.322,1.4,3.032,2.133,4.838,2.645c3.582,1.018,7.233,1.105,10.898,0.646c1.653-0.207,3.285-0.582,4.91-0.879
	c0-5.58,0-10.979,0-16.498c-1.422,0.143-2.76,0.248-4.09,0.416C211.956,133.016,208.636,133.318,205.372,133.924z"/>
<path fill="#1A202C" d="M463.221,106.338c-5.321-2.221-13.176-1.254-17.319,5.976c-2.127,3.71-3.111,7.738-3.392,11.96
	c-0.358,5.516,0.431,10.833,2.822,15.869c2.969,6.242,8.701,8.752,14.895,7.832c4.06-0.601,6.869-3.156,8.951-6.537
	c2.854-4.637,3.859-9.771,3.908-13.586c0.014-6.87-1.088-11.573-3.281-15.38C468.243,109.756,466.163,107.564,463.221,106.338z"/>
</svg>
