<?xml version="1.0" encoding="utf-8"?>
<!-- Generator: Adobe Illustrator 16.0.0, SVG Export Plug-In . SVG Version: 6.00 Build 0)  -->
<!DOCTYPE svg PUBLIC "-//W3C//DTD SVG 1.0//EN" "http://www.w3.org/TR/2001/REC-SVG-20010904/DTD/svg10.dtd">
<svg version="1.0" id="Layer_1" xmlns="http://www.w3.org/2000/svg" xmlns:xlink="http://www.w3.org/1999/xlink" x="0px" y="0px"
	 width="735.09px" height="256px" viewBox="-111.545 0 735.09 256" enable-background="new -111.545 0 735.09 256"
	 xml:space="preserve">
<g>
	<path fill="#FFFFFF" d="M436.052,185.885c-3.392,0.66-6.582,1.188-9.728,1.914c-5.864,1.352-11.706,2.754-17.787,2.684
		c-11.88-0.137-23.063-2.775-33.063-9.402c-11.429-7.57-18.769-18.193-21.92-31.428c-4.72-19.813-2.438-38.87,7.887-56.606
		c7.104-12.207,17.826-20.285,30.806-25.521c10.498-4.235,21.462-6.447,32.684-7.526c15.75-1.513,31.469-0.829,47.144,0.964
		c7.654,0.875,15.271,2.112,23.192,3.226c-0.565,1.586-0.932,2.929-1.51,4.173c-3.713,7.99-7.461,15.964-11.251,23.918
		c-0.201,0.422-0.902,0.869-1.359,0.858c-1.692-0.043-3.384-0.269-5.072-0.434c-0.547-0.053-1.091-0.17-1.641-0.186
		c-1.24-0.037-1.916,0.407-1.88,1.841c0.243,9.475,0.297,18.956,0.654,28.426c0.676,17.89,1.868,35.766,1.332,53.684
		c-0.342,11.446-1.337,22.821-4.506,33.893c-5.624,19.652-18.145,32.964-37.217,40.143c-11.671,4.393-23.842,5.575-36.203,5.495
		c-13.89-0.09-27.268-2.796-40.242-7.655c-0.843-0.313-1.271-0.666-1.267-1.682c0.041-11.385,0.023-22.771,0.026-34.156
		c0-0.287,0.036-0.572,0.063-0.98c2.317,1.078,4.48,2.214,6.738,3.113c13.869,5.547,28.228,8.312,43.2,7.213
		c5.329-0.391,10.496-1.582,15.354-3.901c8.101-3.872,12.403-10.472,13.711-19.195C434.819,194.604,435.396,190.448,436.052,185.885
		z M435.159,124.055c0-10.498-0.002-20.524,0.004-30.551c0.001-0.711,0.093-1.35-0.897-1.576
		c-9.125-2.088-17.858-1.307-25.896,3.769c-13.81,8.721-20.231,27.057-15.171,43.069c1.849,5.854,4.577,11.178,10.021,14.512
		c10.031,6.146,20.535,6.188,31.315,2.207c1.171-0.432,1.553-1.021,1.509-2.284C435.699,143.329,435.435,133.457,435.159,124.055z"
		/>
	<path fill="#FFFFFF" d="M14.913,185.271c-3.382,0.522-6.74,1.056-10.101,1.563c-14.433,2.19-28.912,3.933-43.538,3.921
		c-10.559-0.007-20.976-1.09-31.212-3.949c-19.631-5.486-32.188-18.113-37.961-37.451c-5.812-19.47-4.773-38.632,3.814-57.167
		c6.427-13.869,17.479-22.669,31.567-27.945c15.185-5.688,30.746-6.6,46.604-3.575c0.243,0.046,0.487,0.083,0.884,0.149
		c0-0.556,0-1.047,0-1.538c-0.003-19.057-0.006-38.114-0.011-57.171c0-1.899,0.152-2.104,1.854-2.105
		C-10.9-0.002,1.386,0,13.673,0.004c0.389,0,0.779,0.05,1.239,0.081C14.913,61.822,14.913,123.484,14.913,185.271z M-25.134,157.441
		c0.052-0.323,0.096-0.471,0.096-0.616c0.005-20.911,0.003-41.822,0.023-62.733c0.001-0.784-0.204-1.193-1.022-1.33
		c-3.747-0.628-7.464-1.654-11.232-1.882c-13.018-0.787-24.431,4.949-30.178,17.337c-4.305,9.282-4.824,18.977-2.099,28.768
		c2.689,9.664,8.792,16.392,18.287,19.84C-42.653,159.945-33.931,159.364-25.134,157.441z"/>
	<path fill="#FFFFFF" d="M556.999,192.927c-10.24-0.268-20.233-1.544-29.588-5.963c-16.22-7.661-27.003-20.262-32.437-37.192
		c-6.834-21.297-4.549-42.015,5.793-61.72c6.524-12.431,17.021-20.482,30.273-24.833c15.514-5.092,31.31-6.276,47.263-2.317
		c14.07,3.492,25.692,10.821,34.012,22.893c5.647,8.201,8.718,17.455,10.229,27.204c2.671,17.227,0,33.655-8.036,49.14
		c-5.225,10.063-12.298,18.533-22.229,24.301c-6.891,3.998-14.406,6.271-22.264,7.332
		C565.704,192.354,561.34,192.555,556.999,192.927z M582.658,127.752c0.023-11.272-1.786-18.99-5.384-25.237
		c-2.564-4.452-5.978-8.047-10.803-10.06c-8.734-3.644-21.62-2.057-28.422,9.805c-3.489,6.088-5.104,12.696-5.56,19.624
		c-0.593,9.05,0.701,17.774,4.63,26.037c4.871,10.243,14.276,14.361,24.438,12.853c6.661-0.986,11.271-5.18,14.688-10.729
		C580.927,142.439,582.577,134.014,582.658,127.752z"/>
	<path fill="#FFFFFF" d="M338.533,188.662c-13.047,0-25.96,0-39.082,0c0-0.596-0.002-1.128,0.001-1.661
		c0.138-22.517,0.292-45.033,0.401-67.55c0.024-5.416-0.057-10.837-1.311-16.152c-1.994-8.458-6.152-11.872-14.857-12.3
		c-7.644-0.375-15.086,0.844-22.44,2.747c-0.39,0.101-0.716,0.748-0.91,1.208c-0.146,0.34-0.028,0.79-0.028,1.191
		c0,30.143,0,60.285,0,90.425c0,0.647,0,1.299,0,2.061c-13.05,0-26.004,0-39.063,0c-0.027-0.521-0.075-1.007-0.075-1.492
		c-0.003-39.271,0.001-78.54-0.026-117.81c0-1.135,0.258-1.588,1.456-1.892c12.004-3.049,24.122-5.521,36.417-7.01
		c14.133-1.711,28.286-2.359,42.402,0.17c7.045,1.262,13.793,3.425,19.936,7.225c9.652,5.969,15.179,14.69,16.838,25.807
		c1.688,11.306,1.308,22.706,1.074,34.088c-0.344,16.846-0.724,33.69-1.025,50.536c-0.055,2.953,0.191,5.912,0.293,8.869
		C338.547,187.607,338.533,188.098,338.533,188.662z"/>
	<path fill="#FFFFFF" d="M103.75,100.627c0-0.48,0-0.972,0-1.462c0-9.077,0.03-18.155-0.035-27.232
		c-0.009-1.229,0.429-1.725,1.491-2.171c13.729-5.767,28.027-9.239,42.826-10.719c8.825-0.882,17.621-0.876,26.345,0.952
		c5.748,1.205,11.142,3.245,15.849,6.874c6.357,4.9,9.184,11.704,10.442,19.343c1.543,9.367,1.016,18.801,0.831,28.222
		c-0.104,5.264-0.282,10.528-0.292,15.792c-0.037,18.256-0.014,36.51-0.014,54.766c0,0.595,0,1.189,0,1.949
		c-2.422,0.205-4.75,0.385-7.075,0.603c-11.477,1.076-22.944,2.281-34.432,3.213c-12.063,0.979-24.139,1.347-36.115-1.046
		c-5.642-1.126-11.027-2.932-15.834-6.199c-7.126-4.844-10.728-11.888-12.271-20.097c-1.595-8.483-1.006-16.856,1.829-25.052
		c3.109-8.987,9.508-14.892,17.75-19.081c7.717-3.922,16.001-6.098,24.474-7.467c7.612-1.229,15.289-2.071,22.95-2.972
		c1.15-0.135,1.552-0.587,1.769-1.557c1.131-5.064,0.54-9.947-1.478-14.699c-0.417-0.98-1.093-1.394-2.117-1.623
		c-9.781-2.193-19.515-1.689-29.229,0.41c-8.996,1.944-17.557,5.182-25.993,8.787c-0.414,0.177-0.832,0.344-1.253,0.499
		C104.084,100.69,103.974,100.647,103.75,100.627z M166.315,134.865c-2.334,0.232-4.529,0.406-6.712,0.681
		c-5.411,0.681-10.859,1.179-16.214,2.172c-6.986,1.298-11.852,5.15-13.243,12.522c-0.562,2.975,0.233,5.562,2.292,7.742
		c2.169,2.297,4.974,3.496,7.939,4.336c5.877,1.668,11.867,1.815,17.881,1.059c2.712-0.342,5.39-0.957,8.057-1.443
		C166.315,152.777,166.315,143.919,166.315,134.865z"/>
	<path fill="#FFFFFF" d="M0.749,227.666c4.848-3.107,9.923-6.229,14.863-9.553c9.205-6.194,16.137-14.204,19.389-25.033
		c2.291-7.63,3.48-15.475,3.703-23.395c0.404-14.332,0.56-28.675,0.637-43.014c0.113-21.012,0.066-42.023,0.087-63.035
		c0-0.641,0-1.281,0-2.011c13.072,0,25.979,0,39.068,0c0,0.577,0,1.111,0,1.646c-0.007,27.331,0.147,54.662-0.098,81.992
		c-0.103,11.473-0.982,22.938-1.637,34.4c-0.502,8.813-1.49,17.577-3.71,26.148c-1.993,7.696-4.897,14.986-10.477,20.854
		c-5.938,6.245-12.791,11.383-20.083,15.944c-3.009,1.883-6.138,2.343-9.424,0.777c-6.325-3.013-12.66-6.002-18.962-9.063
		C9.611,232.15,5.164,229.873,0.749,227.666z"/>
	<path fill="#FFFFFF" d="M39.473,0.088c13.032,0,25.953,0,38.937,0c0,13.597,0,27.109,0,40.693c-13.009,0-25.931,0-38.937,0
		C39.473,27.188,39.473,13.636,39.473,0.088z"/>
</g>
</svg>
