<?xml version="1.0" encoding="utf-8"?>
<!-- Generator: Adobe Illustrator 16.0.0, SVG Export Plug-In . SVG Version: 6.00 Build 0)  -->
<!DOCTYPE svg PUBLIC "-//W3C//DTD SVG 1.1//EN" "http://www.w3.org/Graphics/SVG/1.1/DTD/svg11.dtd">
<svg version="1.1" id="Layer_1" xmlns="http://www.w3.org/2000/svg" xmlns:xlink="http://www.w3.org/1999/xlink" x="0px" y="0px"
	 width="256px" height="151.209px" viewBox="0 0 256 151.209" enable-background="new 0 0 256 151.209" xml:space="preserve">
<g>
	<path fill="#1A202C" d="M98.243,36.382c0.281-0.409,0.541-0.832,0.767-1.282c1.307-2.614,1.472-5.103,0.492-7.396
		c-2.018-4.725-8.257-6.698-8.561-6.791l-18.824-5.239v0.001L57.779,36.074l20.531,5.508l0.101,0.023
		c0.102,0.019,2.528,0.484,5.733,0.484c3.83,0,7.045-0.646,9.581-1.891l0.026,0.016l0.498-0.287c1.09-0.594,2.039-1.311,2.845-2.142
		c0.035-0.035,0.068-0.069,0.102-0.104c0.338-0.359,0.652-0.736,0.938-1.137C98.171,36.492,98.206,36.436,98.243,36.382z
		 M97.158,31.193c-0.012,0.136-0.038,0.278-0.06,0.417c-0.012,0.067-0.016,0.134-0.029,0.202c-0.027,0.134-0.067,0.272-0.104,0.408
		c-0.02,0.077-0.034,0.152-0.058,0.229c-0.05,0.164-0.112,0.33-0.177,0.496c-0.02,0.054-0.035,0.106-0.057,0.16
		c-0.089,0.221-0.191,0.446-0.306,0.675c-0.144,0.287-0.307,0.563-0.483,0.829c-0.045,0.067-0.097,0.127-0.143,0.193
		c-0.139,0.193-0.281,0.384-0.438,0.566c-0.062,0.072-0.129,0.138-0.193,0.208c-0.154,0.165-0.311,0.327-0.479,0.48
		c-0.074,0.067-0.15,0.131-0.226,0.195c-0.177,0.15-0.361,0.295-0.554,0.434c-0.042,0.031-0.085,0.061-0.128,0.09
		c-4.56-2.236-13.896-3.02-17.267-3.237l-1.962-14.137l15.614,4.345c0.025,0.008,0.056,0.019,0.083,0.027
		c0.298,0.102,1.381,0.491,2.611,1.181c0.059,0.034,0.116,0.064,0.175,0.099c0.049,0.029,0.1,0.061,0.15,0.09
		c0.954,0.574,1.928,1.303,2.678,2.182c0.023,0.027,0.045,0.054,0.068,0.082c0.102,0.123,0.199,0.248,0.292,0.377
		c0.053,0.074,0.101,0.15,0.151,0.226c0.062,0.095,0.126,0.19,0.183,0.289c0.106,0.184,0.204,0.373,0.288,0.57
		c0.046,0.106,0.079,0.216,0.116,0.325c0.028,0.079,0.062,0.156,0.084,0.235c0.032,0.112,0.052,0.226,0.076,0.339
		c0.016,0.078,0.04,0.155,0.052,0.234c0.019,0.123,0.026,0.249,0.036,0.374c0.006,0.071,0.018,0.141,0.02,0.213
		c0.005,0.133-0.004,0.269-0.01,0.404C97.16,31.061,97.164,31.126,97.158,31.193z M79.019,38.715l-5.114-1.372l0.5-0.957
		l0.691,0.031c2.961,0.134,10.094,0.736,14.751,2.063c-1.902,0.494-3.913,0.657-5.704,0.657
		C81.468,39.137,79.353,38.774,79.019,38.715z"/>
	<path fill="#FFFFFF" d="M93.725,36.775c0.042-0.03,0.085-0.06,0.128-0.09c0.192-0.139,0.376-0.284,0.554-0.434
		c0.076-0.064,0.152-0.128,0.226-0.195c0.168-0.154,0.326-0.316,0.479-0.48c0.064-0.07,0.132-0.135,0.193-0.208
		c0.157-0.182,0.299-0.373,0.438-0.566c0.046-0.066,0.098-0.126,0.143-0.193c0.177-0.266,0.339-0.542,0.483-0.829
		c0.114-0.229,0.216-0.454,0.306-0.675c0.022-0.054,0.037-0.106,0.057-0.16c0.064-0.166,0.127-0.333,0.177-0.496
		c0.024-0.077,0.038-0.152,0.058-0.229c0.037-0.136,0.077-0.274,0.104-0.408c0.013-0.068,0.017-0.135,0.029-0.202
		c0.022-0.139,0.048-0.281,0.06-0.417c0.006-0.067,0.002-0.133,0.005-0.2c0.006-0.135,0.015-0.271,0.01-0.404
		c-0.002-0.072-0.014-0.142-0.02-0.213c-0.01-0.125-0.017-0.251-0.036-0.374c-0.012-0.08-0.036-0.157-0.052-0.234
		c-0.024-0.113-0.044-0.228-0.076-0.339c-0.023-0.08-0.057-0.157-0.084-0.235c-0.038-0.108-0.07-0.218-0.116-0.325
		c-0.083-0.197-0.182-0.386-0.288-0.57c-0.057-0.098-0.121-0.193-0.183-0.289c-0.05-0.076-0.098-0.152-0.151-0.226
		c-0.093-0.129-0.19-0.254-0.292-0.377c-0.023-0.028-0.045-0.055-0.068-0.082c-0.75-0.878-1.724-1.608-2.678-2.182
		c-0.05-0.03-0.101-0.062-0.15-0.09c-0.059-0.035-0.116-0.065-0.175-0.099c-1.23-0.69-2.313-1.079-2.611-1.181
		c-0.027-0.008-0.058-0.019-0.083-0.027l-15.614-4.345l1.962,14.137C79.829,33.755,89.165,34.54,93.725,36.775z"/>
	<path fill="#FFFFFF" d="M236.772,86.146l-57.998,21.498l-31.443-34.366l-46.735,12.583L76.272,52.509l3.346,0.385
		c4.117,0.474,8.039,0.714,11.656,0.714c24.844,0,29.333-11.292,29.375-11.406l0.078-0.178c2.166-4.172,2.551-8.126,1.144-11.754
		c-3.076-7.929-13.679-12.104-14.421-12.388L57.769,3.374L4.285,66.777l0.247,0.068l25.688,7.114l17.006-23.296l40.671,60.894
		l51.488-16.969l33.858,42.256l77.972-33.087L236.772,86.146z M72.116,15.676L72.116,15.676l18.824,5.238
		c0.304,0.093,6.543,2.066,8.561,6.791c0.98,2.293,0.815,4.781-0.492,7.396c-0.226,0.451-0.486,0.874-0.767,1.282
		c-0.037,0.054-0.071,0.109-0.109,0.162c-0.286,0.401-0.6,0.778-0.938,1.137c-0.034,0.035-0.067,0.069-0.102,0.104
		c-0.806,0.832-1.755,1.548-2.845,2.142l-0.498,0.287l-0.026-0.016c-2.535,1.245-5.751,1.891-9.581,1.891
		c-3.205,0-5.631-0.465-5.733-0.484l-0.101-0.023l-20.531-5.508L72.116,15.676z"/>
	<polygon fill="#FFFFFF" points="140.323,110.066 170.283,146.824 171.249,139.075 140.941,101.25 140.323,100.478 	"/>
	<polygon fill="#FFFFFF" points="87.69,127.833 85.875,113.842 50.315,60.604 53.683,75.8 	"/>
	<polygon fill="#FFFFFF" points="3.92,69.809 3.751,69.762 12.849,95.669 35.89,100.396 29.361,76.854 	"/>
	<path fill="#1A202C" d="M237.72,82.646l-58.107,21.539L148.297,69.96l-46.51,12.522l-7.197-9.868
		c6.038-0.893,26.589-5.376,30.024-25.315c0,0,1.463-14.357,0.004-18.108c-3.666-9.425-15.686-13.91-16.288-14.126L56.75,0L0,67.277
		l10.867,30.948l26.61,5.458L51.5,77.856l37.17,56.874l48.809-23.481l32.57,39.961L256,104.933L237.72,82.646z M13.098,95.669
		L4.001,69.762l0.169,0.047l25.441,7.045l6.528,23.542L13.098,95.669z M53.683,75.8l-3.368-15.196l35.559,53.238l1.815,13.991
		L53.683,75.8z M170.283,146.824l-29.96-36.758v-9.588l0.618,0.771l30.308,37.825L170.283,146.824z M173.244,136.843l-33.858-42.256
		l-51.488,16.969L47.227,50.663L30.221,73.958L4.532,66.845l-0.247-0.068L57.769,3.374l49.68,14.509
		c0.743,0.283,11.345,4.459,14.421,12.388c1.407,3.627,1.022,7.582-1.144,11.754l-0.078,0.178
		c-0.042,0.115-4.531,11.406-29.375,11.406c-3.617,0-7.539-0.24-11.656-0.714l-3.346-0.385l24.324,33.352l46.735-12.583
		l31.443,34.366l57.998-21.498l14.443,17.61L173.244,136.843z"/>
</g>
</svg>
