<?xml version="1.0" encoding="utf-8"?>
<!-- Generator: Adobe Illustrator 16.0.0, SVG Export Plug-In . SVG Version: 6.00 Build 0)  -->
<!DOCTYPE svg PUBLIC "-//W3C//DTD SVG 1.1//EN" "http://www.w3.org/Graphics/SVG/1.1/DTD/svg11.dtd">
<svg version="1.1" id="Layer_1" xmlns="http://www.w3.org/2000/svg" xmlns:xlink="http://www.w3.org/1999/xlink" x="0px" y="0px"
	 width="797.348px" height="256px" viewBox="0 0 797.348 256" enable-background="new 0 0 797.348 256" xml:space="preserve">
<g>
	<rect x="-0.016" fill="#1A202C" width="797.333" height="256"/>
	<path fill="#FFFFFF" d="M192.907,175.094c0.604-6.488,0.202-13.057-1.168-19.424c-2.015,12.855-7.939,24.824-16.967,34.254
		c-3.264,3.387-6.85,6.368-10.759,8.946c5.481-7.737,9.188-16.604,10.84-25.913c-8.181,14.709-21.842,25.631-38.083,30.426
		c-4.474,1.289-9.108,2.057-13.742,2.378c10.035-4.634,18.618-11.687,25.026-20.432c-3.749,1.571-7.657,2.901-11.687,3.869
		c-0.242,0.079-0.484,0.12-0.725,0.2c-0.283,0.041-0.564,0.121-0.847,0.162c-0.202,0.039-0.363,0.08-0.564,0.121
		c-0.282,0.08-0.605,0.161-0.887,0.2c-1.048,0.202-2.096,0.404-3.144,0.565h-0.041c-0.563,0.078-1.128,0.16-1.691,0.24h-0.041
		l-0.121-0.24c0.322-0.201,0.604-0.403,0.887-0.604c0.081-0.081,0.202-0.12,0.282-0.202c0.322-0.242,0.645-0.481,0.967-0.685
		c4.835-3.628,8.705-8.263,11.324-13.541c0.041-0.041,0.041-0.082,0.081-0.121c0.04-0.08,0.081-0.162,0.121-0.28
		c0.202-0.361,0.362-0.767,0.524-1.13h0.041c0.16-0.403,0.322-0.766,0.483-1.169c0.161-0.363,0.282-0.766,0.443-1.168
		c0.16-0.404,0.281-0.767,0.443-1.17c0.121-0.402,0.242-0.807,0.362-1.208c0,0,0-0.041,0.041-0.082
		c0.081-0.36,0.202-0.724,0.322-1.128v-0.118c0.122-0.364,0.202-0.727,0.282-1.089c0-0.041,0.041-0.123,0.041-0.162
		c0.08-0.363,0.16-0.725,0.241-1.089v-0.121c0.08-0.36,0.161-0.763,0.241-1.127v-0.039v-0.039c0.041-0.403,0.122-0.768,0.162-1.17
		c0.04-0.122,0.04-0.243,0.04-0.362c0.04-0.322,0.081-0.604,0.121-0.927c0-0.123,0-0.243,0.04-0.362c0-0.322,0.04-0.604,0.04-0.888
		c0.04-0.202,0.04-0.362,0.04-0.524c0-0.281,0.04-0.521,0.04-0.805v-0.564c0-0.24,0.041-0.483,0.041-0.725
		c0-0.203-0.041-0.443-0.041-0.646v-0.646c0-0.441-0.04-0.886-0.08-1.328c0-0.324-0.041-0.687-0.081-1.049v-0.162
		c-0.041-0.324-0.081-0.686-0.161-1.05v-0.039c-0.081-0.767-0.242-1.532-0.363-2.257c-0.08-0.363-0.161-0.686-0.242-1.048
		c-2.66,17.892-17.289,31.473-35.141,32.726c-3.426,0.199-6.811-0.041-10.156-0.728v-0.039c-1.209-0.323-3.95-1.088-6.529-1.937
		c-1.894-0.764-3.708-1.649-5.441-2.696c0,0,0.041-0.044,0.081-0.083c0.685-0.522,3.143-1.049,5.561-1.491
		c-6.407-4.149-12.009-18.497-2.619-24.623c0.282-0.12,0.524-0.283,0.766-0.403c0.282-0.121,0.523-0.242,0.806-0.363
		c0.282-0.119,0.564-0.201,0.847-0.281c0.281-0.08,0.564-0.122,0.846-0.162c0.282-0.08,0.564-0.12,0.887-0.12
		c0.202,0,0.403-0.039,0.604-0.039c0.282,0,0.604,0.041,0.887,0.081c0.282,0,0.564,0.039,0.846,0.119
		c0.283,0.041,0.565,0.12,0.847,0.2c0.121,0.04,0.202,0.083,0.322,0.12c0.161,0.043,0.362,0.123,0.524,0.164
		c0.282,0.119,0.524,0.24,0.766,0.401c1.25,0.929,1.25,2.498,0.564,4.435c-0.201,0.281-0.322,0.565-0.483,0.848
		c-0.121,0.282-0.201,0.564-0.282,0.848c-0.081,0.281-0.161,0.563-0.201,0.846c0,0.201,0,0.404,0,0.604c0,0.323,0,0.604,0.04,0.89
		c0.04,0.281,0.121,0.563,0.241,0.847c0.081,0.282,0.202,0.563,0.323,0.847c0.121,0.16,0.161,0.402,0.322,0.523
		c2.016,2.781,5.844,4.635,9.672,4.353c2.378-2.983,4.111-6.448,4.997-10.157c0.565,2.66,0.686,5.4,0.404,8.062
		c3.304-2.378,5.359-6.207,6.568-9.188c2.458-0.604,7.818,1.813,8.342,6.166c-2.741-27.888-28.814-47.635-57.387-41.025
		c-2.095,3.465-4.514,6.609-4.957,5.602c-0.403-0.967-0.242-4.232,0-7.012c-1.773,2.82-3.547,5.279-3.909,4.473
		c-0.323-0.726-0.283-2.781-0.162-4.957c-0.161-0.04-0.362-0.08-0.524-0.121c-0.081-0.04-0.121-0.04-0.161-0.08
		c-0.283-0.081-0.565-0.162-0.806-0.283c-0.322-0.121-0.645-0.282-0.926-0.443c-0.322-0.161-0.605-0.322-0.887-0.523
		c-0.241-0.161-0.483-0.363-0.725-0.564c-0.041,0-0.081-0.04-0.081-0.04c-0.282-0.242-0.524-0.443-0.766-0.685
		c-0.242-0.242-0.484-0.525-0.686-0.767c-0.201-0.281-0.403-0.563-0.604-0.846c-0.162-0.282-0.323-0.564-0.484-0.887
		c-0.04-0.04-0.08-0.121-0.121-0.202c-0.12-0.241-0.201-0.484-0.322-0.725c-0.121-0.282-0.242-0.604-0.322-0.967
		c-0.081-0.322-0.162-0.645-0.202-0.967c-0.04-0.081-0.04-0.121-0.04-0.202c-0.04,0-0.081-0.04-0.121-0.04
		c-0.242-0.121-0.443-0.201-0.645-0.322c-1.25-0.646-1.491-0.927-2.458-1.774c-0.282-0.202-0.525-0.403-0.766-0.646
		c-0.242-0.202-0.483-0.444-0.685-0.646c-0.202-0.242-0.362-0.483-0.523-0.725c-0.161-0.242-0.322-0.484-0.443-0.726v-0.04
		c-0.121-0.241-0.202-0.483-0.283-0.725c-0.081-0.242-0.121-0.484-0.161-0.766C50,102.597,50,102.396,50,102.234
		c0-0.282,0.041-0.523,0.081-0.805c0.04-0.242,0.04-0.726,0.121-1.088c0-0.04,0.04-0.081,0.04-0.121
		c0.041-0.323,0.121-0.646,0.202-0.968c0.122-0.363,0.242-0.726,0.362-1.048c0.121-0.363,0.282-0.686,0.443-1.048
		c0.162-0.322,0.363-0.646,0.564-0.926c0.162-0.323,0.403-0.604,0.605-0.927c0.202-0.282,0.444-0.522,0.685-0.806
		c0.241-0.241,0.523-0.524,0.806-0.725c0.242-0.242,0.523-0.483,0.806-0.685c0.283-0.202,0.604-0.363,0.887-0.565
		c0.322-0.16,0.645-0.321,0.967-0.443c0.322-0.121,0.645-0.242,0.967-0.363c0.322-0.08,0.645-0.161,1.007-0.241
		c0.322-0.041,0.686-0.121,1.007-0.121c1.492-0.121,3.224-0.806,4.917-1.169c0.885-0.281,1.772-0.604,2.619-0.967
		c0.887-0.362,1.733-0.766,2.539-1.209c0.847-0.483,1.612-0.966,2.418-1.531c0.766-0.523,1.532-1.128,2.257-1.773
		c0.726-0.604,1.41-1.29,2.056-1.975c0.04-0.04,0.08-0.081,0.121-0.121c0.322-0.322,0.604-0.645,0.927-0.967
		c0.041-0.08,0.121-0.121,0.162-0.202c0.241-0.241,0.483-0.484,0.685-0.725c0.08-0.08,0.202-0.161,0.282-0.241
		c0.202-0.242,0.402-0.444,0.604-0.646c0.041,0,0.041-0.041,0.081-0.081c0.242-0.241,0.484-0.483,0.726-0.685
		c0.04-0.041,0.04-0.081,0.081-0.081c0.241-0.242,0.483-0.444,0.725-0.685c0.041-0.041,0.122-0.081,0.162-0.162
		c0.201-0.161,0.403-0.363,0.604-0.524c0.081-0.041,0.162-0.122,0.242-0.162c0.202-0.162,0.403-0.322,0.604-0.483
		c0.041-0.041,0.081-0.081,0.081-0.081c0.242-0.202,0.525-0.403,0.767-0.564c0.04-0.041,0.08-0.041,0.12-0.081
		c0.242-0.201,0.524-0.362,0.807-0.564c0.282-0.202,0.604-0.402,0.967-0.604c0.323-0.202,0.685-0.403,1.048-0.605
		c0.081-0.04,0.242-0.121,0.363-0.202c0.242-0.121,0.523-0.282,0.806-0.403c0.363-0.202,0.806-0.443,1.25-0.645
		c0.081-0.04,0.162-0.081,0.282-0.121c0.362-0.201,0.725-0.363,1.128-0.563c0.04-0.041,0.12-0.041,0.202-0.081
		c0.442-0.202,0.886-0.403,1.329-0.605c0.563-0.241,1.128-0.524,1.732-0.766c0.604-0.162,1.209-0.322,1.813-0.484
		c1.17-0.282,2.378-0.564,3.628-0.806c0.604-0.121,1.208-0.242,1.813-0.322c2.458-0.402,4.916-0.725,7.374-0.887
		c1.733-0.121,3.506-0.202,5.279-0.202c2.418,0,4.796,0.122,7.214,0.363c0.081,0,0.121,0.041,0.202,0.041
		c2.458,0.241,4.917,0.604,7.335,1.088c0.846,0.202,1.692,0.403,2.538,0.604c1.572,0.363,3.104,0.767,4.675,1.21l9.269,3.586
		c-0.081-0.161-0.202-0.363-0.282-0.564c-0.121-0.323-0.202-0.646-0.322-0.967c-0.081-0.323-0.162-0.646-0.202-0.967
		c-0.081-0.363-0.121-0.686-0.121-1.009c-0.04-0.241-0.04-0.483-0.04-0.725c0-0.323,0.04-0.685,0.04-1.007
		c0.041-0.162,0.041-0.323,0.081-0.484c0.041-0.161,0.041-0.362,0.081-0.523c0.081-0.323,0.162-0.645,0.283-1.008
		c0.081-0.322,0.201-0.604,0.322-0.927c0.161-0.322,0.281-0.604,0.443-0.926c0.162-0.283,0.363-0.564,0.565-0.846
		c0.161-0.283,0.403-0.565,0.604-0.806c0.242-0.282,0.443-0.525,0.725-0.766c0.242-0.243,0.484-0.443,0.766-0.646
		c0.241-0.241,0.523-0.403,0.806-0.604c0.887-0.605,1.854-1.088,2.701-1.733c0.281-0.202,0.524-0.444,0.765-0.646v-0.04
		c0.282-0.201,0.483-0.483,0.726-0.725c0.201-0.242,0.403-0.524,0.604-0.806c0.08-0.122,0.161-0.242,0.241-0.363
		c0.121-0.161,0.202-0.323,0.323-0.484c0.16-0.322,0.281-0.604,0.442-0.926c0.121-0.322,0.242-0.645,0.322-0.967
		c0.121-0.322,0.202-0.645,0.283-0.967c0.04-0.323,0.04-0.726,0.08-1.048c0.041-0.484-0.08-0.242,0.081-1.168
		c1.25,0.403,2.499,0.846,3.828,1.693c0.282,0.121,0.524,0.241,0.807,0.403c1.894,1.208,3.788,2.539,5.602,3.95
		c0.362,0.322,0.725,0.685,1.047,1.007c0.645,0.685,1.25,1.37,1.854,2.055c0.564,0.726,1.088,1.45,1.612,2.216
		c0.484,0.766,0.927,1.572,1.37,2.377c0.403,0.807,0.806,1.652,1.128,2.499c0.321,0.846,0.604,1.733,0.886,2.579
		c0.242,0.886,0.443,1.774,0.604,2.7c0.121,0.887,0.242,1.773,0.322,2.7c0.041,0.646,0.081,1.29,0.081,1.935
		c0,0.886-0.081,1.813-0.162,2.74c-0.081,0.887-0.242,1.773-0.403,2.7c-0.201,0.886-0.403,1.772-0.685,2.619
		c-0.282,0.886-0.605,1.732-0.968,2.579c-0.362,0.847-0.765,1.652-1.208,2.458c-0.363,0.645-0.766,1.289-1.169,1.935
		c-0.08,0.121-0.161,0.282-0.242,0.403c-0.523,0.725-1.088,1.45-1.692,2.176c-0.605,0.685-1.209,1.371-1.895,1.975
		c-0.645,0.645-1.33,1.249-2.055,1.814c-0.726,0.563-1.491,1.087-2.257,1.611c-0.806,0.484-1.571,0.927-2.417,1.33
		c-0.807,0.403-1.653,0.806-2.54,1.128c-0.846,0.323-1.733,0.605-2.619,0.847c-0.887,0.242-1.773,0.443-2.701,0.604
		c-0.886,0.161-1.772,0.242-2.659,0.322h0.045c0.887,0.282,1.773,0.523,2.7,0.685c0.886,0.202,1.814,0.323,2.74,0.403
		c0.887,0.081,1.814,0.162,2.741,0.162c0.645,0,1.29-0.041,1.934-0.081c0.888-0.081,1.814-0.161,2.741-0.322
		c0.886-0.162,1.813-0.364,2.7-0.604c0.886-0.242,1.772-0.524,2.619-0.847c0.847-0.362,1.692-0.725,2.539-1.128
		c0.807-0.402,1.612-0.887,2.378-1.37c0.807-0.483,1.532-1.008,2.257-1.571c0.322-0.282,0.605-0.524,0.927-0.807
		c0.403-0.321,0.766-0.644,1.169-1.007c0.645-0.644,1.289-1.29,1.894-2.015c0.564-0.685,1.128-1.411,1.652-2.176
		c0.524-0.725,1.007-1.531,1.451-2.297c0.443-0.805,0.847-1.652,1.209-2.458c0.363-0.847,0.686-1.733,0.967-2.579
		c0.242-0.887,0.484-1.773,0.686-2.66c0.161-0.887,0.282-1.773,0.403-2.7c0.04-0.484,0.08-0.967,0.08-1.451
		c0.04,0.04,0.04,0.04,0.04,0.08c0-0.041,0-0.041,0.04-0.08c0,0.08,0.041,0.12,0.081,0.201
		C195.325,92.438,222.003,134.512,192.907,175.094z"/>
	<path fill="#FFFFFF" d="M382.938,203.239l-29.073-2.065l-8.562,0.296h-6.79l-19.63,1.472h-5.017
		c-0.148-1.323-0.148-2.211-0.148-2.948c0-1.771,0.148-3.688,0.294-5.759c1.329-0.295,4.873-0.735,10.332-1.476
		c1.476-0.146,3.099-0.59,5.02-1.034c1.917-0.735,3.099-1.623,3.395-2.36c0.737-1.771,1.18-4.869,1.18-9.595
		c0-8.412-0.147-14.762-0.294-19.188l0.148-17.119c0-20.961-1.181-33.944-3.837-38.966c-3.837-7.527-9.448-11.217-16.973-11.217
		c-5.462,0-11.218,1.475-17.123,4.278c-6.049,2.806-12.1,7.085-18.447,12.842l-0.295,2.508l0.295,9.297l-0.148,9.889l0.59,23.762
		l-0.294,3.688c0,16.091,0.59,25.239,1.918,27.305c1.329,2.066,6.197,4.279,14.76,6.789c0.294,1.627,0.445,2.951,0.445,3.69
		c0,1.18-0.445,2.952-1.035,5.46c-3.099,0.145-5.757,0.145-7.823,0.145c-2.064,0-5.313-0.293-9.741-0.883l-15.792-0.294
		c-7.97,0-19.335,0.294-34.244,1.034c-0.441-1.034-0.59-2.064-0.59-3.1c-0.007-0.734-0.007-2.357,0.142-4.721
		c2.509-1.181,4.871-1.918,7.085-2.359c5.461-0.885,8.56-1.625,9.446-2.215c1.476-0.886,2.508-2.065,2.952-3.246
		c0.59-2.067,0.885-6.348,0.885-13.139v-12.839l0.148-10.479l-0.444-15.645v-9.297c0-6.199-0.442-11.365-1.475-15.202
		c-0.294-1.476-1.625-2.952-3.689-4.428c-2.806-2.064-7.38-3.986-14.022-5.904l-0.148-7.084c1.182-0.294,2.362-0.591,3.396-0.738
		c1.034-0.148,5.017-1.181,11.956-2.953c5.461-1.918,9.002-3.394,10.478-4.132c0.59-0.294,1.329-0.738,2.508-1.329
		c1.182-1.034,2.509-1.917,3.987-2.952c2.951-2.065,6.495-5.757,10.627-10.774l7.821-0.592l-0.294,16.679
		c-0.148,1.624-0.148,2.952-0.148,3.986c0,0.884,0,3.099,0.148,6.789c8.265-7.085,15.645-11.956,22.434-14.76
		c8.707-3.69,17.118-5.461,24.941-5.461c9.297,0,17.563,2.36,24.502,6.937c7.085,4.577,11.66,9.89,13.727,15.792
		c2.215,6.051,3.247,18.302,3.247,36.457l-0.591,48.412c0,2.213,0.441,4.131,1.181,5.606c1.033,0.735,3.836,1.473,8.268,2.217
		l7.231,1.324c0.883,1.328,1.327,2.807,1.327,4.726C383.085,199.549,383.085,201.174,382.938,203.239z"/>
	<path fill="#FFFFFF" d="M492.303,199.552c-9.295,4.28-19.776,6.351-31.287,6.351c-7.823,0-14.172-0.592-19.188-2.065
		c-6.494-1.771-12.547-4.428-17.859-8.116c-5.313-3.688-9.888-8.268-13.728-13.58c-3.836-5.461-6.788-11.072-8.707-16.826
		c-2.36-7.527-3.689-13.58-3.689-18.008c0.002-8.715,0.739-16.391,2.067-23.328c2.655-8.412,4.87-14.021,6.938-16.677
		c5.459-8.118,11.364-14.465,17.562-19.041c6.348-4.577,11.957-7.527,16.975-9.003c6.642-1.919,11.81-2.806,15.939-2.806
		c9.295,0,16.826,0.738,22.432,2.214c5.76,1.329,10.629,3.396,14.463,6.053c5.461,3.837,9.89,7.821,13.283,11.658
		c3.396,3.986,6.053,8.708,8.117,14.022c2.213,5.313,3.396,11.808,3.688,19.335l-16.526-0.297c-4.576,0-14.465-0.44-29.961-1.326
		c-5.761-0.295-9.595-0.592-11.812-0.592c-0.74,0-6.051,0.147-15.938,0.147h-12.841c-0.146,1.476-0.293,2.656-0.293,3.543
		c0,5.313,0.736,10.772,1.918,16.679c1.328,5.758,3.246,10.773,5.759,15.202c2.653,4.427,5.76,8.116,9.594,11.218
		c3.834,3.246,7.822,5.461,11.809,6.938l8.562,2.809c7.674,0,12.69-0.295,15.35-0.738c4.724-1.033,8.855-2.215,12.398-3.688
		c3.69-1.628,7.971-4.279,13.137-7.972c3.543,2.655,6.492,4.872,9.002,7.086C510.754,188.188,501.602,195.273,492.303,199.552z"/>
	<path fill="#FFFFFF" d="M629.854,194.521c-8.561,7.527-21.104,11.367-37.782,11.367c-2.066,0-7.822-0.445-16.974-1.474
		c-4.133-0.442-9.004-1.474-14.612-2.952c-1.472-0.443-5.019-1.771-10.92-4.279c-1.035-0.592-1.771-1.326-2.363-2.063
		c-0.293-0.886-1.031-5.019-1.918-12.401c-1.469-12.1-2.355-19.333-2.502-21.695c2.951-0.59,5.166-0.883,6.494-0.883
		c0.737,0,1.77,0,3.1,0.146l1.324,1.474c5.461,9.448,8.856,15.054,10.631,17.118c3.395,3.986,6.785,7.23,10.184,9.739
		c2.213,1.477,5.756,3.247,10.625,4.872c3.248,1.181,6.791,1.771,10.48,1.771c6.194,0,11.514-1.919,15.938-5.903
		c4.429-4.133,6.644-8.414,6.644-13.137c0-3.1-0.885-5.757-2.51-7.97c-1.623-2.212-5.015-4.428-10.037-6.642
		c-2.509-1.033-8.705-2.805-18.744-5.313c-9.885-2.508-15.791-4.132-17.859-4.871c-4.723-1.771-8.856-4.278-12.4-7.377
		c-3.69-3.245-6.348-6.791-8.266-10.772c-2.51-5.608-3.838-10.479-3.838-14.463c0-7.528,1.184-13.58,3.248-18.45
		c2.215-4.723,5.313-9.003,9.297-12.693c2.805-2.805,7.086-5.313,12.838-7.527c5.76-2.214,12.104-3.395,18.599-3.395
		c9.448,0,17.709,0.59,24.795,1.919c7.084,1.328,13.137,3.246,18.006,5.756c0.737,2.214,1.477,7.527,2.655,15.645
		c1.033,8.266,1.625,13.135,1.625,14.611c0,0.738-0.147,1.475-0.442,2.214c-2.656,0.737-4.724,1.181-6.494,1.181
		c-0.885,0-2.361-0.148-4.279-0.295c-0.887-1.328-2.065-3.542-3.543-6.197c-4.723-8.857-9.594-15.056-14.612-18.598
		c-5.019-3.689-10.625-5.461-17.269-5.461c-6.787,0-12.547,2.066-17.119,5.905c-3.396,2.952-5.02,6.789-5.02,11.807
		c0,3.247,1.774,6.495,5.317,9.89c3.396,3.395,9.445,6.049,18.004,7.822c12.99,2.804,22.584,5.756,28.638,8.559
		c8.856,4.136,15.199,9.151,18.742,14.761c3.543,5.605,5.461,12.101,5.461,19.479C642.99,177.254,638.564,186.848,629.854,194.521z"
		/>
	<path fill="#FFFFFF" d="M732.588,199.398c-6.195,3.1-12.838,4.578-19.922,4.578c-9.299,0-16.682-2.953-22.434-8.707
		c-5.761-5.906-8.562-14.91-8.562-27.158l0.592-25.978V99.778l-4.575-0.148l-10.777,0.148l-1.916-0.444
		c-0.592-0.885-0.885-1.623-0.885-2.508c-0.006-0.596,0.143-2.81,0.287-6.647c11.655-4.87,20.069-9.741,25.239-14.464
		c5.313-4.722,10.775-12.545,16.679-23.171h8.411c0.888,2.655,1.328,5.313,1.328,8.117c0,5.166-0.146,9.151-0.146,12.103
		l-0.443,8.708c0,0.442,0,1.624,0.148,3.395l3.395,0.147c0.441,0,5.164-0.147,13.873-0.59c0.738,0,4.428-0.147,11.07-0.294
		c0.59,2.657,1.033,5.017,1.033,7.084c0,2.362-0.443,5.018-1.181,7.97c-3.248,0.443-5.608,0.59-7.381,0.59
		c-0.737,0-2.36,0-4.723-0.294h-7.676l-2.656-0.147l-7.086,0.294L713.99,156.3c-0.146,10.923,0,17.859,0.59,20.517
		c0.59,2.807,1.77,5.313,3.541,7.822c2.219,1.032,4.727,1.623,7.527,1.623c2.651,0,4.575-0.294,5.901-0.738
		c1.33-0.59,3.545-1.914,6.496-4.278c0.59-0.591,1.627-1.181,2.807-2.063c2.363,1.771,4.425,3.688,5.904,5.607l0.59,1.771
		C743.807,192.021,738.936,196.301,732.588,199.398z"/>
	<path fill="#1A202C" d="M475.922,117.926c2.951-0.294,5.014-0.442,6.195-0.442c0.889,0,2.217,0,3.985,0.147
		c-0.147-5.608-1.18-10.774-3.245-15.939c-2.063-5.018-5.313-8.857-9.74-11.66c-4.281-2.804-8.707-4.278-13.135-4.278
		c-6.646,0-12.548,2.951-18.009,8.706c-5.313,5.905-8.268,13.727-9.004,23.764l33.799,0.146
		C468.984,118.369,472.084,118.224,475.922,117.926z"/>
	<path fill="#FFFFFF" d="M141.882,50.326c1.451,0,3.022,0.322,4.755,1.37c1.814,1.289,4.11,3.143,3.99,5.924
		c-1.572,3.185-10.076,4.715-8.543,14.911c-0.202-0.282-0.363-0.604-0.484-0.886c-1.411-2.338-1.733-5.24-0.564-7.94
		c0.766-2.096,1.854-2.539,1.692-6.084c0-0.242-0.04-0.484-0.08-0.726c-0.041-0.282-0.121-0.484-0.161-0.766
		c-0.565-2.055-1.693-3.869-3.749-5.239C139.706,50.568,140.754,50.326,141.882,50.326z"/>
</g>
</svg>
