<?xml version="1.0" encoding="utf-8"?>
<!-- Generator: Adobe Illustrator 16.0.0, SVG Export Plug-In . SVG Version: 6.00 Build 0)  -->
<!DOCTYPE svg PUBLIC "-//W3C//DTD SVG 1.0//EN" "http://www.w3.org/TR/2001/REC-SVG-20010904/DTD/svg10.dtd">
<svg version="1.0" id="Layer_1" xmlns="http://www.w3.org/2000/svg" xmlns:xlink="http://www.w3.org/1999/xlink" x="0px" y="0px"
	 width="827.707px" height="256px" viewBox="-103.642 0 827.707 256" enable-background="new -103.642 0 827.707 256"
	 xml:space="preserve">
<g transform="translate(-25.4 -64.695815)">
	<path fill="#FFFFFF" d="M70.696,64.696c-1.858,0-3.584,0.397-5.177,0.929c3.385,2.257,5.243,5.244,6.173,8.629
		c0.066,0.464,0.199,0.796,0.266,1.261c0.066,0.398,0.132,0.797,0.132,1.195c0.266,5.84-1.526,6.57-2.787,10.021
		c-1.925,4.447-1.395,9.226,0.929,13.076c0.199,0.464,0.465,0.995,0.797,1.46c-2.524-16.793,11.481-19.314,14.07-24.558
		c0.199-4.58-3.584-7.634-6.571-9.757C75.674,65.226,73.086,64.696,70.696,64.696L70.696,64.696z M91.802,68.479
		c-0.266,1.526-0.066,1.128-0.133,1.925c-0.066,0.53-0.066,1.194-0.132,1.726c-0.133,0.531-0.266,1.062-0.465,1.593
		c-0.133,0.531-0.332,1.062-0.531,1.593c-0.266,0.531-0.465,0.996-0.729,1.526c-0.199,0.266-0.332,0.531-0.531,0.797
		c-0.133,0.199-0.266,0.398-0.398,0.598c-0.332,0.464-0.664,0.929-0.995,1.327c-0.399,0.398-0.73,0.863-1.195,1.194v0.066
		c-0.398,0.332-0.797,0.73-1.261,1.063c-1.395,1.062-2.987,1.858-4.447,2.854c-0.465,0.332-0.93,0.598-1.327,0.996
		c-0.465,0.332-0.863,0.663-1.262,1.062c-0.464,0.398-0.796,0.797-1.194,1.262c-0.332,0.397-0.73,0.862-0.995,1.327
		c-0.332,0.465-0.664,0.929-0.93,1.394c-0.266,0.531-0.465,0.996-0.73,1.526c-0.198,0.531-0.397,0.996-0.53,1.527
		c-0.199,0.597-0.332,1.128-0.465,1.659c-0.066,0.266-0.066,0.597-0.133,0.862s-0.066,0.531-0.133,0.797
		c0,0.531-0.066,1.128-0.066,1.659c0,0.398,0,0.797,0.066,1.194c0,0.531,0.066,1.063,0.199,1.66c0.066,0.53,0.199,1.062,0.332,1.593
		c0.199,0.53,0.332,1.062,0.531,1.593c0.132,0.332,0.331,0.664,0.464,0.929l-15.266-5.906c-2.588-0.73-5.11-1.395-7.699-1.992
		c-1.394-0.331-2.787-0.663-4.181-0.995c-3.982-0.797-8.031-1.394-12.08-1.792c-0.133,0-0.199-0.066-0.332-0.066
		c-3.982-0.398-7.898-0.598-11.881-0.598c-2.92,0-5.841,0.133-8.694,0.332c-4.049,0.266-8.098,0.797-12.146,1.46
		c-0.996,0.133-1.991,0.332-2.987,0.531c-2.058,0.398-4.048,0.863-5.974,1.327c-0.995,0.266-1.991,0.531-2.986,0.797
		c-0.995,0.398-1.925,0.863-2.854,1.261c-0.729,0.332-1.46,0.664-2.189,0.996c-0.133,0.066-0.266,0.066-0.332,0.133
		c-0.664,0.331-1.262,0.597-1.858,0.929c-0.199,0.066-0.332,0.133-0.465,0.199c-0.73,0.332-1.46,0.73-2.058,1.063
		c-0.465,0.198-0.929,0.464-1.327,0.663c-0.199,0.133-0.465,0.266-0.598,0.332c-0.598,0.332-1.194,0.664-1.726,0.996
		c-0.598,0.331-1.128,0.663-1.593,0.995s-0.93,0.598-1.328,0.929c-0.066,0.067-0.132,0.067-0.198,0.133
		c-0.398,0.266-0.863,0.598-1.262,0.93c0,0-0.066,0.066-0.133,0.133c-0.331,0.266-0.663,0.53-0.995,0.796
		c-0.133,0.066-0.266,0.199-0.398,0.266c-0.332,0.266-0.664,0.598-0.995,0.863c-0.066,0.133-0.199,0.199-0.266,0.266
		c-0.398,0.397-0.797,0.729-1.195,1.128c-0.066,0-0.066,0.066-0.132,0.133c-0.398,0.332-0.797,0.73-1.195,1.128
		c-0.066,0.066-0.066,0.133-0.133,0.133c-0.332,0.332-0.663,0.664-0.995,1.063c-0.133,0.133-0.332,0.266-0.465,0.397
		c-0.332,0.398-0.73,0.797-1.128,1.195c-0.066,0.133-0.199,0.199-0.266,0.332c-0.531,0.53-0.996,1.062-1.527,1.593
		c-0.066,0.066-0.132,0.133-0.198,0.199c-1.063,1.128-2.19,2.257-3.386,3.252c-1.194,1.062-2.455,2.058-3.717,2.92
		c-1.327,0.93-2.588,1.727-3.982,2.522c-1.327,0.73-2.721,1.395-4.182,1.991c-1.394,0.598-2.854,1.129-4.313,1.593
		c-2.788,0.598-5.642,1.726-8.098,1.925c-0.531,0-1.129,0.133-1.659,0.199c-0.598,0.133-1.129,0.266-1.659,0.398
		c-0.531,0.199-1.063,0.398-1.594,0.598c-0.53,0.199-1.062,0.465-1.593,0.729c-0.465,0.332-0.995,0.598-1.46,0.93
		c-0.465,0.332-0.929,0.729-1.327,1.128c-0.465,0.332-0.93,0.797-1.328,1.195c-0.397,0.464-0.796,0.862-1.128,1.327
		c-0.332,0.531-0.73,0.995-0.996,1.526c-0.331,0.465-0.663,0.996-0.929,1.526c-0.266,0.598-0.531,1.129-0.73,1.726
		c-0.199,0.531-0.397,1.129-0.597,1.727c-0.133,0.53-0.266,1.062-0.332,1.593c0,0.066-0.066,0.133-0.066,0.199
		c-0.133,0.597-0.133,1.394-0.199,1.792c-0.066,0.465-0.133,0.862-0.133,1.327c0,0.266,0,0.598,0.066,0.863
		c0.066,0.464,0.133,0.862,0.266,1.261c0.133,0.399,0.266,0.797,0.465,1.194v0.066c0.199,0.398,0.465,0.797,0.73,1.195
		c0.265,0.398,0.53,0.796,0.862,1.194c0.332,0.332,0.73,0.73,1.128,1.063c0.398,0.397,0.797,0.729,1.262,1.062
		c1.593,1.394,1.991,1.858,4.049,2.921c0.332,0.199,0.663,0.331,1.062,0.53c0.066,0,0.133,0.066,0.199,0.066
		c0,0.133,0,0.199,0.066,0.332c0.066,0.531,0.199,1.063,0.332,1.593c0.133,0.598,0.332,1.129,0.531,1.593
		c0.198,0.398,0.332,0.797,0.53,1.195c0.067,0.133,0.133,0.266,0.199,0.332c0.266,0.53,0.531,0.995,0.797,1.46
		c0.332,0.465,0.664,0.93,0.995,1.394c0.332,0.398,0.73,0.863,1.129,1.262c0.398,0.397,0.796,0.729,1.261,1.128
		c0,0,0.066,0.066,0.133,0.066c0.398,0.332,0.796,0.664,1.194,0.93c0.465,0.331,0.93,0.597,1.461,0.862
		c0.464,0.266,0.995,0.531,1.526,0.73c0.397,0.199,0.862,0.332,1.327,0.465c0.066,0.066,0.133,0.066,0.266,0.132
		c0.266,0.067,0.598,0.133,0.863,0.199c-0.199,3.584-0.266,6.969,0.266,8.164c0.597,1.327,3.518-2.722,6.438-7.367
		c-0.398,4.579-0.664,9.956,0,11.549c0.73,1.659,4.713-3.519,8.164-9.226c47.059-10.886,90.001,21.638,94.515,67.567
		c-0.863-7.17-9.69-11.151-13.739-10.155c-1.991,4.911-5.376,11.217-10.818,15.133c0.465-4.381,0.266-8.894-0.664-13.274
		c-1.46,6.106-4.314,11.814-8.23,16.728c-6.305,0.465-12.61-2.588-15.929-7.168c-0.266-0.199-0.332-0.599-0.531-0.863
		c-0.199-0.465-0.398-0.929-0.531-1.394c-0.199-0.467-0.332-0.93-0.398-1.395c-0.066-0.466-0.066-0.931-0.066-1.462
		c0-0.331,0-0.663,0-0.995c0.066-0.465,0.199-0.93,0.332-1.394c0.133-0.465,0.266-0.931,0.465-1.396
		c0.266-0.463,0.465-0.93,0.796-1.395c1.129-3.188,1.129-5.773-0.929-7.301c-0.398-0.268-0.797-0.467-1.261-0.664
		c-0.266-0.066-0.598-0.199-0.863-0.268c-0.199-0.064-0.332-0.133-0.531-0.199c-0.464-0.133-0.929-0.264-1.394-0.33
		c-0.465-0.133-0.93-0.198-1.394-0.198c-0.465-0.065-0.996-0.133-1.46-0.133c-0.332,0-0.664,0.065-0.996,0.065
		c-0.531,0-0.995,0.065-1.46,0.198c-0.465,0.065-0.93,0.134-1.394,0.267c-0.465,0.133-0.93,0.267-1.395,0.465
		c-0.465,0.199-0.862,0.396-1.327,0.598c-0.398,0.199-0.797,0.465-1.261,0.664c-15.465,10.089-6.239,33.718,4.313,40.554
		c-3.982,0.729-8.031,1.595-9.159,2.456c-0.066,0.066-0.133,0.135-0.133,0.135c2.854,1.726,5.841,3.186,8.961,4.444
		c4.247,1.396,8.761,2.655,10.752,3.187v0.065c5.509,1.129,11.084,1.527,16.726,1.195c29.403-2.06,53.497-24.427,57.877-53.896
		c0.133,0.598,0.267,1.127,0.398,1.727c0.199,1.193,0.465,2.455,0.598,3.717v0.064c0.133,0.6,0.199,1.194,0.266,1.728v0.267
		c0.066,0.598,0.133,1.194,0.133,1.727c0.066,0.73,0.132,1.46,0.132,2.189v1.063c0,0.332,0.067,0.729,0.067,1.063
		c0,0.397-0.067,0.797-0.067,1.194v0.931c0,0.465-0.066,0.86-0.066,1.325c0,0.267,0,0.531-0.066,0.863
		c0,0.465-0.066,0.929-0.066,1.46c-0.066,0.197-0.066,0.396-0.066,0.6c-0.066,0.529-0.133,0.993-0.199,1.524
		c0,0.198,0,0.397-0.066,0.598c-0.066,0.663-0.199,1.263-0.266,1.927v0.064v0.064c-0.132,0.6-0.266,1.263-0.398,1.858v0.199
		c-0.133,0.599-0.265,1.194-0.397,1.792c0,0.066-0.066,0.199-0.066,0.266c-0.133,0.598-0.266,1.194-0.465,1.793v0.198
		c-0.199,0.664-0.398,1.261-0.531,1.858c-0.066,0.066-0.066,0.133-0.066,0.133c-0.199,0.663-0.398,1.327-0.598,1.99
		c-0.266,0.664-0.465,1.262-0.729,1.926c-0.266,0.663-0.465,1.326-0.73,1.925c-0.266,0.663-0.531,1.261-0.796,1.925H71.7
		c-0.267,0.598-0.531,1.262-0.863,1.858c-0.066,0.198-0.133,0.331-0.199,0.464c-0.066,0.066-0.066,0.133-0.133,0.199
		c-4.314,8.695-10.687,16.328-18.65,22.302c-0.531,0.332-1.063,0.729-1.593,1.128c-0.133,0.133-0.332,0.199-0.465,0.332
		c-0.465,0.332-0.93,0.664-1.46,0.996l0.199,0.398h0.066c0.929-0.133,1.858-0.269,2.787-0.398h0.066
		c1.726-0.266,3.451-0.598,5.178-0.93c0.464-0.066,0.995-0.199,1.46-0.332c0.332-0.066,0.597-0.133,0.929-0.199
		c0.465-0.066,0.93-0.198,1.395-0.266c0.397-0.133,0.796-0.199,1.194-0.332c6.638-1.594,13.075-3.782,19.248-6.371
		c-10.554,14.402-24.69,26.018-41.218,33.649c7.633-0.53,15.266-1.793,22.634-3.916c26.748-7.897,49.248-25.886,62.722-50.11
		c-2.721,15.332-8.827,29.935-17.854,42.678c6.438-4.247,12.345-9.159,17.721-14.734c14.868-15.531,24.625-35.244,27.943-56.416
		c2.257,10.486,2.92,21.305,1.925,31.991c47.921-66.838,3.982-136.131-14.403-154.383c-0.066-0.133-0.133-0.199-0.133-0.332
		c-0.066,0.066-0.066,0.066-0.066,0.133c0-0.066,0-0.066-0.066-0.133c0,0.797-0.066,1.593-0.132,2.39
		c-0.199,1.526-0.398,2.986-0.664,4.447c-0.332,1.46-0.73,2.92-1.129,4.38c-0.464,1.394-0.995,2.854-1.593,4.248
		c-0.597,1.327-1.261,2.722-1.991,4.049c-0.73,1.261-1.526,2.589-2.389,3.783c-0.863,1.261-1.793,2.456-2.722,3.584
		c-0.996,1.194-2.058,2.257-3.119,3.318c-0.664,0.598-1.262,1.129-1.926,1.659c-0.53,0.465-0.995,0.863-1.526,1.328
		c-1.194,0.929-2.389,1.792-3.717,2.588c-1.261,0.797-2.588,1.594-3.916,2.257c-1.394,0.664-2.787,1.262-4.181,1.858
		c-1.395,0.531-2.854,0.996-4.314,1.396c-1.461,0.396-2.987,0.729-4.447,0.995c-1.526,0.266-3.053,0.398-4.514,0.531
		c-1.062,0.066-2.124,0.133-3.186,0.133c-1.526,0-3.053-0.133-4.514-0.266c-1.526-0.133-3.053-0.332-4.513-0.664
		c-1.527-0.266-2.987-0.664-4.447-1.128H81.05c1.46-0.133,2.92-0.266,4.38-0.531c1.527-0.266,2.987-0.598,4.447-0.996
		c1.46-0.397,2.921-0.862,4.314-1.394c1.46-0.531,2.854-1.194,4.182-1.858c1.394-0.664,2.654-1.394,3.982-2.19
		c1.261-0.862,2.522-1.726,3.717-2.654c1.194-0.93,2.322-1.925,3.385-2.987c1.129-0.995,2.124-2.124,3.12-3.252
		c0.995-1.195,1.925-2.39,2.787-3.584c0.133-0.199,0.266-0.465,0.398-0.664c0.663-1.063,1.327-2.124,1.925-3.186
		c0.73-1.328,1.394-2.655,1.991-4.049c0.597-1.395,1.128-2.788,1.593-4.248c0.465-1.394,0.797-2.854,1.128-4.314
		c0.266-1.526,0.531-2.986,0.664-4.446c0.133-1.527,0.266-3.054,0.266-4.514c0-1.063-0.066-2.124-0.133-3.187
		c-0.133-1.526-0.332-2.986-0.531-4.446c-0.265-1.526-0.597-2.987-0.995-4.447c-0.465-1.394-0.93-2.854-1.46-4.248
		c-0.531-1.394-1.195-2.787-1.858-4.115c-0.73-1.327-1.46-2.654-2.257-3.916c-0.863-1.261-1.726-2.455-2.655-3.65
		c-0.995-1.128-1.991-2.257-3.053-3.385c-0.531-0.531-1.129-1.128-1.726-1.659c-2.987-2.323-6.106-4.514-9.226-6.505
		c-0.465-0.266-0.863-0.464-1.328-0.663C95.918,69.873,93.86,69.143,91.802,68.479L91.802,68.479z"/>
	<path fill="#FFFFFF" d="M237.665,237.681c1.951-0.918,3.788-1.492,5.51-1.836c4.247-0.688,6.657-1.263,7.346-1.722
		c1.148-0.688,1.951-1.607,2.296-2.525c0.459-1.607,0.688-4.936,0.688-10.217v-9.985l0.115-8.149l-0.345-12.167v-7.231
		c0-4.821-0.344-8.839-1.147-11.823c-0.229-1.147-1.263-2.295-2.869-3.443c-2.182-1.606-5.74-3.1-10.905-4.592l-0.115-5.509
		c0.919-0.229,1.837-0.46,2.641-0.574c0.804-0.115,3.902-0.918,9.298-2.296c4.247-1.492,7.001-2.64,8.149-3.214
		c0.459-0.229,1.033-0.574,1.951-1.033c0.919-0.804,1.951-1.492,3.1-2.296c2.295-1.606,5.051-4.477,8.265-8.379l6.083-0.46
		l-0.229,12.971c-0.115,1.263-0.115,2.296-0.115,3.1c0,0.688,0,2.41,0.115,5.28c6.428-5.51,12.167-9.298,17.447-11.479
		c6.772-2.87,13.313-4.247,19.397-4.247c7.231,0,13.66,1.836,19.056,5.395c5.51,3.559,9.067,7.691,10.675,12.282
		c1.723,4.706,2.525,14.233,2.525,28.352l-0.459,37.652c0,1.721,0.344,3.213,0.918,4.359c0.804,0.573,2.984,1.146,6.429,1.725
		l5.624,1.03c0.688,1.033,1.033,2.183,1.033,3.675c0,0.918,0,2.182-0.115,3.787l-22.611-1.605l-6.658,0.229h-5.28l-15.267,1.146
		h-3.902c-0.115-1.032-0.115-1.721-0.115-2.295c0-1.377,0.115-2.869,0.229-4.478c1.033-0.229,3.789-0.573,8.035-1.147
		c1.147-0.114,2.41-0.459,3.903-0.805c1.491-0.572,2.41-1.263,2.64-1.836c0.574-1.378,0.918-3.787,0.918-7.462
		c0-6.542-0.115-11.479-0.229-14.922l0.115-13.313c0-16.302-0.918-26.4-2.984-30.305c-2.984-5.854-7.348-8.724-13.2-8.724
		c-4.247,0-8.724,1.147-13.315,3.328c-4.705,2.182-9.411,5.51-14.347,9.987l-0.23,1.951l0.23,7.23l-0.115,7.691l0.459,18.48
		l-0.229,2.867c0,12.514,0.459,19.629,1.492,21.235c1.033,1.607,4.82,3.329,11.479,5.28c0.229,1.264,0.346,2.296,0.346,2.87
		c0,0.918-0.346,2.296-0.805,4.247c-2.41,0.113-4.477,0.113-6.084,0.113c-1.605,0-4.132-0.229-7.575-0.688l-12.282-0.229
		c-6.198,0-15.037,0.229-26.631,0.805c-0.344-0.805-0.459-1.606-0.459-2.41C237.549,240.781,237.549,239.518,237.665,237.681z"/>
	<path fill="#FFFFFF" d="M373.226,182.469c2.066-6.542,3.788-10.904,5.396-12.97c4.246-6.313,8.838-11.25,13.658-14.808
		c4.936-3.559,9.299-5.854,13.2-7.002c5.165-1.492,9.185-2.182,12.397-2.182c7.229,0,13.085,0.574,17.445,1.722
		c4.479,1.033,8.267,2.641,11.249,4.707c4.247,2.984,7.69,6.083,10.33,9.067c2.641,3.1,4.707,6.772,6.313,10.905
		c1.722,4.132,2.641,9.183,2.868,15.037l-12.854-0.23c-3.559,0-11.249-0.344-23.301-1.032c-4.479-0.229-7.462-0.46-9.186-0.46
		c-0.574,0-4.705,0.115-12.396,0.115h-9.985c-0.114,1.147-0.229,2.066-0.229,2.755c0,4.133,0.574,8.379,1.492,12.971
		c1.033,4.478,2.525,8.379,4.479,11.823c2.064,3.443,4.479,6.313,7.461,8.724c2.982,2.525,6.084,4.247,9.184,5.396l6.657,2.183
		c5.969,0,9.871-0.229,11.938-0.574c3.673-0.804,6.887-1.722,9.642-2.868c2.87-1.265,6.199-3.328,10.216-6.199
		c2.756,2.065,5.051,3.789,7.002,5.511c-6.771,7.347-13.889,12.856-21.12,16.185c-7.229,3.329-15.382,4.938-24.333,4.938
		c-6.084,0-11.021-0.461-14.923-1.606c-5.052-1.378-9.758-3.443-13.89-6.313c-4.133-2.869-7.69-6.429-10.677-10.563
		c-2.983-4.245-5.279-8.608-6.771-13.085c-1.836-5.854-2.869-10.561-2.869-14.004C371.621,193.834,372.194,187.865,373.226,182.469
		L373.226,182.469z M440.261,177.534c-0.115-4.361-0.918-8.379-2.525-12.396c-1.604-3.902-4.132-6.888-7.575-9.068
		c-3.329-2.181-6.771-3.328-10.216-3.328c-5.166,0-9.758,2.295-14.005,6.771c-4.132,4.592-6.43,10.676-7.002,18.481l26.287,0.114
		c1.722,0,4.132-0.114,7.116-0.345c2.296-0.229,3.9-0.344,4.819-0.344C437.851,177.419,438.884,177.419,440.261,177.534
		L440.261,177.534z"/>
	<path fill="#FFFFFF" d="M484.339,211.281c2.296-0.459,4.018-0.688,5.051-0.688c0.574,0,1.377,0,2.41,0.114l1.031,1.146
		c4.247,7.348,6.889,11.708,8.267,13.314c2.64,3.1,5.278,5.623,7.92,7.574c1.722,1.148,4.477,2.525,8.265,3.789
		c2.525,0.918,5.28,1.377,8.149,1.377c4.819,0,8.954-1.492,12.396-4.592c3.443-3.214,5.165-6.543,5.165-10.216
		c0-2.41-0.688-4.478-1.951-6.198c-1.263-1.721-3.9-3.443-7.806-5.166c-1.951-0.803-6.771-2.181-14.577-4.132
		c-7.689-1.951-12.282-3.214-13.89-3.788c-3.673-1.377-6.889-3.328-9.644-5.738c-2.87-2.524-4.937-5.281-6.428-8.378
		c-1.952-4.362-2.985-8.15-2.985-11.249c0-5.854,0.921-10.561,2.525-14.349c1.723-3.673,4.133-7.002,7.231-9.871
		c2.182-2.181,5.51-4.133,9.984-5.854c4.479-1.722,9.413-2.64,14.464-2.64c7.348,0,13.773,0.459,19.283,1.492
		s10.217,2.525,14.004,4.477c0.574,1.722,1.148,5.854,2.066,12.167c0.804,6.429,1.263,10.216,1.263,11.364
		c0,0.574-0.114,1.147-0.345,1.722c-2.065,0.574-3.673,0.918-5.05,0.918c-0.688,0-1.837-0.115-3.329-0.229
		c-0.688-1.033-1.607-2.755-2.755-4.82c-3.673-6.888-7.461-11.709-11.364-14.464c-3.902-2.869-8.264-4.247-13.43-4.247
		c-5.279,0-9.758,1.607-13.314,4.592c-2.641,2.296-3.903,5.28-3.903,9.183c0,2.525,1.38,5.051,4.135,7.691
		c2.64,2.64,7.346,4.705,14.003,6.083c10.102,2.181,17.563,4.477,22.27,6.657c6.889,3.215,11.822,7.117,14.577,11.479
		c2.755,4.36,4.247,9.411,4.247,15.149c0,8.953-3.443,16.414-10.216,22.383c-6.658,5.854-16.414,8.84-29.386,8.84
		c-1.606,0-6.083-0.346-13.2-1.146c-3.214-0.345-7.002-1.146-11.363-2.296c-1.146-0.345-3.903-1.378-8.494-3.329
		c-0.804-0.459-1.378-1.031-1.837-1.605c-0.229-0.688-0.803-3.902-1.492-9.644C485.143,218.743,484.454,213.118,484.339,211.281
		L484.339,211.281z"/>
	<path fill="#FFFFFF" d="M578.922,156.184c9.066-3.788,15.609-7.576,19.629-11.249c4.132-3.673,8.38-9.757,12.971-18.021h6.543
		c0.688,2.065,1.033,4.132,1.033,6.313c0,4.017-0.115,7.116-0.115,9.412l-0.345,6.772c0,0.344,0,1.263,0.115,2.64l2.641,0.115
		c0.344,0,4.017-0.115,10.789-0.459c0.574,0,3.444-0.115,8.609-0.229c0.459,2.066,0.804,3.902,0.804,5.51
		c0,1.836-0.345,3.902-0.918,6.198c-2.525,0.345-4.362,0.459-5.739,0.459c-0.574,0-1.837,0-3.674-0.229h-5.969l-2.066-0.115
		l-5.51,0.229l-0.229,44.077c-0.113,8.494,0,13.89,0.459,15.955c0.459,2.183,1.377,4.133,2.755,6.084
		c1.724,0.804,3.675,1.263,5.854,1.263c2.063,0,3.558-0.229,4.591-0.574c1.033-0.459,2.755-1.49,5.051-3.328
		c0.459-0.459,1.265-0.918,2.183-1.605c1.837,1.377,3.441,2.869,4.592,4.361l0.459,1.378c-2.755,4.247-6.543,7.575-11.479,9.985
		c-4.819,2.41-9.984,3.56-15.494,3.56c-7.231,0-12.973-2.296-17.447-6.771c-4.479-4.594-6.658-11.596-6.658-21.121l0.46-20.203
		v-32.942l-3.559-0.115l-8.381,0.115l-1.49-0.345c-0.46-0.688-0.689-1.262-0.689-1.951
		C578.694,160.89,578.809,159.168,578.922,156.184L578.922,156.184z"/>
</g>
</svg>
