<?xml version="1.0" encoding="utf-8"?>
<!-- Generator: Adobe Illustrator 16.0.0, SVG Export Plug-In . SVG Version: 6.00 Build 0)  -->
<!DOCTYPE svg PUBLIC "-//W3C//DTD SVG 1.0//EN" "http://www.w3.org/TR/2001/REC-SVG-20010904/DTD/svg10.dtd">
<svg version="1.0" id="Layer_1" xmlns="http://www.w3.org/2000/svg" xmlns:xlink="http://www.w3.org/1999/xlink" x="0px" y="0px"
	 width="454.559px" height="256px" viewBox="28.72 0 454.559 256" enable-background="new 28.72 0 454.559 256"
	 xml:space="preserve">
<g>
	<path fill="#FFFFFF" d="M135.87,191.451c0-42.662,0-85.174,0-127.845c28.567,0,56.998,0,85.574,0c0,2.149,0,4.171,0,6.54
		c-25.783,0-51.546,0-77.553,0c0,17.266,0,34.19,0,51.373c24.194,0,48.438,0,72.867,0c0,2.34,0,4.426,0,6.832
		c-24.281,0-48.51,0-72.966,0c-0.059,1.217-0.14,2.131-0.141,3.045c-0.008,16.816,0.037,33.637-0.055,50.453
		c-0.013,2.324,0.577,3.024,2.985,3.018c24.197-0.094,48.395-0.057,72.592-0.057c1.003,0,2.006,0,3.115,0c0,2.406,0,4.506,0,6.641
		C193.411,191.451,164.706,191.451,135.87,191.451z"/>
	<path fill="#FFFFFF" d="M226.118,191.6c0.841-1.221,1.389-2.055,1.975-2.859c14.729-20.262,29.433-40.54,44.242-60.741
		c1.324-1.806,1.161-2.911-0.063-4.606c-13.758-19.055-27.438-38.167-41.139-57.266c-0.529-0.739-1.013-1.511-1.785-2.67
		c2.992,0,5.547-0.172,8.053,0.095c0.86,0.091,1.777,1.157,2.377,1.988c12.33,17.125,24.617,34.28,36.914,51.429
		c0.6,0.833,1.203,1.663,2.158,2.985C307.982,78.642,338.813,38.971,370.584,0c-28.834,41.834-57.667,83.667-86.662,125.737
		c15.708,21.765,31.441,43.568,47.52,65.843c-3.267,0-6.053,0.146-8.807-0.096c-0.766-0.066-1.554-1.19-2.125-1.979
		c-13.378-18.485-26.728-36.989-40.085-55.489c-0.493-0.683-1.024-1.338-1.685-2.197c-0.723,0.93-1.354,1.693-1.934,2.494
		c-13.19,18.197-26.41,36.373-39.519,54.631c-1.394,1.938-2.742,3.015-5.204,2.699C230.314,191.418,228.491,191.6,226.118,191.6z"/>
	<path fill="#FFFFFF" d="M36.538,73.959c0,39.249,0,78.305,0,117.5c-2.85,0-5.222,0-7.818,0c0-42.531,0-85.107,0-128.003
		c2.879,0,5.776-0.132,8.647,0.088c0.771,0.059,1.638,1.067,2.158,1.843c12.897,19.226,25.754,38.478,38.617,57.726
		c29.063,43.487,58.127,86.976,87.187,130.466c0.458,0.687,0.865,1.405,0.892,2.422c-0.527-0.651-1.064-1.297-1.58-1.958
		C121.204,198.336,82.185,139.502,42.27,81.301c-1.6-2.333-3.216-4.656-4.837-6.974C37.36,74.223,37.161,74.208,36.538,73.959z"/>
	<path fill="#FFFFFF" d="M379.822,70.238c-15.219,0-29.939,0-44.79,0c0-2.343,0-4.435,0-6.658c32.47,0,64.791,0,97.355,0
		c0,2.071,0,4.149,0,6.609c-14.82,0-29.685,0-44.76,0c0,40.583,0,80.792,0,121.204c-2.644,0-5.078,0-7.81,0
		C379.822,151.188,379.822,110.911,379.822,70.238z"/>
	<path fill="#FFFFFF" d="M462.323,175.18c2.078-0.396,3.675-0.381,5.104,1.867c1.817,2.855,7.771,2.951,10.242,0.576
		c1.966-1.889,1.527-4.741-1.168-5.814c-2.604-1.039-5.428-1.52-8.104-2.398c-4.542-1.492-6.458-5.029-5.21-9.395
		c0.142-0.49,0.311-0.994,0.573-1.424c2.377-3.859,6.13-4.723,10.25-4.434c4.392,0.307,7.468,2.689,8.519,6.281
		c0.111,0.392,0.113,0.813,0.188,1.362c-2.192,0.37-3.8,0.485-5.162-1.866c-1.536-2.654-7.038-2.73-9.249-0.541
		c-1.926,1.906-1.342,4.688,1.418,5.707c2.802,1.029,5.793,1.541,8.584,2.59c4.314,1.623,5.895,5.229,4.45,9.521
		c-1.438,4.278-6.243,6.447-12.502,5.644C465.611,182.258,462.628,179.404,462.323,175.18z"/>
	<path fill="#FFFFFF" d="M439.711,175.311c1.168,0,2.345,0,3.429,0c0.912,1.094,1.605,2.533,2.747,3.178
		c3.158,1.787,6.224-0.354,6.311-4.391c0.112-5.393,0.031-10.789,0.036-16.186c0-0.934,0-1.867,0-2.996c1.423,0,2.653,0,4.242,0
		c0,2.284,0.007,4.563-0.002,6.84c-0.014,4.538,0.138,9.086-0.098,13.613c-0.26,5.015-3.585,7.658-8.782,7.629
		C443.828,182.977,439.438,180.385,439.711,175.311z"/>
	<path fill="#FFFFFF" d="M434.932,180.465c-1.049,0.73-2.029,1.922-3.159,2.084c-1.602,0.229-2.683-0.941-2.659-2.703
		c0.021-1.732,0.998-2.941,2.684-2.635c1.134,0.207,2.102,1.336,3.141,2.053C434.935,179.664,434.933,180.064,434.932,180.465z"/>
</g>
</svg>
