<?xml version="1.0" encoding="utf-8"?>
<!-- Generator: Adobe Illustrator 16.0.0, SVG Export Plug-In . SVG Version: 6.00 Build 0)  -->
<!DOCTYPE svg PUBLIC "-//W3C//DTD SVG 1.1//EN" "http://www.w3.org/Graphics/SVG/1.1/DTD/svg11.dtd">
<svg version="1.1" id="Layer_1" xmlns="http://www.w3.org/2000/svg" xmlns:xlink="http://www.w3.org/1999/xlink" x="0px" y="0px"
	 width="658.561px" height="256px" viewBox="0 0 658.561 256" enable-background="new 0 0 658.561 256" xml:space="preserve">
<path fill="#1A202C" d="M449.895,0c-28.709,41.652-57.44,83.339-86.305,125.219c19.303,26.745,38.635,53.536,58.394,80.908
	c-4.017,0-7.438,0.18-10.822-0.118c-0.941-0.081-1.91-1.464-2.611-2.434c-16.438-22.714-32.842-45.45-49.256-68.185
	c-0.604-0.84-1.26-1.644-2.07-2.699c-0.889,1.143-1.664,2.08-2.375,3.064c-16.209,22.36-32.452,44.695-48.563,67.13
	c-1.713,2.382-3.369,3.706-6.395,3.316c-2.173-0.275-4.414-0.054-7.33-0.054c1.033-1.5,1.707-2.523,2.428-3.514
	c18.1-24.896,36.166-49.813,54.362-74.637c1.628-2.219,1.429-3.577-0.077-5.66c-16.904-23.415-33.716-46.899-50.551-70.368
	c-0.65-0.908-1.244-1.855-2.193-3.281c3.678,0,6.816-0.211,9.895,0.117c1.06,0.112,2.187,1.421,2.922,2.443
	c15.15,21.043,30.25,42.123,45.359,63.196c0.738,1.023,1.479,2.043,2.652,3.667C385.891,77.652,415.762,38.484,446.474,0H0v256
	h196.469C151.164,195.645,109.322,132.838,66.65,70.616c-1.966-2.867-3.952-5.721-5.943-8.569c-0.09-0.128-0.334-0.146-1.1-0.453
	c0,48.229,0,96.221,0,144.385c-3.502,0-6.417,0-9.606,0c0-52.264,0-104.581,0-157.291c3.538,0,7.097-0.162,10.625,0.108
	c0.947,0.073,2.012,1.311,2.651,2.264c15.848,23.625,31.646,47.282,47.453,70.934c29.852,44.667,59.703,89.336,89.553,134.006
	h458.277V0H449.895z"/>
<path fill="#FFFFFF" d="M287.855,205.969c-35.484,0-70.757,0-106.19,0c0-52.423,0-104.663,0-157.096c35.103,0,70.038,0,105.152,0
	c0,2.641,0,5.125,0,8.036c-31.682,0-63.339,0-95.296,0c0,21.217,0,42.013,0,63.127c29.729,0,59.52,0,89.538,0
	c0,2.875,0,5.438,0,8.395c-29.836,0-59.608,0-89.659,0c-0.073,1.497-0.172,2.62-0.173,3.743c-0.01,20.661,0.045,41.332-0.067,61.996
	c-0.016,2.854,0.708,3.715,3.668,3.708c29.733-0.114,59.467-0.069,89.201-0.069c1.232,0,2.465,0,3.828,0
	C287.855,200.764,287.855,203.346,287.855,205.969z"/>
<path fill="#FFFFFF" d="M491.021,205.896c-3.248,0-6.24,0-9.597,0c0.006-49.404,0.006-98.896,0.006-148.875
	c-18.7,0-36.789,0-55.037,0c0-2.878,0-5.45,0-8.181c39.898,0,79.615,0,119.63,0c0,2.544,0,5.098,0,8.121
	c-18.211,0-36.478,0-55.002,0C491.021,106.83,491.021,156.238,491.021,205.896z"/>
<path fill="#FFFFFF" d="M549.15,192.469c-1.289,0.897-2.492,2.361-3.881,2.562c-1.972,0.28-3.3-1.157-3.269-3.321
	c0.025-2.129,1.228-3.614,3.297-3.238c1.394,0.256,2.584,1.643,3.861,2.522C549.154,191.484,549.15,191.977,549.15,192.469z"/>
<path fill="#FFFFFF" d="M575.5,186.207c-0.318,6.16-4.404,9.41-10.791,9.374c-4.627-0.026-10.021-3.211-9.686-9.446
	c1.434,0,2.881,0,4.213,0c1.121,1.344,1.973,3.113,3.375,3.905c3.881,2.194,7.647-0.435,7.756-5.396
	c0.137-6.627,0.037-13.259,0.045-19.89c0-1.147,0-2.294,0-3.682c1.748,0,3.258,0,5.211,0c0,2.806,0.01,5.606-0.002,8.403
	C575.604,175.055,575.791,180.645,575.5,186.207z"/>
<path fill="#FFFFFF" d="M607.918,188.47c-1.766,5.259-7.672,7.923-15.361,6.938c-5.707-0.734-9.373-4.241-9.748-9.433
	c2.554-0.486,4.517-0.469,6.271,2.295c2.232,3.508,9.549,3.625,12.586,0.707c2.414-2.32,1.875-5.826-1.436-7.145
	c-3.199-1.277-6.67-1.867-9.959-2.947c-5.58-1.834-7.937-6.18-6.4-11.544c0.174-0.603,0.381-1.222,0.703-1.75
	c2.92-4.741,7.531-5.803,12.594-5.448c5.398,0.377,9.178,3.307,10.469,7.719c0.138,0.48,0.14,0.998,0.23,1.674
	c-2.691,0.453-4.668,0.595-6.342-2.292c-1.89-3.263-8.648-3.355-11.365-0.665c-2.367,2.34-1.65,5.761,1.742,7.013
	c3.442,1.263,7.117,1.894,10.547,3.183C607.752,178.768,609.693,183.197,607.918,188.47z"/>
</svg>
