<?xml version="1.0" encoding="utf-8"?>
<!-- Generator: Adobe Illustrator 16.0.0, SVG Export Plug-In . SVG Version: 6.00 Build 0)  -->
<!DOCTYPE svg PUBLIC "-//W3C//DTD SVG 1.0//EN" "http://www.w3.org/TR/2001/REC-SVG-20010904/DTD/svg10.dtd">
<svg version="1.0" id="Layer_1" xmlns="http://www.w3.org/2000/svg" xmlns:xlink="http://www.w3.org/1999/xlink" x="0px" y="0px"
	 width="907.513px" height="256px" viewBox="-197.755 0 907.513 256" enable-background="new -197.755 0 907.513 256"
	 xml:space="preserve">
<g>
	<path fill="#FFFFFF" d="M327.102,120.437c0,29.633-0.082,59.269,0.08,88.9c0.026,4.953-1.723,8.047-6.004,10.479
		c-19.935,11.326-39.794,22.787-59.574,34.379c-4.14,2.427-7.63,2.393-11.75-0.021c-19.886-11.656-39.851-23.181-59.877-34.596
		c-4.027-2.295-5.773-5.289-5.751-9.901c0.11-23.062,0.113-46.124-0.001-69.187c-0.023-4.734,1.706-7.852,5.876-10.225
		c20.036-11.399,39.998-22.932,59.894-34.573c3.984-2.331,7.479-2.597,11.409-0.061c3.953,2.55,8.125,4.759,12.221,7.087
		c4.332,2.463,5.831,1.631,5.837-3.282c0.019-15.871,0.007-31.742,0.007-47.613c0-15.003-0.001-30.006,0.004-45.009
		c0-1.115-0.089-2.25,0.088-3.34c0.455-2.809,2.85-4.147,5.521-3.148c0.692,0.258,1.343,0.638,1.989,1
		c11.467,6.411,22.877,12.927,34.423,19.191c4.11,2.23,5.694,5.271,5.676,9.899C327.041,60.425,327.102,90.431,327.102,120.437z
		 M231.74,174.697c0,3.844,0.053,7.688-0.024,11.531c-0.034,1.684,0.582,2.746,2.057,3.586c6.57,3.74,13.117,7.521,19.613,11.388
		c1.614,0.962,2.916,0.847,4.461-0.065c6.401-3.779,12.834-7.514,19.299-11.188c1.574-0.896,2.281-2.006,2.263-3.855
		c-0.076-7.438-0.073-14.88-0.002-22.316c0.018-1.825-0.604-2.984-2.205-3.896c-6.466-3.671-12.905-7.393-19.296-11.192
		c-1.726-1.025-3.129-0.912-4.809,0.084c-6.288,3.73-12.617,7.396-18.984,10.99c-1.711,0.965-2.484,2.146-2.41,4.15
		C231.834,167.503,231.739,171.102,231.74,174.697z"/>
	<path fill="#FFFFFF" d="M-6.592,173.251c0-11.528,0.102-23.062-0.051-34.588c-0.059-4.458,1.578-7.407,5.503-9.638
		c20.146-11.452,40.229-23.013,60.251-34.679c4.007-2.335,7.465-2.249,11.444,0.07c19.912,11.608,39.881,23.12,59.929,34.492
		c4.057,2.301,5.774,5.318,5.756,9.9c-0.091,23.184-0.102,46.364,0.008,69.549c0.022,4.625-1.775,7.586-5.794,9.877
		c-20.027,11.408-39.984,22.938-59.881,34.574c-3.962,2.313-7.373,2.479-11.418,0.108C39.267,241.27,19.302,229.75-0.733,218.355
		c-4.139-2.354-6.019-5.33-5.929-10.146C-6.446,196.563-6.592,184.904-6.592,173.251z"/>
	<path fill="#FFFFFF" d="M-197.687,184.893c0-15.617,0.11-31.232-0.068-46.851c-0.052-4.542,1.706-7.354,5.581-9.567
		c20.118-11.487,40.169-23.093,60.188-34.753c3.821-2.226,7.297-2.32,11.149-0.079c20.132,11.712,40.295,23.37,60.521,34.917
		c3.913,2.231,5.501,5.252,5.482,9.679c-0.132,31.356-0.255,62.716-0.117,94.073c0.027,6.285-3.287,7.711-8.052,4.824
		c-11.124-6.738-22.465-13.121-33.816-19.475c-4.001-2.239-5.837-5.174-5.77-9.863c0.197-13.88-0.023-27.764,0.121-41.646
		c0.049-4.727-1.574-8.004-5.873-10.203c-4.515-2.313-8.837-5.008-13.202-7.604c-3.175-1.891-6.255-1.967-9.461-0.062
		c-4.791,2.85-9.614,5.646-14.474,8.379c-3.262,1.832-4.629,4.508-4.608,8.235c0.083,14.129-0.095,28.262,0.101,42.389
		c0.068,4.931-1.762,8.097-6.06,10.482c-11.37,6.314-22.587,12.908-33.867,19.39c-0.645,0.368-1.267,0.796-1.948,1.083
		c-3.034,1.277-5.446-0.207-5.716-3.528c-0.08-0.983-0.027-1.981-0.027-2.974c-0.001-15.617,0-31.233,0-46.852
		C-197.632,184.893-197.66,184.893-197.687,184.893z"/>
	<path fill="#FFFFFF" d="M374.658,174.081c0-11.651,0.107-23.304-0.055-34.953c-0.063-4.494,1.697-7.382,5.578-9.599
		c20.229-11.548,40.396-23.2,60.518-34.938c3.743-2.185,7.023-2.197,10.765-0.004c20.089,11.787,40.23,23.488,60.419,35.104
		c3.631,2.09,5.361,4.869,5.266,9.031c-0.119,4.954-0.104,9.916-0.01,14.873c0.074,4.002-1.566,6.756-5.074,8.76
		c-11.832,6.766-23.576,13.681-35.355,20.535c-0.428,0.25-0.85,0.512-1.295,0.728c-3.209,1.534-5.816,0.188-6.068-3.341
		c-0.213-2.961-0.063-5.945-0.066-8.92c-0.008-2.854-0.031-5.701-0.004-8.553c0.02-1.785-0.719-3.084-2.256-3.972
		c-6.332-3.649-12.664-7.303-18.981-10.979c-1.66-0.967-3.235-0.979-4.905-0.004c-6.313,3.683-12.646,7.334-18.983,10.976
		c-1.806,1.036-2.535,2.573-2.527,4.612c0.029,6.94,0.073,13.885-0.021,20.824c-0.037,2.977,1.729,4.355,4.014,5.659
		c19.686,11.246,39.34,22.55,59.004,33.835c1.072,0.617,2.195,1.174,3.189,1.898c2.596,1.896,2.617,4.514,0.1,6.449
		c-0.586,0.449-1.26,0.787-1.908,1.147c-11.58,6.453-23.207,12.819-34.716,19.396c-3.885,2.22-7.298,2.119-11.146-0.101
		c-19.858-11.438-39.771-22.793-59.74-34.038c-4.012-2.259-5.869-5.189-5.793-9.855
		C374.785,197.139,374.658,185.609,374.658,174.081z"/>
	<path fill="#FFFFFF" d="M608.524,239.775c3.957-1.826,7.346-3.531,10.861-4.906c0.785-0.309,2.125,0.367,3.037,0.89
		c3.98,2.276,7.959,4.565,11.811,7.052c2.066,1.334,3.727,1.172,5.797-0.027c18.645-10.822,37.316-21.604,56.063-32.256
		c2.309-1.313,2.984-2.825,2.979-5.326c-0.078-21.447-0.088-42.896,0.012-64.342c0.012-2.696-0.867-4.26-3.205-5.594
		c-18.615-10.632-37.184-21.344-55.711-32.126c-2.178-1.269-3.824-1.385-6.082-0.066c-18.621,10.867-37.303,21.631-56.027,32.321
		c-2.254,1.283-3.027,2.801-3.02,5.34c0.084,21.445,0.086,42.894-0.004,64.34c-0.012,2.57,0.826,4.087,3.082,5.303
		c4.469,2.409,8.736,5.193,13.205,7.605c1.922,1.037,4.084,1.896,6.229,2.211c5.416,0.799,9.113-2.506,9.311-7.961
		c0.033-0.992,0.012-1.983,0.012-2.979c0-20.331,0-40.662,0-60.993c0-0.989,0.031-1.981,0.004-2.975
		c-0.053-1.802,0.662-2.821,2.602-2.782c1.98,0.038,3.967,0.03,5.947,0.002c1.652-0.021,2.592,0.646,2.563,2.396
		c-0.014,0.621,0.012,1.24,0.012,1.858c0,21.695,0.031,43.392-0.045,65.084c-0.008,2.698-0.258,5.487-0.975,8.072
		c-1.535,5.53-5.15,9.257-10.83,10.67c-4.66,1.159-9.355,1.167-13.914-0.438c-2.328-0.816-4.609-1.844-6.771-3.03
		c-4.67-2.563-9.227-5.332-13.873-7.94c-4.895-2.75-7.295-6.884-7.213-12.48c0.006-0.37,0-0.742,0-1.114
		c0-21.817,0.074-43.64-0.049-65.455c-0.035-6.356,2.447-10.767,8.008-13.929c18.953-10.788,37.82-21.727,56.66-32.714
		c5.467-3.189,10.635-3.213,16.111-0.021c18.84,10.985,37.703,21.927,56.662,32.704c5.574,3.17,8.025,7.57,7.988,13.93
		c-0.129,21.942-0.119,43.887-0.006,65.827c0.031,6.214-2.396,10.546-7.834,13.638c-19.066,10.838-38.066,21.795-57.02,32.834
		c-5.375,3.133-10.402,3.237-15.709-0.078c-5.674-3.545-11.521-6.808-17.277-10.217
		C610.883,241.488,609.936,240.749,608.524,239.775z"/>
	<path fill="#FFFFFF" d="M653.637,150.832c-3.168,0.457-6.365,0.805-9.508,1.427c-1.287,0.255-2.557,0.962-3.658,1.716
		c-2.305,1.574-2.756,3.979-2.521,6.584c0.229,2.574,2.143,3.612,4.219,4.096c4.213,0.979,8.48,1.732,12.742,2.484
		c4.51,0.797,9.047,1.428,13.551,2.243c1.818,0.33,3.605,0.894,5.367,1.466c6.215,2.018,10.764,5.674,11.594,12.588
		c0.895,7.438-1.213,13.735-7.578,18.188c-3.406,2.385-7.254,3.695-11.314,4.443c-8.9,1.645-17.771,1.545-26.486-0.942
		c-2.813-0.806-5.598-2.082-8.055-3.673c-5.379-3.48-7.867-8.748-8.113-15.076c-0.104-2.588,0.33-2.959,2.965-3.115
		c0.74-0.044,1.486-0.014,2.23-0.015c5.104-0.011,5.137-0.021,6.717,4.89c1.162,3.604,3.574,5.983,7.145,6.942
		c8.045,2.159,16.178,2.215,24.236,0.138c3.646-0.938,6.027-3.344,6.426-7.305c0.264-2.605-0.594-4.77-3.078-5.774
		c-2.391-0.97-4.887-1.846-7.42-2.267c-6.834-1.139-13.723-1.936-20.563-3.028c-2.182-0.349-4.346-1.038-6.398-1.862
		c-11.25-4.527-13.955-19.029-5.186-27.498c2.84-2.742,6.279-4.442,10.033-5.404c9.199-2.36,18.428-2.209,27.512,0.541
		c8.578,2.596,13.391,8.521,14.471,17.439c0.336,2.77-0.105,3.297-2.857,3.436c-0.617,0.031-1.248-0.063-1.855,0.021
		c-3.854,0.528-6.525-0.248-7.512-4.762c-0.758-3.473-3.672-5.604-7.127-6.389C660.362,151.622,657.02,151.331,653.637,150.832z"/>
	<path fill="#FFFFFF" d="M432.104,173.547c0.217-9.49-1.556-6.811,6.739-11.621c8.789-5.099,5.283-4.988,14.008-0.082
		c2.244,1.262,5.095,2.346,6.277,4.338c1.104,1.854,0.449,4.81,0.412,7.274c-0.043,2.698,0.545,5.851-0.646,7.957
		c-1.109,1.972-4.141,2.929-6.412,4.165c-8.225,4.465-4.865,4.529-13.131,0.025c-1.735-0.946-3.405-2.023-5.162-2.935
		c-1.491-0.771-2.188-1.853-2.104-3.556C432.177,177.266,432.106,175.404,432.104,173.547z"/>
</g>
</svg>
