<?xml version="1.0" encoding="utf-8"?>
<!-- Generator: Adobe Illustrator 16.0.0, SVG Export Plug-In . SVG Version: 6.00 Build 0)  -->
<!DOCTYPE svg PUBLIC "-//W3C//DTD SVG 1.1//EN" "http://www.w3.org/Graphics/SVG/1.1/DTD/svg11.dtd">
<svg version="1.1" id="Layer_1" xmlns="http://www.w3.org/2000/svg" xmlns:xlink="http://www.w3.org/1999/xlink" x="0px" y="0px"
	 width="709.604px" height="256px" viewBox="0 0 709.604 256" enable-background="new 0 0 709.604 256" xml:space="preserve">
<rect x="-0.014" fill="#1A202C" width="709.59" height="256"/>
<path fill="#FFFFFF" d="M138.278,192.482c0.017,3.885-2.031,4.767-4.977,2.98c-6.877-4.165-13.887-8.109-20.904-12.039
	c-2.473-1.384-3.608-3.197-3.567-6.097c0.122-8.58-0.014-17.163,0.075-25.744c0.03-2.922-0.973-4.947-3.631-6.308
	c-2.791-1.431-5.463-3.096-8.161-4.7c-1.962-1.169-3.866-1.216-5.848-0.039c-2.962,1.762-5.943,3.489-8.948,5.181
	c-2.017,1.133-2.861,2.786-2.849,5.09c0.052,8.733-0.059,17.473,0.063,26.204c0.042,3.048-1.089,5.005-3.747,6.479
	c-7.028,3.904-13.963,7.979-20.936,11.986c-0.398,0.229-0.783,0.492-1.204,0.67c-1.876,0.789-3.367-0.129-3.534-2.182
	c-0.049-0.607-0.017-1.225-0.017-1.839c0-9.653,0-19.308,0-28.962c-0.018,0.004-0.035,0.004-0.052,0.004
	c0-9.654,0.068-19.307-0.042-28.962c-0.032-2.81,1.055-4.547,3.45-5.914c12.436-7.101,24.831-14.275,37.207-21.483
	c2.361-1.376,4.511-1.435,6.892-0.049c12.445,7.24,24.909,14.447,37.413,21.585c2.418,1.38,3.4,3.247,3.389,5.983
	C138.269,153.712,138.193,173.098,138.278,192.482z"/>
<path fill="#FFFFFF" d="M252.89,183.78c-12.38,7.052-24.717,14.179-37.017,21.372c-2.449,1.43-4.558,1.531-7.058,0.065
	c-12.294-7.198-24.636-14.319-37.021-21.364c-2.559-1.455-3.721-3.295-3.665-6.271c0.134-7.199,0.043-14.406,0.043-21.609
	c0-7.127,0.063-14.256-0.032-21.382c-0.037-2.756,0.975-4.579,3.401-5.958c12.454-7.079,24.869-14.226,37.246-21.437
	c2.478-1.444,4.615-1.39,7.075,0.043c12.309,7.175,24.653,14.292,37.046,21.321c2.508,1.422,3.569,3.289,3.559,6.121
	c-0.057,14.33-0.063,28.659,0.005,42.992C256.485,180.533,255.375,182.363,252.89,183.78z"/>
<path fill="#FFFFFF" d="M370.79,184.758c-12.323,7.001-24.6,14.086-36.827,21.252c-2.559,1.5-4.717,1.479-7.263-0.014
	c-12.293-7.205-24.635-14.33-37.014-21.387c-2.49-1.418-3.569-3.27-3.556-6.12c0.068-14.257,0.07-28.513,0-42.77
	c-0.014-2.927,1.055-4.854,3.632-6.319c12.386-7.047,24.726-14.177,37.025-21.374c2.463-1.441,4.623-1.605,7.053-0.038
	c2.444,1.577,5.022,2.942,7.555,4.381c2.679,1.523,3.604,1.009,3.608-2.029c0.012-9.811,0.004-19.622,0.004-29.433
	c0-9.275-0.001-18.549,0.002-27.823c0-0.689-0.055-1.391,0.056-2.064c0.28-1.736,1.762-2.563,3.412-1.946
	c0.428,0.159,0.83,0.394,1.229,0.618c7.089,3.963,14.143,7.991,21.279,11.863c2.541,1.378,3.52,3.258,3.509,6.119
	c-0.08,18.551-0.042,37.1-0.042,55.648c0,18.317-0.051,36.639,0.049,54.954C374.518,181.341,373.436,183.254,370.79,184.758z"/>
<path fill="#FFFFFF" d="M491.927,143.82c0.046,2.476-0.968,4.178-3.137,5.416c-7.314,4.184-14.574,8.457-21.856,12.693
	c-0.264,0.154-0.523,0.316-0.8,0.45c-1.982,0.948-3.596,0.116-3.751-2.063c-0.132-1.832-0.039-3.676-0.041-5.516
	c-0.004-1.765-0.019-3.523-0.002-5.287c0.014-1.104-0.445-1.906-1.395-2.455c-3.914-2.256-7.828-4.515-11.734-6.787
	c-1.025-0.599-1.999-0.605-3.031-0.002c-3.901,2.276-7.816,4.533-11.733,6.784c-1.117,0.642-1.567,1.591-1.563,2.851
	c0.019,4.291,0.045,8.584-0.013,12.873c-0.022,1.842,1.068,2.691,2.48,3.498c12.168,6.953,24.318,13.939,36.475,20.916
	c0.663,0.382,1.356,0.727,1.972,1.174c1.605,1.172,1.618,2.791,0.063,3.986c-0.362,0.276-0.778,0.485-1.18,0.709
	c-7.158,3.988-14.347,7.924-21.461,11.989c-2.4,1.373-4.512,1.312-6.891-0.063c-12.275-7.069-24.585-14.088-36.929-21.041
	c-2.48-1.396-3.628-3.206-3.581-6.092c0.108-7.117,0.03-14.242,0.03-21.369c0-7.203,0.065-14.405-0.034-21.606
	c-0.039-2.778,1.049-4.563,3.447-5.935c12.505-7.138,24.972-14.341,37.411-21.599c2.314-1.35,4.342-1.357,6.654-0.002
	c12.419,7.287,24.869,14.52,37.35,21.701c2.244,1.292,3.314,3.01,3.256,5.582C491.86,137.689,491.87,140.758,491.927,143.82z"/>
<path fill="#FFFFFF" d="M455.92,161.018c-0.684,1.221-2.559,1.812-3.962,2.574c-5.085,2.762-3.008,2.801-8.118,0.018
	c-1.072-0.586-2.104-1.252-3.189-1.814c-0.922-0.479-1.354-1.146-1.302-2.199c0.059-1.141,0.015-2.291,0.013-3.438
	c0.134-5.866-0.962-4.21,4.166-7.185c5.433-3.151,3.267-3.084,8.658-0.052c1.388,0.78,3.149,1.451,3.882,2.683
	c0.683,1.146,0.276,2.974,0.254,4.498C456.294,157.768,456.658,159.716,455.92,161.018z"/>
<path fill="#FFFFFF" d="M659.597,159.844c0.03,5.92-2.279,10.045-7.461,12.99c-18.155,10.321-36.252,20.757-54.304,31.27
	c-5.12,2.984-9.907,3.084-14.961-0.073c-5.404-3.376-10.975-6.484-16.455-9.73c-0.981-0.586-1.884-1.289-3.229-2.217
	c3.77-1.739,6.995-3.363,10.345-4.673c0.747-0.294,2.023,0.35,2.894,0.847c3.79,2.169,7.579,4.349,11.248,6.718
	c1.968,1.271,3.549,1.115,5.521-0.025c17.757-10.307,35.539-20.575,53.394-30.721c2.2-1.25,2.842-2.689,2.839-5.071
	c-0.075-20.427-0.085-40.853,0.011-61.279c0.013-2.567-0.825-4.057-3.053-5.328c-17.729-10.125-35.413-20.327-53.058-30.595
	c-2.074-1.208-3.644-1.319-5.792-0.063c-17.735,10.349-35.527,20.601-53.36,30.781c-2.146,1.222-2.883,2.667-2.875,5.086
	c0.079,20.424,0.081,40.853-0.004,61.276c-0.012,2.447,0.786,3.893,2.936,5.051c4.257,2.294,8.317,4.944,12.575,7.242
	c1.83,0.986,3.891,1.807,5.934,2.105c5.157,0.762,8.679-2.388,8.866-7.582c0.032-0.944,0.013-1.89,0.013-2.836
	c0-19.365,0-38.728,0-58.09c0-0.942,0.028-1.887,0.003-2.833c-0.05-1.716,0.631-2.687,2.479-2.65
	c1.886,0.037,3.778,0.029,5.662,0.002c1.573-0.02,2.469,0.616,2.442,2.283c-0.016,0.591,0.012,1.181,0.012,1.769
	c0,20.662,0.029,41.327-0.043,61.985c-0.007,2.568-0.246,5.226-0.929,7.688c-1.462,5.266-4.905,8.816-10.314,10.161
	c-4.438,1.104-8.909,1.112-13.251-0.415c-2.217-0.777-4.39-1.758-6.449-2.886c-4.446-2.442-8.785-5.079-13.213-7.563
	c-4.659-2.619-6.946-6.557-6.869-11.886c0.007-0.353,0-0.707,0-1.062c0-20.777,0.071-41.563-0.046-62.338
	c-0.033-6.052,2.33-10.254,7.626-13.265c18.052-10.275,36.021-20.692,53.962-31.157c5.207-3.037,10.129-3.06,15.346-0.02
	c17.941,10.462,35.906,20.883,53.963,31.146c5.308,3.019,7.642,7.209,7.605,13.267C659.48,118.049,659.49,138.95,659.597,159.844z"
	/>
<path fill="#FFFFFF" d="M622.229,137.188c-2.274-0.924-4.652-1.758-7.065-2.158c-6.508-1.086-13.068-1.846-19.583-2.885
	c-2.077-0.332-4.139-0.988-6.094-1.772c-10.715-4.311-13.29-18.122-4.938-26.188c2.705-2.612,5.98-4.231,9.556-5.147
	c8.762-2.248,17.551-2.104,26.201,0.515c8.17,2.472,12.753,8.116,13.781,16.609c0.32,2.638-0.1,3.14-2.722,3.272
	c-0.587,0.03-1.188-0.06-1.768,0.021c-3.669,0.502-6.212-0.236-7.152-4.536c-0.724-3.309-3.497-5.338-6.788-6.084
	c-3.099-0.707-6.28-0.984-9.503-1.459c-3.019,0.436-6.063,0.767-9.056,1.359c-1.227,0.243-2.436,0.916-3.483,1.634
	c-2.194,1.499-2.624,3.79-2.401,6.27c0.217,2.452,2.041,3.441,4.018,3.902c4.014,0.932,8.077,1.649,12.137,2.365
	c4.295,0.759,8.615,1.36,12.904,2.136c1.731,0.314,3.436,0.851,5.112,1.396c5.918,1.923,10.251,5.404,11.041,11.99
	c0.854,7.083-1.155,13.08-7.217,17.322c-3.243,2.271-6.909,3.519-10.774,4.229c-8.477,1.567-16.925,1.472-25.225-0.896
	c-2.679-0.768-5.331-1.982-7.671-3.498c-5.123-3.313-7.493-8.331-7.729-14.357c-0.098-2.465,0.315-2.817,2.824-2.967
	c0.704-0.042,1.415-0.014,2.123-0.015c4.861-0.011,4.894-0.021,6.397,4.657c1.105,3.433,3.403,5.697,6.805,6.611
	c7.662,2.055,15.408,2.108,23.083,0.131c3.473-0.894,5.739-3.185,6.118-6.957C625.412,140.207,624.596,138.145,622.229,137.188z"/>
<path fill="#1A202C" d="M344.968,150.116c0.011-1.128-0.373-1.845-1.362-2.408c-3.998-2.271-7.979-4.569-11.929-6.919
	c-1.066-0.635-1.935-0.563-2.973,0.052c-3.888,2.306-7.8,4.572-11.735,6.794c-1.058,0.596-1.536,1.326-1.49,2.565
	c0.081,2.219,0.022,4.442,0.023,6.666c0,2.376,0.033,4.753-0.015,7.128c-0.021,1.041,0.359,1.697,1.271,2.217
	c4.062,2.313,8.108,4.648,12.124,7.04c0.998,0.595,1.803,0.522,2.758-0.041c3.957-2.336,7.935-4.646,11.931-6.916
	c0.973-0.554,1.411-1.239,1.398-2.382C344.922,159.313,344.924,154.713,344.968,150.116z"/>
</svg>
