<?xml version="1.0" encoding="utf-8"?>
<!-- Generator: Adobe Illustrator 16.0.0, SVG Export Plug-In . SVG Version: 6.00 Build 0)  -->
<!DOCTYPE svg PUBLIC "-//W3C//DTD SVG 1.1//EN" "http://www.w3.org/Graphics/SVG/1.1/DTD/svg11.dtd">
<svg version="1.1" id="Layer_1" xmlns="http://www.w3.org/2000/svg" xmlns:xlink="http://www.w3.org/1999/xlink" x="0px" y="0px"
	 width="677.083px" height="256px" viewBox="0 0 677.083 256" enable-background="new 0 0 677.083 256" xml:space="preserve">
<rect x="-0.013" fill="#1A202C" width="677.083" height="256.004"/>
<path fill="#FFFFFF" d="M203.691,154.038c10.78,15.236,21.454,30.092,31.84,45.147c2.865,4.152,1.283,7.19-3.617,8.092
	c-1.935,0.357-3.958,0.296-5.941,0.296c-54.817,0.012-109.633,0.066-164.449-0.141c-3.844-0.014-7.682-1.98-11.524-3.039
	c1.557-3.477,2.664-7.255,4.758-10.371c5.411-8.053,12.084-15.356,16.75-23.792c8.343-15.086,24.573-18.699,37.319-27.344
	c0.997-0.674,3.172,0.474,4.812,0.648c4.864,0.526,9.969,2.094,14.529,1.131c3.711-0.782,6.107-0.662,8.908,1.573
	c3.967,3.165,8.135,6.078,12.221,9.092c4.03,2.972,7.617,5.591,8.428,11.625c0.854,6.336,6.351,9.889,12.832,10.659
	c7.047,0.836,12.568-2.006,16.149-8.118C192.125,160.249,192.046,160.202,203.691,154.038z"/>
<path fill="#FFFFFF" d="M271.31,49.731c21.574,0.721,43.271-2.171,64.425,4.202c22.426,6.757,30.487,26.659,27.709,49.533
	c-2.929,24.072-20.01,37.869-46.493,38.928c-8.328,0.335-16.679,0.053-25.645,0.053c0,19.849,0,38.774,0,58.302
	c-6.848,0-13.085,0-19.996,0C271.31,150.662,271.31,100.596,271.31,49.731z M291.327,96.098c0,7.297-0.275,14.612,0.197,21.877
	c0.115,1.779,2.64,4.809,4.135,4.857c8.817,0.286,17.741,0.55,26.476-0.487c13.099-1.557,21.139-11.86,21.097-25.469
	c-0.05-15.537-7.666-25.502-21.667-27.004c-8.535-0.916-17.223-0.737-25.817-0.437c-1.526,0.053-4.1,3.028-4.216,4.785
	C291.051,81.486,291.329,88.802,291.327,96.098z"/>
<path fill="#FFFFFF" d="M87.336,141.283c-1.836-1.387-4.604-2.456-5.356-4.336c-0.688-1.723,0.199-4.729,1.41-6.461
	c15.425-22.068,31.016-44.019,46.61-65.968c3.323-4.677,6.755-9.279,10.277-13.808c2.614-3.362,5.1-2.702,7.391,0.556
	c18.785,26.701,37.544,53.419,56.438,80.042c2.622,3.693,1.72,6.045-1.748,8.093c-4.932,2.916-9.784,6.004-14.908,8.534
	c-1.564,0.773-4.393,0.681-5.822-0.257c-5.784-3.804-11.432-3.554-17.605-1.138c-1.752,0.685-4.591,0.172-6.281-0.858
	c-5.076-3.099-10.045-6.465-14.611-10.261c-1.948-1.619-3.52-4.42-4.009-6.928c-1.597-8.182-7.258-14.245-14.591-14.764
	c-9.109-0.644-14.533,3.813-17.901,12.507c-1.376,3.552-5.335,6.334-8.594,8.857C94.94,137.482,91.23,139.08,87.336,141.283z"/>
<path fill="#FFFFFF" d="M555.992,152.091c-2.094,13.926,3.943,27.953,15.006,31.591c6.775,2.231,15.236,3.01,21.867,0.964
	c6.521-2.012,11.686-8.414,18.332-13.583c3.176,2.148,7.641,5.164,12.016,8.121c-8.992,22.272-33.387,27.613-53.891,23.009
	c-16.463-3.7-30.859-20.146-32.039-38.915c-0.957-15.242-1.398-30.862,4.346-45.782c6.293-16.34,21.193-28.872,41.227-28.302
	c18.988,0.539,33.037,9.633,38.84,27.975c2.82,8.929,3.652,18.506,5.195,27.817c0.869,5.229-1.164,7.341-6.895,7.236
	c-19.014-0.346-38.035-0.13-57.055-0.13C560.58,152.091,558.218,152.091,555.992,152.091z M556.994,134.689
	c16.332,0,32.674,0,49.016,0c-0.088-16.337-9.803-26.88-24.172-26.753C568.066,108.059,556.884,119.839,556.994,134.689z"/>
<path fill="#FFFFFF" d="M450.515,201.102c-6.989,0-12.935,0-19.868,0c0-2.337-0.002-4.448,0-6.567
	c0.037-32.511,0.179-65.022,0.005-97.532c-0.029-5.295,1.164-7.494,6.927-7.272c9.66,0.373,9.673,0.029,12.631,13.608
	c1.546-1.264,2.909-2.172,4.02-3.324c11.416-11.855,25.328-13.609,40.185-9.049c13.791,4.233,21.381,15.155,21.936,28.674
	c1.102,26.859,0.326,53.791,0.326,81.193c-5.348,0-11.393,0-18.279,0c0-2.52,0.002-4.875,0-7.234
	c-0.014-21.231,0.152-42.466-0.104-63.694c-0.168-13.982-6.363-22.209-18.166-22.479c-5.682-0.132-12.438,2.051-16.959,5.486
	c-8.422,6.399-13.352,14.989-12.879,26.744C451.103,159.918,450.515,180.238,450.515,201.102z"/>
<path fill="#FFFFFF" d="M406.885,201.011c-6.585,0-12.265,0-18.816,0c0-30.74,0-61.496,0-92.945c-4.701,0-8.554,0-13.286,0
	c0-5.221-0.325-9.812,0.201-14.303c0.155-1.324,2.682-3.309,4.194-3.375c7.713-0.344,15.462-0.383,23.168,0.028
	c1.578,0.083,4.34,2.537,4.349,3.915C406.937,129.628,406.885,164.931,406.885,201.011z"/>
<path fill="#FFFFFF" d="M397.284,48.413c6.104-0.03,13.275,6.972,13.438,13.118c0.178,6.812-6.422,13.535-13.371,13.62
	c-6.952,0.085-13.126-5.931-13.249-12.911C383.974,55.122,390.337,48.447,397.284,48.413z"/>
</svg>
