<?xml version="1.0" encoding="utf-8"?>
<!-- Generator: Adobe Illustrator 16.0.0, SVG Export Plug-In . SVG Version: 6.00 Build 0)  -->
<!DOCTYPE svg PUBLIC "-//W3C//DTD SVG 1.0//EN" "http://www.w3.org/TR/2001/REC-SVG-20010904/DTD/svg10.dtd">
<svg version="1.0" id="Layer_1" xmlns="http://www.w3.org/2000/svg" xmlns:xlink="http://www.w3.org/1999/xlink" x="0px" y="0px"
	 width="910.358px" height="256px" viewBox="482.01 0 910.358 256" enable-background="new 482.01 0 910.358 256"
	 xml:space="preserve">
<g>
	<path fill="#FFFFFF" d="M724.54,169.089c17.013,24.043,33.856,47.486,50.245,71.245c4.521,6.552,2.026,11.345-5.708,12.769
		c-3.052,0.563-6.246,0.467-9.375,0.467c-86.503,0.019-173.005,0.104-259.507-0.223c-6.067-0.021-12.124-3.125-18.185-4.795
		c2.456-5.486,4.203-11.449,7.508-16.367c8.539-12.707,19.07-24.232,26.432-37.544c13.166-23.806,38.779-29.508,58.891-43.149
		c1.572-1.063,5.006,0.746,7.595,1.024c7.675,0.829,15.729,3.302,22.926,1.783c5.857-1.235,9.638-1.044,14.057,2.483
		c6.26,4.996,12.838,9.591,19.286,14.348c6.359,4.688,12.02,8.822,13.301,18.345c1.347,9.998,10.021,15.604,20.247,16.819
		c11.121,1.32,19.835-3.164,25.485-12.809C706.288,178.89,706.163,178.817,724.54,169.089z"/>
	<path fill="#FFFFFF" d="M831.245,4.488c34.045,1.138,68.286-3.426,101.667,6.631c35.388,10.663,48.11,42.069,43.724,78.165
		c-4.621,37.987-31.575,59.759-73.366,61.431c-13.143,0.528-26.322,0.084-40.469,0.084c0,31.321,0,61.187,0,92.002
		c-10.808,0-20.649,0-31.556,0C831.245,163.762,831.245,84.755,831.245,4.488z M862.834,77.657c0,11.515-0.434,23.059,0.313,34.523
		c0.181,2.807,4.163,7.589,6.522,7.665c13.917,0.45,27.998,0.867,41.781-0.77c20.67-2.456,33.358-18.716,33.292-40.19
		c-0.078-24.519-12.098-40.244-34.192-42.614c-13.469-1.445-27.177-1.162-40.741-0.689c-2.409,0.084-6.47,4.779-6.653,7.552
		C862.398,54.598,862.838,66.143,862.834,77.657z"/>
	<path fill="#FFFFFF" d="M540.928,148.961c-2.899-2.187-7.266-3.876-8.453-6.843c-1.087-2.717,0.313-7.463,2.223-10.194
		c24.342-34.825,48.946-69.464,73.554-104.101c5.244-7.38,10.659-14.643,16.216-21.79c4.126-5.305,8.049-4.263,11.665,0.878
		c29.641,42.135,59.246,84.298,89.059,126.31c4.137,5.829,2.716,9.539-2.757,12.771c-7.783,4.601-15.439,9.474-23.525,13.467
		c-2.47,1.22-6.932,1.074-9.187-0.405c-9.128-6.003-18.039-5.608-27.782-1.795c-2.766,1.08-7.245,0.271-9.912-1.354
		c-8.01-4.892-15.851-10.203-23.057-16.193c-3.074-2.555-5.554-6.975-6.326-10.932c-2.519-12.912-11.454-22.479-23.025-23.299
		c-14.375-1.016-22.934,6.017-28.249,19.737c-2.172,5.604-8.42,9.995-13.561,13.977
		C552.928,142.963,547.072,145.485,540.928,148.961z"/>
	<path fill="#FFFFFF" d="M1280.488,166.016c-3.307,21.976,6.22,44.111,23.677,49.851c10.692,3.521,24.045,4.75,34.509,1.521
		c10.29-3.174,18.439-13.277,28.927-21.434c5.013,3.39,12.058,8.15,18.961,12.816c-14.189,35.146-52.685,43.575-85.039,36.309
		c-25.98-5.84-48.699-31.793-50.561-61.41c-1.51-24.053-2.204-48.702,6.86-72.246c9.93-25.785,33.442-45.561,65.055-44.662
		c29.966,0.851,52.136,15.201,61.29,44.145c4.454,14.09,5.764,29.203,8.201,43.898c1.369,8.25-1.838,11.584-10.88,11.418
		c-30.004-0.544-60.021-0.204-90.035-0.204C1287.727,166.016,1283.999,166.016,1280.488,166.016z M1282.067,138.557
		c25.774,0,51.562,0,77.351,0c-0.142-25.781-15.472-42.419-38.147-42.218C1299.539,96.531,1281.897,115.122,1282.067,138.557z"/>
	<path fill="#FFFFFF" d="M1114.038,243.358c-11.029,0-20.41,0-31.351,0c0-3.688-0.004-7.021,0-10.365
		c0.059-51.303,0.281-102.607,0.007-153.91c-0.045-8.356,1.837-11.825,10.93-11.476c15.244,0.588,15.265,0.047,19.932,21.475
		c2.439-1.995,4.592-3.428,6.344-5.245c18.014-18.708,39.968-21.475,63.412-14.28c21.763,6.681,33.742,23.915,34.616,45.25
		c1.739,42.384,0.516,84.884,0.516,128.127c-8.441,0-17.978,0-28.845,0c0-3.977,0.002-7.694,0-11.416
		c-0.021-33.504,0.239-67.013-0.163-100.513c-0.267-22.064-10.043-35.047-28.667-35.473c-8.966-0.209-19.626,3.237-26.763,8.657
		c-13.291,10.098-21.071,23.654-20.324,42.204C1114.966,178.368,1114.038,210.434,1114.038,243.358z"/>
	<path fill="#FFFFFF" d="M1045.19,243.214c-10.391,0-19.354,0-29.694,0c0-48.51,0-97.044,0-146.671c-7.419,0-13.499,0-20.966,0
		c0-8.239-0.512-15.484,0.318-22.571c0.246-2.09,4.232-5.221,6.619-5.327c12.171-0.543,24.399-0.604,36.56,0.045
		c2.491,0.131,6.847,4.003,6.862,6.177C1045.272,130.569,1045.19,186.278,1045.19,243.214z"/>
	<path fill="#FFFFFF" d="M1030.038,2.407c9.633-0.047,20.95,11.002,21.206,20.701c0.281,10.749-10.134,21.358-21.099,21.493
		c-10.972,0.135-20.714-9.359-20.91-20.375C1009.035,12.994,1019.075,2.462,1030.038,2.407z"/>
</g>
</svg>
