<?xml version="1.0" encoding="utf-8"?>
<!-- Generator: Adobe Illustrator 16.0.0, SVG Export Plug-In . SVG Version: 6.00 Build 0)  -->
<!DOCTYPE svg PUBLIC "-//W3C//DTD SVG 1.1//EN" "http://www.w3.org/Graphics/SVG/1.1/DTD/svg11.dtd">
<svg version="1.1" id="Layer_1" xmlns="http://www.w3.org/2000/svg" xmlns:xlink="http://www.w3.org/1999/xlink" x="0px" y="0px"
	 width="701.062px" height="256px" viewBox="0 0 701.062 256" enable-background="new 0 0 701.062 256" xml:space="preserve">
<rect x="-0.013" fill="#1A202C" width="701.061" height="256"/>
<path fill="#FFFFFF" d="M456.343,49.378c0,16.923,0,33.846,0,51.013c0.552-0.343,0.936-0.564,1.298-0.811
	c7.567-5.138,15.888-7.753,25.069-7.564c10.607,0.219,19.371,8.233,20.483,18.822c0.177,1.67,0.266,3.358,0.267,5.036
	c0.019,15.853,0.013,31.708,0.013,47.563c0,0.554,0,1.111,0,1.779c-4.027,0-7.971,0-12.154,0c0-0.556,0-1.141,0-1.721
	c0-14.732,0.002-29.463-0.001-44.195c-0.001-3.29-0.347-6.523-1.558-9.625c-2.963-7.578-8.837-10.718-16.771-8.846
	c-5.974,1.409-11.131,4.524-16.084,7.998c-0.369,0.259-0.525,1.037-0.526,1.573c-0.031,9.493-0.021,18.988-0.021,28.481
	c0,8.231,0,16.462,0,24.692c0,0.511,0,1.021,0,1.643c-4.015,0-7.959,0-12.118,0c0-0.462,0-0.954,0-1.447
	c0-36.337,0.006-72.675-0.029-109.012c-0.001-1.191,0.353-1.682,1.492-2.023c3.477-1.042,6.911-2.228,10.361-3.357
	C456.156,49.378,456.248,49.378,456.343,49.378z"/>
<path fill="#FFFFFF" d="M166.815,92.857c0.603-0.03,1.056-0.071,1.51-0.072c3.787-0.005,7.578,0.088,11.362-0.023
	c7.677-0.224,12.873,3.428,16.172,10.121c2.613,5.301,3.698,11.049,4.747,16.793c2.276,12.461,0.83,24.485-4.541,35.969
	c-1.058,2.263-2.395,4.46-3.954,6.407c-2.734,3.414-6.524,4.918-10.86,4.926c-15.339,0.028-30.677,0.016-46.015,0.019
	c-3.083,0.002-6.167,0-9.368,0c0,1.529,0,2.999,0,4.63c12.026,0,24.108,0,36.389,0c0,0.65,0,1.142,0,1.638
	c0,3.693-0.12,7.393,0.026,11.081c0.289,7.294-3.132,12.388-9.173,15.997c-5.512,3.292-11.635,4.787-17.874,5.826
	c-11.151,1.856-21.979,0.485-32.457-3.664c-3.413-1.353-6.512-3.266-9.082-5.948c-2.869-2.993-4.49-6.516-4.493-10.704
	c-0.01-11.785-0.091-23.568,0.02-35.353c0.097-10.247,8.405-18.306,18.645-18.313c11.785-0.009,23.569,0.002,35.354-0.004
	c13.181-0.008,23.454-10.186,23.586-23.399c0.047-4.769,0.008-9.54,0.008-14.309C166.815,93.974,166.815,93.47,166.815,92.857z
	 M139.462,187.868c-0.012,3.915,3.014,7.022,6.843,7.028c3.708,0.004,6.83-3.144,6.857-6.914c0.027-3.866-3.06-7.006-6.883-6.997
	C142.49,180.99,139.473,184.037,139.462,187.868z"/>
<path fill="#FFFFFF" d="M84.595,167.156c-5.591-0.168-11.054,0.114-16.383-0.604c-6.465-0.873-10.485-5.376-13.17-11.063
	c-2.624-5.56-3.577-11.578-4.463-17.586c-1.418-9.614-0.091-19.025,2.513-28.277c2.84-10.089,11.078-16.633,21.5-16.75
	c16.411-0.185,32.827-0.077,49.241-0.092c0.595,0,1.191,0,1.851,0c0-1.597,0-3.029,0-4.608c-12.097,0-24.182,0-36.335,0
	c-0.064-0.391-0.144-0.651-0.144-0.91c0.012-5.19-0.072-10.384,0.076-15.571c0.226-7.959,3.558-12.278,11.14-14.769
	c5.638-1.852,11.48-2.579,17.358-2.98c8.941-0.613,17.873-0.342,26.679,1.373c8.009,1.559,14.179,5.706,16.971,13.768
	c0.554,1.6,0.783,3.385,0.793,5.087c0.067,11.598,0.068,23.195,0.026,34.793c-0.039,10.597-8.083,18.62-18.682,18.652
	c-11.878,0.036-23.756,0.008-35.635,0.013c-13.028,0.005-23.3,10.258-23.333,23.298C84.583,156.209,84.595,161.491,84.595,167.156z
	 M112.007,71.947c0.023-3.88-3.042-7.04-6.844-7.055c-3.708-0.016-6.829,3.116-6.875,6.9c-0.047,3.844,3.07,7.042,6.86,7.041
	C108.911,78.83,111.984,75.745,112.007,71.947z"/>
<path fill="#FFFFFF" d="M257.09,160.475c0,14.375,0,28.537,0,42.851c-0.459-0.116-0.846-0.18-1.21-0.309
	c-3.254-1.154-6.49-2.363-9.763-3.456c-0.935-0.314-1.18-0.767-1.164-1.702c0.058-3.177,0.022-6.356,0.022-9.537
	c0-27.771,0.007-55.544-0.027-83.316c-0.001-1.18,0.248-2.132,1.166-2.82c2.605-1.953,5.079-4.158,7.899-5.735
	c7.513-4.201,15.782-5.676,24.289-5.765c12.256-0.128,20.806,5.771,25.466,16.899c5.751,13.739,6.414,27.832,0.657,41.729
	c-3.805,9.186-10.525,15.479-20.707,17.244c-7.532,1.306-14.688-0.077-21.507-3.405C260.545,162.34,258.924,161.436,257.09,160.475z
	 M257.098,128.372c0,7.48-0.015,14.961,0.03,22.442c0.003,0.547,0.273,1.341,0.684,1.598c4.341,2.718,8.93,4.839,14.037,5.73
	c8.524,1.491,15.799-2.325,19.257-10.258c0.667-1.532,1.231-3.139,1.616-4.762c1.954-8.258,1.81-16.596,0.706-24.942
	c-0.554-4.194-1.646-8.245-3.837-11.917c-2.212-3.708-5.33-6.333-9.638-7.071c-7.866-1.35-15.079,0.727-21.869,4.631
	c-0.763,0.438-1.013,1.064-1.008,1.968C257.114,113.316,257.098,120.844,257.098,128.372z"/>
<path fill="#FFFFFF" d="M342.696,203.131c-0.668-2.529-1.32-4.998-2.014-7.627c2.246-0.356,4.417-0.585,6.53-1.063
	c3.679-0.834,7.437-1.512,10.955-2.811c7.06-2.609,11.443-7.602,12.064-15.363c0.397-4.979,0.668-9.967,1.019-15.279
	c-0.889,0.346-1.394,0.525-1.886,0.733c-7.892,3.348-16.129,5-24.696,4.954c-7.604-0.041-13.86-3.072-18.828-8.768
	c-2.94-3.371-4.431-7.382-4.447-11.825c-0.057-16.741-0.034-33.483,0-50.225c0-0.428,0.356-1.116,0.705-1.242
	c3.601-1.296,7.233-2.504,10.859-3.729c0.121-0.04,0.267-0.005,0.545-0.005c0,0.567,0,1.118,0,1.668
	c0,16.086-0.02,32.173,0.026,48.26c0.005,1.902,0.131,3.861,0.602,5.692c1.737,6.767,6.56,10.203,13.117,11.448
	c7.698,1.461,14.558-0.957,21.1-4.795c1.459-0.855,1.983-1.796,1.976-3.519c-0.073-18.379-0.045-36.757-0.045-55.134
	c0-0.598,0-1.195,0-1.884c4.098,0,8.047,0,12.193,0c0,0.527,0,1.026,0,1.524c0,21.324,0.026,42.647-0.016,63.972
	c-0.014,6.919-0.347,13.814-1.529,20.669c-1.391,8.042-5.683,13.855-12.753,17.766C360.27,200.928,351.725,202.738,342.696,203.131z
	"/>
<path fill="#FFFFFF" d="M581.665,127.877c-0.385,9.474-2.467,18.291-8.068,26.073c-6.508,9.041-15.474,13.052-26.445,12.895
	c-13.114-0.187-22.52-6.474-27.973-18.151c-6.044-12.952-6.594-26.349-0.49-39.458c4.459-9.578,11.905-16.083,22.578-17.955
	c21.71-3.808,35.073,10.085,38.788,25.536C580.923,120.423,581.146,124.186,581.665,127.877z M527.703,127.754
	c0.166,2.469,0.237,4.951,0.514,7.407c0.618,5.477,1.988,10.741,4.875,15.508c2.144,3.534,4.975,6.287,8.989,7.636
	c8.754,2.944,17.811-0.719,21.959-8.932c0.691-1.369,1.285-2.81,1.729-4.276c2.359-7.813,2.729-15.812,1.888-23.869
	c-0.534-5.118-2.034-9.964-4.981-14.27c-3.404-4.976-8.198-7.661-14.147-7.86c-7.692-0.257-14.67,3.501-18.059,11.878
	C528.291,116.357,527.785,122.012,527.703,127.754z"/>
<path fill="#FFFFFF" d="M651.042,165.279c-4.143,0-8.061,0-12.197,0c0-0.637,0-1.225,0-1.811c0-15.572,0.032-31.145-0.034-46.718
	c-0.011-2.314-0.194-4.705-0.801-6.924c-1.708-6.282-7.171-10.464-13.889-11.045c-6.733-0.583-12.856,1.104-18.526,4.713
	c-0.92,0.586-1.18,1.229-1.178,2.268c0.029,19.22,0.021,38.44,0.021,57.661c0,0.554,0,1.109,0,1.785c-4.079,0-8.059,0-12.134,0
	c-0.022-0.494-0.062-0.95-0.062-1.406c-0.003-19.874,0.006-39.749-0.025-59.625c-0.001-1.002,0.321-1.584,1.128-2.17
	c8.171-5.926,17.137-9.836,27.239-10.972c7.291-0.821,14.418-0.493,20.958,3.252c6.25,3.579,9.548,8.923,9.519,16.301
	c-0.071,17.675-0.022,35.354-0.022,53.031C651.042,164.122,651.042,164.626,651.042,165.279z"/>
<path fill="#FFFFFF" d="M429.823,160.26c0,1.899,0,3.93,0,6.088c-6.395,0.393-12.608,0.195-18.16-3.388
	c-4.983-3.217-7.419-7.972-7.503-13.816c-0.124-8.602-0.046-17.206-0.049-25.811c-0.004-7.155-0.001-14.31-0.001-21.465
	c0-0.506,0-1.013,0-1.67c-2.79,0-5.477,0-8.26,0c0-2.6,0-5.045,0-7.661c2.723,0,5.407,0,8.203,0c0-6.835,0-13.504,0-20.306
	c4.037-1.44,8.013-2.858,12.171-4.341c0,8.265,0,16.371,0,24.642c4.604,0,9.067,0,13.605,0c0,2.579,0,4.99,0,7.555
	c-4.488,0-8.95,0-13.608,0c0,0.644,0,1.138,0,1.633c0,15.104-0.017,30.21,0.023,45.313c0.005,1.716,0.18,3.461,0.534,5.141
	c0.712,3.38,2.767,5.709,6.121,6.642C425.131,159.433,427.441,159.772,429.823,160.26z"/>
</svg>
