<?xml version="1.0" encoding="utf-8"?>
<!-- Generator: Adobe Illustrator 16.0.0, SVG Export Plug-In . SVG Version: 6.00 Build 0)  -->
<!DOCTYPE svg PUBLIC "-//W3C//DTD SVG 1.0//EN" "http://www.w3.org/TR/2001/REC-SVG-20010904/DTD/svg10.dtd">
<svg version="1.0" id="Layer_1" xmlns="http://www.w3.org/2000/svg" xmlns:xlink="http://www.w3.org/1999/xlink" x="0px" y="0px"
	 width="976.26px" height="256px" viewBox="-240.476 0 976.26 256" enable-background="new -240.476 0 976.26 256"
	 xml:space="preserve">
<g>
	<path fill="#FFFFFF" d="M419.557,0.18c0,27.488,0,54.976,0,82.862c0.896-0.557,1.519-0.916,2.109-1.317
		c12.292-8.346,25.806-12.594,40.721-12.286c17.229,0.355,31.465,13.373,33.271,30.573c0.286,2.713,0.431,5.454,0.433,8.18
		c0.03,25.751,0.021,51.503,0.021,77.258c0,0.899,0,1.805,0,2.89c-6.542,0-12.947,0-19.743,0c0-0.902,0-1.852,0-2.794
		c0-23.931,0.003-47.858-0.002-71.788c-0.002-5.345-0.562-10.596-2.53-15.634c-4.813-12.309-14.354-17.409-27.24-14.368
		c-9.703,2.289-18.08,7.349-26.125,12.991c-0.601,0.421-0.854,1.684-0.856,2.555c-0.051,15.42-0.035,30.843-0.035,46.263
		c0,13.371,0,26.74,0,40.109c0,0.829,0,1.658,0,2.668c-6.521,0-12.929,0-19.685,0c0-0.75,0-1.55,0-2.351
		c0-59.023,0.011-118.048-0.046-177.071c-0.002-1.935,0.573-2.731,2.423-3.286c5.647-1.693,11.227-3.619,16.83-5.454
		C419.254,0.18,419.403,0.18,419.557,0.18z"/>
	<path fill="#FFFFFF" d="M-50.731,70.804c0.979-0.049,1.715-0.116,2.452-0.117c6.152-0.008,12.31,0.143,18.456-0.037
		c12.469-0.364,20.91,5.568,26.268,16.44c4.245,8.61,6.007,17.947,7.711,27.278c3.697,20.241,1.348,39.772-7.375,58.425
		c-1.719,3.676-3.891,7.245-6.423,10.407c-4.441,5.546-10.598,7.989-17.641,8.001c-24.915,0.047-49.83,0.025-74.744,0.031
		c-5.008,0.002-10.016,0-15.217,0c0,2.485,0,4.871,0,7.52c19.535,0,39.159,0,59.108,0c0,1.057,0,1.855,0,2.66
		c0,6-0.195,12.009,0.042,17.999c0.469,11.849-5.088,20.122-14.9,25.985c-8.953,5.348-18.9,7.777-29.033,9.463
		c-18.113,3.017-35.7,0.789-52.72-5.951c-5.543-2.196-10.577-5.305-14.752-9.661c-4.66-4.862-7.293-10.584-7.299-17.388
		c-0.016-19.142-0.148-38.283,0.033-57.424c0.157-16.645,13.653-29.735,30.285-29.746c19.142-0.014,38.283,0.004,57.426-0.006
		c21.41-0.012,38.097-16.544,38.312-38.007c0.077-7.747,0.013-15.496,0.013-23.243C-50.731,72.618-50.731,71.8-50.731,70.804z
		 M-95.161,225.133c-0.019,6.36,4.895,11.407,11.115,11.417c6.024,0.007,11.095-5.106,11.139-11.231
		c0.044-6.28-4.97-11.379-11.181-11.366C-90.242,213.962-95.143,218.911-95.161,225.133z"/>
	<path fill="#FFFFFF" d="M-184.284,191.491c-9.081-0.273-17.955,0.185-26.611-0.981c-10.502-1.417-17.032-8.732-21.392-17.971
		c-4.263-9.03-5.81-18.807-7.25-28.564c-2.304-15.617-0.148-30.904,4.082-45.933c4.613-16.387,17.994-27.017,34.923-27.208
		c26.657-0.3,53.322-0.124,79.984-0.149c0.967-0.001,1.934,0,3.006,0c0-2.593,0-4.921,0-7.486c-19.649,0-39.279,0-59.021,0
		c-0.104-0.634-0.234-1.057-0.233-1.478c0.019-8.431-0.117-16.867,0.123-25.292c0.367-12.929,5.779-19.944,18.095-23.99
		c9.158-3.008,18.648-4.188,28.196-4.841c14.524-0.995,29.032-0.555,43.335,2.229c13.01,2.532,23.031,9.269,27.567,22.364
		c0.899,2.598,1.272,5.498,1.288,8.262c0.109,18.839,0.111,37.677,0.042,56.516c-0.063,17.213-13.131,30.244-30.345,30.297
		c-19.294,0.058-38.588,0.013-57.883,0.021c-21.161,0.008-37.847,16.662-37.901,37.844
		C-184.302,173.708-184.284,182.289-184.284,191.491z M-139.758,36.839c0.038-6.303-4.94-11.435-11.117-11.46
		c-6.022-0.026-11.092,5.062-11.166,11.208c-0.076,6.243,4.986,11.439,11.142,11.436C-144.787,48.02-139.795,43.009-139.758,36.839z
		"/>
	<path fill="#FFFFFF" d="M95.905,180.637c0,23.35,0,46.354,0,69.604c-0.746-0.188-1.374-0.293-1.966-0.502
		c-5.286-1.875-10.542-3.838-15.859-5.614c-1.518-0.511-1.917-1.245-1.89-2.763c0.094-5.162,0.036-10.327,0.036-15.492
		c0-45.109,0.012-90.221-0.045-135.333c-0.002-1.917,0.403-3.463,1.894-4.58c4.232-3.172,8.25-6.754,12.831-9.316
		c12.203-6.823,25.635-9.22,39.453-9.364c19.908-0.208,33.796,9.373,41.364,27.45c9.343,22.317,10.418,45.208,1.067,67.781
		c-6.18,14.92-17.096,25.142-33.635,28.009c-12.235,2.121-23.858-0.125-34.934-5.531C101.517,183.667,98.885,182.198,95.905,180.637
		z M95.918,128.492c0,12.15-0.024,24.302,0.048,36.453c0.005,0.89,0.444,2.179,1.111,2.597c7.051,4.413,14.505,7.858,22.801,9.308
		c13.846,2.422,25.663-3.777,31.279-16.662c1.084-2.489,2.001-5.098,2.625-7.736c3.173-13.413,2.939-26.956,1.146-40.514
		c-0.9-6.813-2.674-13.392-6.233-19.358c-3.593-6.022-8.657-10.286-15.655-11.486c-12.777-2.192-24.493,1.18-35.522,7.522
		c-1.239,0.712-1.645,1.729-1.637,3.197C95.945,104.037,95.918,116.264,95.918,128.492z"/>
	<path fill="#FFFFFF" d="M234.958,249.925c-1.085-4.108-2.145-8.118-3.271-12.388c3.649-0.579,7.174-0.95,10.607-1.729
		c5.975-1.354,12.079-2.455,17.794-4.564c11.467-4.238,18.587-12.348,19.596-24.956c0.645-8.087,1.086-16.188,1.654-24.817
		c-1.443,0.561-2.263,0.852-3.063,1.191c-12.818,5.438-26.199,8.121-40.114,8.047c-12.352-0.066-22.513-4.991-30.583-14.242
		c-4.775-5.476-7.197-11.99-7.223-19.208c-0.093-27.192-0.054-54.387,0-81.581c0.001-0.695,0.579-1.813,1.146-2.017
		c5.848-2.106,11.748-4.068,17.638-6.058c0.196-0.065,0.433-0.008,0.885-0.008c0,0.921,0,1.815,0,2.709
		c0,26.13-0.032,52.26,0.042,78.391c0.009,3.089,0.213,6.272,0.977,9.246c2.822,10.99,10.655,16.572,21.306,18.595
		c12.505,2.373,23.647-1.554,34.274-7.788c2.369-1.389,3.221-2.917,3.209-5.715c-0.119-29.854-0.073-59.705-0.073-89.556
		c0-0.971,0-1.941,0-3.061c6.655,0,13.071,0,19.806,0c0,0.857,0,1.667,0,2.476c0,34.637,0.043,69.274-0.026,103.911
		c-0.022,11.239-0.562,22.44-2.485,33.573c-2.258,13.063-9.23,22.507-20.713,28.858
		C263.503,246.346,249.623,249.287,234.958,249.925z"/>
	<path fill="#FFFFFF" d="M623.121,127.689c-0.625,15.388-4.007,29.709-13.104,42.35c-10.572,14.686-25.135,21.201-42.956,20.945
		c-21.302-0.303-36.58-10.514-45.437-29.484c-9.817-21.037-10.711-42.798-0.797-64.093c7.243-15.558,19.338-26.123,36.674-29.164
		c35.265-6.185,56.972,16.381,63.005,41.478C621.916,115.581,622.277,121.692,623.121,127.689z M535.47,127.488
		c0.27,4.011,0.386,8.042,0.834,12.032c1.004,8.896,3.229,17.447,7.92,25.189c3.48,5.742,8.079,10.213,14.6,12.404
		c14.22,4.781,28.93-1.168,35.669-14.508c1.123-2.224,2.087-4.564,2.808-6.946c3.833-12.69,4.433-25.685,3.066-38.772
		c-0.867-8.313-3.304-16.185-8.091-23.179c-5.531-8.083-13.317-12.444-22.981-12.768c-12.494-0.417-23.829,5.687-29.333,19.294
		C536.425,108.976,535.604,118.162,535.47,127.488z"/>
	<path fill="#FFFFFF" d="M735.813,188.441c-6.729,0-13.092,0-19.813,0c0-1.034,0-1.988,0-2.941c0-25.294,0.053-50.589-0.056-75.884
		c-0.017-3.759-0.315-7.643-1.299-11.248c-2.775-10.203-11.649-16.997-22.56-17.941c-10.938-0.946-20.884,1.794-30.093,7.655
		c-1.495,0.953-1.916,1.996-1.913,3.684c0.047,31.22,0.034,62.439,0.034,93.66c0,0.899,0,1.803,0,2.9c-6.625,0-13.089,0-19.709,0
		c-0.036-0.803-0.099-1.543-0.099-2.285c-0.005-32.281,0.009-64.565-0.041-96.849c-0.003-1.628,0.52-2.574,1.832-3.526
		c13.272-9.625,27.835-15.977,44.245-17.822c11.843-1.333,23.42-0.8,34.042,5.282c10.152,5.813,15.51,14.494,15.462,26.478
		c-0.116,28.711-0.036,57.427-0.036,86.139C735.813,186.563,735.813,187.381,735.813,188.441z"/>
	<path fill="#FFFFFF" d="M376.48,180.288c0,3.086,0,6.384,0,9.89c-10.385,0.637-20.479,0.317-29.498-5.503
		c-8.094-5.226-12.049-12.948-12.186-22.442c-0.201-13.973-0.074-27.95-0.08-41.927c-0.006-11.622-0.001-23.244-0.001-34.866
		c0-0.823,0-1.646,0-2.714c-4.532,0-8.896,0-13.416,0c0-4.222,0-8.195,0-12.443c4.421,0,8.782,0,13.324,0
		c0-11.103,0-21.936,0-32.983c6.558-2.339,13.015-4.643,19.769-7.052c0,13.426,0,26.592,0,40.027c7.479,0,14.729,0,22.1,0
		c0,4.189,0,8.105,0,12.271c-7.291,0-14.539,0-22.105,0c0,1.046,0,1.849,0,2.652c0,24.535-0.027,49.071,0.039,73.605
		c0.008,2.787,0.291,5.622,0.867,8.349c1.156,5.49,4.494,9.274,9.943,10.789C368.859,178.945,372.611,179.497,376.48,180.288z"/>
</g>
</svg>
