<?xml version="1.0" encoding="utf-8"?>
<!-- Generator: Adobe Illustrator 16.0.0, SVG Export Plug-In . SVG Version: 6.00 Build 0)  -->
<!DOCTYPE svg PUBLIC "-//W3C//DTD SVG 1.0//EN" "http://www.w3.org/TR/2001/REC-SVG-20010904/DTD/svg10.dtd">
<svg version="1.0" id="Layer_1" xmlns="http://www.w3.org/2000/svg" xmlns:xlink="http://www.w3.org/1999/xlink" x="0px" y="0px"
	 width="1012.594px" height="256px" viewBox="96.394 0 1012.594 256" enable-background="new 96.394 0 1012.594 256"
	 xml:space="preserve">
<g>
	<path fill="#FFFFFF" d="M171.788,79.871c-0.738-3.45-1.486-6.713-2.129-9.997c-1.979-10.107-3.023-20.304-2.585-30.612
		c0.312-7.347,1.418-14.562,4.24-21.418c1.839-4.471,4.349-8.493,8.04-11.702c3.936-3.421,8.56-5.183,13.697-5.702
		c6.503-0.658,12.744,0.595,18.859,2.673c8.144,2.768,15.581,6.913,22.675,11.71c7.006,4.737,13.499,10.114,19.665,15.894
		c0.33,0.309,0.67,0.606,1.091,0.986c0.479-0.445,0.923-0.847,1.357-1.259c8.434-8.003,17.468-15.224,27.575-21.029
		c6.637-3.812,13.571-6.917,21.104-8.513c4.719-1,9.481-1.249,14.232-0.333c6.695,1.291,11.768,5.04,15.554,10.627
		c3.214,4.744,5.099,10.035,6.297,15.586c1.584,7.345,2.01,14.786,1.712,22.283c-0.406,10.241-1.947,20.317-4.353,30.269
		c-0.046,0.189-0.038,0.392-0.067,0.719c0.68,0.216,1.341,0.438,2.008,0.637c10.929,3.279,21.498,7.424,31.404,13.141
		c6.545,3.777,12.643,8.146,17.794,13.733c2.493,2.704,4.646,5.648,6.298,8.946c3.767,7.519,3.726,15.047,0.042,22.574
		c-2.448,5.005-5.984,9.178-10.063,12.914c-6.692,6.132-14.365,10.776-22.485,14.735c-7.273,3.543-14.815,6.397-22.541,8.783
		c-0.58,0.18-1.154,0.375-1.815,0.59c0.033,0.369,0.019,0.717,0.098,1.039c2.088,8.559,3.528,17.225,4.026,26.02
		c0.563,9.938,0.2,19.82-2.626,29.464c-1.631,5.565-4.009,10.752-7.921,15.129c-4.222,4.724-9.519,7.302-15.787,8.024
		c-6.841,0.789-13.351-0.647-19.717-2.92c-8.391-2.992-15.991-7.478-23.225-12.615c-6.103-4.337-11.788-9.176-17.23-14.309
		c-0.401-0.377-0.816-0.742-1.297-1.179c-1.736,1.587-3.396,3.14-5.095,4.648c-8.543,7.594-17.711,14.291-27.966,19.418
		c-5.978,2.987-12.184,5.339-18.798,6.478c-5.581,0.961-11.131,0.982-16.571-0.841c-5.8-1.942-10.073-5.772-13.262-10.899
		c-2.995-4.813-4.701-10.111-5.766-15.638c-1.56-8.097-1.629-16.261-1.042-24.45c0.62-8.641,2.183-17.123,4.184-25.535
		c0.08-0.336,0.131-0.681,0.216-1.125c-0.771-0.239-1.485-0.465-2.203-0.685c-11.564-3.513-22.661-8.094-32.943-14.512
		c-6.458-4.031-12.405-8.685-17.288-14.586c-3.107-3.759-5.582-7.872-6.95-12.589c-1.916-6.604-0.901-12.867,2.276-18.858
		c2.633-4.966,6.312-9.08,10.52-12.745c7.039-6.13,15.049-10.699,23.498-14.555c7.035-3.211,14.314-5.752,21.725-7.934
		C170.731,80.211,171.208,80.054,171.788,79.871z M253.71,174.507c7.422-0.204,13.723-0.356,20.021-0.562
		c2.234-0.072,4.462-0.297,6.696-0.396c0.855-0.037,1.363-0.415,1.821-1.113c9.15-13.951,17.511-28.354,24.888-43.321
		c0.427-0.864,0.472-1.524,0.006-2.395c-2.426-4.52-4.728-9.108-7.179-13.614c-5.467-10.048-11.386-19.825-17.737-29.341
		c-0.53-0.794-1.107-1.203-2.082-1.24c-6.653-0.252-13.302-0.639-19.956-0.808c-9.966-0.252-19.92,0.205-29.868,0.79
		c-1.05,0.062-1.638,0.509-2.19,1.329c-9.265,13.763-17.507,28.112-24.79,43.017c-0.415,0.847-0.453,1.529-0.025,2.403
		c7.34,14.993,15.685,29.4,25.036,43.229c0.536,0.791,1.112,1.175,2.093,1.205C238.572,173.947,246.698,174.255,253.71,174.507z
		 M175.18,91.969c-0.19-0.04-0.29-0.087-0.381-0.075c-0.251,0.034-0.504,0.074-0.746,0.145c-9.216,2.722-18.219,5.987-26.718,10.526
		c-6.164,3.292-11.986,7.069-16.917,12.084c-2.255,2.294-4.208,4.813-5.578,7.754c-1.618,3.474-1.663,6.956-0.154,10.469
		c0.991,2.305,2.354,4.379,3.948,6.306c3.531,4.268,7.783,7.719,12.384,10.746c10.137,6.674,21.215,11.26,32.814,14.67
		c0.368,0.108,0.751,0.166,1.157,0.254c0.156-0.451,0.28-0.779,0.385-1.115c3.651-11.639,8.069-22.98,13.138-34.07
		c0.51-1.116,0.525-2.003,0.01-3.125c-4.98-10.851-9.305-21.959-12.902-33.348C175.484,92.76,175.316,92.344,175.18,91.969z
		 M247.036,215.924c-0.266-0.316-0.457-0.55-0.652-0.777c-4.044-4.691-8.202-9.295-12.1-14.104
		c-3.835-4.729-7.414-9.671-11.087-14.533c-0.504-0.668-0.966-1.159-1.928-1.239c-3.895-0.322-7.784-0.734-11.669-1.168
		c-8.076-0.899-16.089-2.199-24.038-3.891c-0.625-0.133-1.259-0.229-1.909-0.345c-0.098,0.327-0.165,0.517-0.209,0.71
		c-0.446,1.928-0.916,3.851-1.327,5.785c-2.037,9.568-3.201,19.229-2.891,29.031c0.143,4.528,0.671,9.01,1.834,13.399
		c0.902,3.407,2.157,6.662,4.254,9.539c1.973,2.707,4.555,4.431,7.894,4.989c3.048,0.51,6.075,0.342,9.087-0.229
		c6.046-1.143,11.65-3.49,17.04-6.384c9.735-5.224,18.372-11.942,26.398-19.485C246.166,216.814,246.578,216.382,247.036,215.924z
		 M264.236,216c0.378,0.301,0.704,0.543,1.011,0.807c4.202,3.605,8.292,7.354,12.627,10.791c6.269,4.969,13.018,9.213,20.4,12.375
		c4.648,1.991,9.425,3.471,14.529,3.713c5.752,0.271,10.207-1.875,13.073-6.957c0.845-1.498,1.609-3.063,2.228-4.666
		c2.293-5.953,3.075-12.196,3.29-18.52c0.378-11.148-1.179-22.093-3.699-32.922c-0.101-0.434-0.27-0.852-0.425-1.331
		c-0.613,0.124-1.154,0.241-1.698,0.342c-5.839,1.084-11.658,2.308-17.526,3.207c-5.92,0.906-11.888,1.517-17.842,2.193
		c-1.241,0.141-2.081,0.545-2.834,1.637c-6.615,9.589-13.742,18.783-21.517,27.466C265.348,214.698,264.86,215.277,264.236,216z
		 M246.643,40.554c-0.334-0.354-0.625-0.698-0.953-1.004c-5.796-5.429-11.905-10.474-18.513-14.893
		c-6.1-4.08-12.476-7.634-19.463-9.989c-4.268-1.438-8.619-2.369-13.163-2.027c-3.749,0.282-6.827,1.81-9.093,4.874
		c-1.744,2.359-2.912,4.995-3.782,7.774c-1.669,5.333-2.284,10.831-2.395,16.384c-0.209,10.474,1.204,20.774,3.509,30.969
		c0.309,1.368,0.646,2.729,0.985,4.161c0.638-0.117,1.079-0.198,1.52-0.278c6.494-1.18,12.969-2.473,19.487-3.502
		c5.164-0.816,10.375-1.351,15.576-1.913c1.324-0.143,2.165-0.65,2.936-1.737c5.885-8.297,12.183-16.272,18.936-23.883
		C243.681,43.854,245.142,42.232,246.643,40.554z M263.959,40.457c0.329,0.379,0.558,0.646,0.788,0.911
		c2.867,3.295,5.866,6.487,8.571,9.91c4.847,6.135,9.527,12.403,14.248,18.638c0.491,0.648,0.971,1.04,1.828,1.111
		c2.276,0.191,4.542,0.493,6.813,0.75c8.176,0.923,16.292,2.225,24.351,3.885c2.026,0.417,4.05,0.847,6.038,1.264
		c0.113-0.17,0.189-0.246,0.219-0.337c0.095-0.289,0.189-0.58,0.256-0.876c2.138-9.376,3.646-18.838,3.838-28.478
		c0.133-6.676-0.227-13.304-1.933-19.797c-0.948-3.606-2.264-7.054-4.516-10.083c-1.967-2.646-4.505-4.345-7.809-4.836
		c-2.696-0.401-5.369-0.233-8.028,0.275c-5.131,0.979-9.916,2.92-14.541,5.29c-8.735,4.477-16.56,10.263-23.914,16.713
		C268.073,36.633,266.045,38.55,263.959,40.457z M335.428,91.931c-0.169,0.468-0.299,0.791-0.404,1.121
		c-3.644,11.433-8.038,22.574-13.086,33.456c-0.451,0.972-0.446,1.721,0.012,2.686c5.178,10.935,9.762,22.106,13.485,33.625
		c0.15,0.466,0.353,0.912,0.515,1.326c0.227,0,0.332,0.024,0.423-0.002c9.84-2.985,19.381-6.694,28.339-11.797
		c5.629-3.207,10.926-6.869,15.426-11.582c2.187-2.291,4.079-4.791,5.405-7.695c1.672-3.659,1.653-7.297-0.201-10.858
		c-0.771-1.479-1.674-2.913-2.689-4.234c-3.13-4.073-7.061-7.29-11.292-10.145C360.378,100.424,348.209,95.694,335.428,91.931z
		 M323.976,167.386c-2.742-8.635-5.941-16.87-9.525-24.997c-5.688,9.895-11.294,19.644-16.975,29.521
		C306.332,170.876,315.061,169.396,323.976,167.386z M186.963,167.938c8.825,1.92,17.465,3.248,26.406,4.239
		c-2.097-3.399-4.097-6.565-6.017-9.778c-1.926-3.224-3.804-6.478-5.644-9.75c-1.822-3.24-3.571-6.522-5.481-10.024
		C192.709,151.072,189.6,159.309,186.963,167.938z M255.661,207.063c5.996-6.582,11.477-13.397,16.725-20.543
		c-11.346,0-22.475,0-33.902,0C243.962,193.743,249.58,200.512,255.661,207.063z M255.43,49.426
		c-2.887,2.356-16.22,18.479-16.781,20.295c3.725-0.107,7.427-0.254,11.13-0.307c3.706-0.053,7.414-0.008,11.121-0.011
		c3.667-0.002,7.33,0.356,11.289,0.26C266.801,62.474,261.313,55.786,255.43,49.426z M314.328,113.353
		c3.428-7.967,6.465-16.054,9.091-24.481c-8.641-2.018-17.224-3.446-25.901-4.566C303.136,94.013,308.697,103.622,314.328,113.353z
		 M213.167,84.237c-8.972,1.151-17.501,2.539-26.042,4.5c2.624,8.45,5.617,16.552,9.129,24.835
		C201.504,103.471,207,93.892,213.167,84.237z"/>
	<path fill="#FFFFFF" d="M590.407,217.88c-2.249,0-3.857,0-5.467,0c-6.319,0-12.639-0.067-18.954,0.041
		c-1.825,0.031-2.891-0.531-3.884-2.099c-14.529-22.891-29.144-45.726-43.668-68.62c-1.003-1.58-2.078-2.104-3.894-2.089
		c-10.479,0.079-20.958,0.039-31.438,0.039c-0.828,0-1.654,0-2.76,0c0,24.339,0,48.402,0,72.596c-7.643,0-15.003,0-22.345,0
		c-0.45-1.771-0.611-179.014-0.169-182.702c0.549-0.059,1.136-0.176,1.721-0.176c24.657,0.008,49.313-0.073,73.969,0.085
		c11.22,0.073,21.807,2.896,31.354,8.963c13.147,8.356,20.587,20.505,23.073,35.73c1.521,9.314,1.188,18.616-1.601,27.681
		c-5.651,18.362-18.191,29.515-36.555,34.418c-1.411,0.376-2.852,0.645-4.291,0.906c-1.341,0.244-2.697,0.413-4.417,0.669
		C557.515,168.161,573.804,192.782,590.407,217.88z M480.464,125.01c0.728,0.046,1.327,0.118,1.924,0.118
		c15.328,0.005,30.655,0.06,45.981-0.045c3.211-0.021,6.479-0.349,9.611-1.034c9.527-2.082,17.137-7.081,22.229-15.553
		c4.253-7.077,5.448-14.827,4.612-22.91c-0.755-7.316-3.443-13.867-8.541-19.287c-6.813-7.245-15.447-10.725-25.167-10.921
		c-16.322-0.33-32.654-0.144-48.983-0.166c-0.518,0-1.036,0.091-1.667,0.151C480.464,78.563,480.464,101.644,480.464,125.01z"/>
	<path fill="#FFFFFF" d="M718.53,187.219c3.263,4.445,6.435,8.766,9.692,13.201c-0.442,0.498-0.805,0.969-1.235,1.369
		c-10.499,9.776-22.868,15.737-36.988,18.123c-11.151,1.882-22.282,1.822-33.23-1.122c-22.09-5.943-37.186-19.775-44.579-41.393
		c-6.362-18.6-5.979-37.327,1.746-55.537c7.435-17.53,19.955-30.226,38.191-36.222c20.482-6.733,40.188-4.681,58.128,7.929
		c10.34,7.267,17.066,17.413,21.472,29.146c4.178,11.125,5.502,22.694,5.183,34.502c-0.01,0.291-0.107,0.579-0.208,1.095
		c-35.523,0-71.002,0-106.819,0c0.247,2.149,0.371,4.042,0.693,5.9c1.889,10.862,6.48,20.334,14.605,27.941
		c6.981,6.535,15.317,10.283,24.731,11.457c15.078,1.881,28.905-1.602,41.344-10.36c2.009-1.414,3.818-3.112,5.715-4.684
		C717.431,188.185,717.876,187.784,718.53,187.219z M716.792,142.816c-0.437-3.156-0.662-5.997-1.241-8.765
		c-2.015-9.601-6.33-18-13.698-24.605c-8.328-7.467-18.303-10.451-29.343-10.34c-11.746,0.117-21.815,4.136-29.91,12.771
		c-6.279,6.699-10.064,14.687-11.967,23.595c-0.506,2.367-1.014,4.777-0.822,7.343C658.731,142.816,687.515,142.816,716.792,142.816
		z"/>
	<path fill="#FFFFFF" d="M852.952,150.69c0-2.841,0.007-5.687-0.002-8.527c-0.013-5.392,0.125-10.792-0.093-16.176
		c-0.287-7.09-3.077-13.122-8.455-17.853c-4.27-3.76-9.3-6.064-14.838-7.064c-18.782-3.392-35.063,1.45-48.558,15.121
		c-0.64,0.649-1.153,1.423-1.961,2.429c-3.419-5.066-6.541-9.694-9.73-14.42c0.505-0.559,0.933-1.077,1.408-1.549
		c12.226-12.186,26.942-18.892,44.163-20.21c8.902-0.682,17.696-0.229,26.365,1.972c7.112,1.805,13.648,4.783,19.184,9.7
		c8.107,7.204,11.847,16.509,12.813,27.083c0.26,2.833,0.29,5.694,0.293,8.541c0.019,28.352,0.012,56.703,0.012,85.058
		c0,0.98,0,1.961,0,3.054c-6.967,0-13.629,0-20.555,0c0-4.828,0-9.554,0-14.793c-0.816,0.726-1.268,1.083-1.668,1.491
		c-8.619,8.771-19.139,13.801-31.192,15.769c-9.179,1.496-18.263,1.293-27.146-1.783c-10.484-3.626-18.928-9.855-24.563-19.557
		c-3.726-6.411-5.348-13.422-5.456-20.776c-0.128-8.471,1.514-16.543,5.953-23.89c5.434-8.991,13.394-14.95,23.305-17.865
		c17.883-5.261,35.056-3.319,51.003,6.665c2.842,1.778,5.246,4.259,7.841,6.43c0.508,0.424,0.962,0.908,1.444,1.364
		C852.663,150.835,852.806,150.762,852.952,150.69z M852.952,177.326c0-3.617-0.046-7.238,0.023-10.854
		c0.027-1.32-0.272-2.423-1.229-3.318c-2.13-1.994-4.104-4.199-6.434-5.927c-7.185-5.329-15.436-7.857-24.275-8.521
		c-6.751-0.506-13.369,0.107-19.697,2.768c-12.73,5.352-19.497,17.675-16.959,31.207c2.124,11.339,9.186,18.485,19.91,21.819
		c12.521,3.891,24.653,2.027,36.209-3.895c4.432-2.271,8.211-5.406,11.371-9.281c0.771-0.946,1.125-1.909,1.104-3.143
		C852.908,184.564,852.952,180.945,852.952,177.326z"/>
	<path fill="#FFFFFF" d="M1008.339,185.561c4.558,4.194,9.012,8.295,13.586,12.505c-0.517,0.717-0.922,1.349-1.396,1.926
		c-9.431,11.546-21.466,18.434-36.292,20.446c-13.27,1.802-26.157,0.561-38.424-4.949c-16.467-7.395-27.625-19.914-33.708-36.759
		c-6.831-18.915-6.786-38.012,0.886-56.646c9.057-21.995,25.593-35.15,49.142-39.083c11.572-1.933,23.032-1.165,34.178,2.738
		c10.506,3.679,18.765,10.374,25.668,19.375c-4.521,4.075-9.007,8.116-13.611,12.266c-0.544-0.628-1.002-1.119-1.418-1.642
		c-7.875-9.902-18.143-14.927-30.785-15.23c-13.563-0.326-25.322,3.8-34.594,13.973c-6.177,6.776-9.833,14.854-11.572,23.799
		c-2.405,12.372-1.77,24.563,2.962,36.326c4.689,11.658,12.529,20.507,24.466,25.018c12.611,4.763,25.165,4.621,37.278-1.878
		c4.747-2.547,8.628-6.164,12.037-10.305C1007.218,186.857,1007.716,186.292,1008.339,185.561z"/>
	<path fill="#FFFFFF" d="M1055.15,103.5c-7.424,0-14.493,0-21.51,0c-0.523-1.715-0.675-14.345-0.236-18.03c7.093,0,14.22,0,21.668,0
		c0.159-6.184,0.054-12.151,0.072-18.114c0.019-5.921,0.005-11.842,0.005-17.708c1.832-0.51,17.182-0.663,20.871-0.225
		c0,11.862,0,23.76,0,35.932c9.07,0,17.881,0,26.818,0c0,6.091,0,11.909,0,18.038c-2.922,0.106-5.82,0.04-8.711,0.05
		c-3.006,0.012-6.01,0.002-9.014,0.002c-2.908,0-5.815,0-8.89,0c-0.052,0.984-0.126,1.731-0.126,2.478
		c-0.006,26.345-0.004,52.693-0.006,79.04c0,2.937,0.166,5.848,1.106,8.668c2.299,6.879,7.728,10.142,14.905,8.966
		c3.805-0.625,7.25-2.021,10.174-4.59c0.275-0.244,0.602-0.431,1.031-0.733c1.863,4.788,3.648,9.449,5.496,14.083
		c0.424,1.067,0.078,1.699-0.719,2.379c-3.4,2.901-7.281,4.908-11.576,6.03c-7.047,1.84-14.176,2.041-21.27,0.34
		c-9.592-2.3-15.727-8.287-18.49-17.778c-1.332-4.571-1.588-9.249-1.592-13.951c-0.019-27.194-0.01-54.386-0.01-81.582
		C1055.15,105.8,1055.15,104.807,1055.15,103.5z"/>
	<path fill="#FFFFFF" d="M280.861,127.796c-0.006,14.126-11.498,25.688-25.549,25.706c-14.281,0.016-25.837-11.508-25.82-25.747
		c0.017-14.191,11.543-25.719,25.705-25.708C269.358,102.059,280.869,113.605,280.861,127.796z"/>
</g>
</svg>
