<?xml version="1.0" encoding="utf-8"?>
<!-- Generator: Adobe Illustrator 16.0.0, SVG Export Plug-In . SVG Version: 6.00 Build 0)  -->
<!DOCTYPE svg PUBLIC "-//W3C//DTD SVG 1.1//EN" "http://www.w3.org/Graphics/SVG/1.1/DTD/svg11.dtd">
<svg version="1.1" id="Layer_1" xmlns="http://www.w3.org/2000/svg" xmlns:xlink="http://www.w3.org/1999/xlink" x="0px" y="0px"
	 width="700.084px" height="256px" viewBox="0 0 700.084 256" enable-background="new 0 0 700.084 256" xml:space="preserve">
<rect x="-0.013" y="1.933" fill="#1A202C" width="700.215" height="254.067"/>
<path fill="#FFFFFF" d="M86.411,100.979c-0.444-2.076-0.894-4.038-1.281-6.014c-1.19-6.08-1.818-12.214-1.555-18.416
	c0.188-4.42,0.853-8.76,2.55-12.885c1.106-2.689,2.617-5.109,4.837-7.04c2.368-2.058,5.149-3.118,8.24-3.431
	c3.913-0.396,7.667,0.358,11.346,1.608c4.899,1.665,9.373,4.159,13.641,7.044c4.215,2.85,8.121,6.084,11.83,9.562
	c0.199,0.186,0.403,0.365,0.656,0.593c0.288-0.268,0.556-0.51,0.817-0.757c5.073-4.814,10.508-9.159,16.588-12.651
	c3.993-2.293,8.165-4.161,12.696-5.121c2.839-0.602,5.704-0.751,8.562-0.201c4.027,0.777,7.079,3.032,9.357,6.393
	c1.934,2.854,3.067,6.037,3.788,9.376c0.953,4.418,1.209,8.895,1.03,13.405c-0.244,6.161-1.171,12.222-2.618,18.209
	c-0.028,0.113-0.023,0.236-0.041,0.432c0.409,0.13,0.807,0.264,1.208,0.383c6.575,1.973,12.933,4.466,18.893,7.906
	c3.938,2.272,7.605,4.9,10.705,8.261c1.5,1.627,2.795,3.398,3.789,5.382c2.267,4.523,2.242,9.052,0.025,13.58
	c-1.473,3.011-3.6,5.521-6.053,7.77c-4.026,3.688-8.642,6.482-13.527,8.863c-4.376,2.132-8.913,3.849-13.561,5.284
	c-0.349,0.108-0.694,0.226-1.092,0.354c0.02,0.223,0.012,0.432,0.06,0.625c1.256,5.149,2.122,10.363,2.421,15.654
	c0.339,5.979,0.121,11.923-1.58,17.725c-0.981,3.348-2.412,6.469-4.765,9.102c-2.54,2.842-5.726,4.394-9.497,4.827
	c-4.116,0.475-8.032-0.39-11.861-1.757c-5.048-1.8-9.62-4.499-13.972-7.589c-3.672-2.609-7.092-5.52-10.366-8.608
	c-0.241-0.227-0.491-0.446-0.78-0.709c-1.044,0.955-2.043,1.889-3.065,2.797c-5.139,4.567-10.654,8.597-16.824,11.681
	c-3.596,1.798-7.33,3.212-11.308,3.897c-3.358,0.578-6.696,0.591-9.969-0.506c-3.49-1.169-6.06-3.473-7.979-6.558
	c-1.802-2.895-2.828-6.082-3.469-9.407c-0.938-4.87-0.98-9.782-0.627-14.709c0.373-5.197,1.313-10.301,2.517-15.361
	c0.048-0.202,0.079-0.409,0.13-0.677c-0.464-0.144-0.894-0.279-1.325-0.412c-6.957-2.113-13.632-4.869-19.818-8.729
	c-3.885-2.426-7.462-5.225-10.4-8.774c-1.869-2.262-3.358-4.736-4.181-7.573c-1.152-3.974-0.542-7.741,1.369-11.345
	c1.584-2.988,3.797-5.462,6.329-7.667c4.235-3.688,9.054-6.436,14.136-8.756c4.232-1.932,8.611-3.46,13.069-4.773
	C85.775,101.184,86.062,101.089,86.411,100.979z M135.694,157.911c4.465-0.123,8.256-0.215,12.044-0.338
	c1.344-0.044,2.684-0.179,4.028-0.239c0.514-0.021,0.82-0.249,1.095-0.669c5.504-8.394,10.534-17.058,14.972-26.062
	c0.257-0.52,0.284-0.917,0.003-1.44c-1.459-2.719-2.844-5.479-4.318-8.19c-3.289-6.044-6.85-11.926-10.67-17.651
	c-0.318-0.478-0.666-0.724-1.252-0.746c-4.002-0.152-8.002-0.384-12.005-0.486c-5.995-0.151-11.983,0.124-17.968,0.476
	c-0.632,0.037-0.985,0.306-1.318,0.799c-5.573,8.28-10.532,16.912-14.913,25.878c-0.25,0.51-0.272,0.92-0.015,1.446
	c4.416,9.02,9.436,17.687,15.062,26.006c0.322,0.476,0.669,0.707,1.259,0.725C126.587,157.574,131.476,157.759,135.694,157.911z
	 M88.452,108.257c-0.114-0.023-0.175-0.052-0.229-0.045c-0.151,0.021-0.303,0.044-0.449,0.087
	c-5.544,1.637-10.96,3.602-16.073,6.332c-3.708,1.98-7.21,4.252-10.177,7.27c-1.356,1.38-2.531,2.896-3.355,4.665
	c-0.973,2.091-1,4.186-0.093,6.299c0.596,1.386,1.417,2.634,2.375,3.793c2.125,2.567,4.683,4.644,7.45,6.465
	c6.098,4.015,12.763,6.773,19.741,8.825c0.221,0.065,0.452,0.1,0.696,0.152c0.094-0.271,0.168-0.469,0.231-0.671
	c2.197-7.001,4.854-13.824,7.904-20.495c0.307-0.672,0.316-1.205,0.006-1.881c-2.996-6.527-5.598-13.209-7.761-20.061
	C88.634,108.733,88.533,108.482,88.452,108.257z M131.679,182.826c-0.16-0.19-0.275-0.33-0.393-0.467
	c-2.433-2.822-4.934-5.592-7.279-8.485c-2.307-2.844-4.46-5.817-6.67-8.742c-0.303-0.402-0.581-0.697-1.16-0.745
	c-2.343-0.194-4.683-0.442-7.02-0.703c-4.859-0.541-9.679-1.322-14.461-2.341c-0.376-0.08-0.757-0.138-1.149-0.207
	c-0.059,0.196-0.099,0.311-0.125,0.427c-0.268,1.16-0.551,2.316-0.798,3.479c-1.225,5.757-1.926,11.568-1.739,17.465
	c0.086,2.725,0.404,5.42,1.104,8.061c0.542,2.05,1.297,4.008,2.559,5.739c1.187,1.628,2.74,2.665,4.749,3.001
	c1.833,0.307,3.655,0.206,5.466-0.138c3.637-0.688,7.009-2.1,10.251-3.841c5.856-3.143,11.053-7.184,15.881-11.721
	C131.156,183.362,131.403,183.103,131.679,182.826z M142.026,182.872c0.228,0.182,0.424,0.327,0.608,0.485
	c2.528,2.169,4.988,4.425,7.596,6.492c3.771,2.989,7.832,5.542,12.272,7.444c2.796,1.198,5.67,2.088,8.74,2.233
	c3.46,0.163,6.141-1.128,7.865-4.185c0.508-0.901,0.968-1.843,1.34-2.808c1.379-3.581,1.85-7.336,1.979-11.141
	c0.228-6.707-0.709-13.291-2.225-19.806c-0.061-0.261-0.163-0.512-0.256-0.801c-0.368,0.075-0.694,0.146-1.021,0.206
	c-3.513,0.651-7.014,1.388-10.543,1.929c-3.562,0.546-7.152,0.913-10.733,1.319c-0.747,0.085-1.252,0.328-1.705,0.985
	c-3.979,5.769-8.267,11.3-12.944,16.522C142.695,182.089,142.401,182.438,142.026,182.872z M131.442,77.327
	c-0.201-0.213-0.376-0.42-0.573-0.604c-3.487-3.266-7.162-6.301-11.137-8.959c-3.669-2.455-7.505-4.592-11.708-6.009
	c-2.568-0.865-5.185-1.425-7.919-1.219c-2.255,0.169-4.107,1.089-5.47,2.932c-1.049,1.419-1.751,3.005-2.275,4.677
	c-1.004,3.208-1.374,6.516-1.441,9.856c-0.126,6.301,0.724,12.498,2.111,18.631c0.186,0.823,0.389,1.642,0.593,2.503
	c0.384-0.07,0.649-0.119,0.914-0.167c3.907-0.71,7.802-1.488,11.724-2.107c3.106-0.491,6.241-0.813,9.37-1.151
	c0.796-0.086,1.302-0.391,1.766-1.045c3.541-4.991,7.329-9.789,11.392-14.368C129.661,79.312,130.54,78.336,131.442,77.327z
	 M141.859,77.268c0.198,0.228,0.336,0.389,0.474,0.548c1.725,1.982,3.529,3.902,5.156,5.961c2.916,3.691,5.731,7.462,8.571,11.212
	c0.295,0.39,0.584,0.626,1.1,0.668c1.369,0.115,2.732,0.296,4.098,0.451c4.918,0.555,9.801,1.338,14.649,2.337
	c1.219,0.251,2.437,0.509,3.633,0.76c0.068-0.103,0.114-0.148,0.132-0.203c0.057-0.174,0.114-0.349,0.154-0.527
	c1.286-5.64,2.193-11.333,2.309-17.132c0.08-4.016-0.137-8.003-1.163-11.91c-0.57-2.169-1.362-4.244-2.717-6.066
	c-1.183-1.591-2.71-2.614-4.697-2.909c-1.622-0.241-3.23-0.14-4.83,0.166c-3.087,0.589-5.965,1.757-8.748,3.183
	c-5.254,2.693-9.962,6.174-14.386,10.054C144.334,74.968,143.114,76.121,141.859,77.268z M184.854,108.234
	c-0.102,0.281-0.18,0.476-0.243,0.674c-2.192,6.878-4.835,13.58-7.872,20.126c-0.271,0.585-0.269,1.035,0.007,1.615
	c3.115,6.579,5.873,13.299,8.112,20.229c0.09,0.281,0.212,0.549,0.31,0.798c0.136,0,0.2,0.015,0.254-0.001
	c5.919-1.796,11.659-4.026,17.048-7.097c3.386-1.93,6.573-4.133,9.28-6.968c1.316-1.378,2.454-2.882,3.252-4.63
	c1.005-2.2,0.994-4.39-0.121-6.531c-0.464-0.89-1.007-1.752-1.618-2.547c-1.883-2.451-4.248-4.386-6.793-6.104
	C199.864,113.343,192.543,110.498,184.854,108.234z M177.965,153.627c-1.649-5.194-3.574-10.149-5.73-15.038
	c-3.422,5.953-6.794,11.818-10.212,17.76C167.351,155.727,172.602,154.836,177.965,153.627z M95.54,153.959
	c5.309,1.154,10.507,1.954,15.885,2.55c-1.262-2.045-2.465-3.949-3.62-5.883c-1.159-1.938-2.289-3.896-3.396-5.865
	c-1.096-1.948-2.148-3.923-3.297-6.029C98.997,143.813,97.126,148.768,95.54,153.959z M136.868,177.496
	c3.607-3.96,6.904-8.06,10.061-12.358c-6.825,0-13.52,0-20.395,0C129.83,169.483,133.209,173.555,136.868,177.496z M136.729,82.664
	c-1.737,1.417-9.758,11.117-10.095,12.209c2.241-0.064,4.468-0.153,6.696-0.185c2.229-0.032,4.46-0.005,6.69-0.007
	c2.206-0.001,4.41,0.214,6.792,0.157C143.569,90.514,140.268,86.49,136.729,82.664z M172.161,121.122
	c2.062-4.793,3.889-9.658,5.469-14.728c-5.198-1.214-10.362-2.073-15.582-2.747C165.428,109.487,168.773,115.268,172.161,121.122z
	 M111.304,103.605c-5.397,0.693-10.528,1.527-15.667,2.707c1.579,5.084,3.379,9.958,5.492,14.941
	C104.288,115.177,107.594,109.414,111.304,103.605z"/>
<path fill="#FFFFFF" d="M338.246,184.003c-1.353,0-2.32,0-3.289,0c-3.802,0-7.604-0.04-11.402,0.025
	c-1.098,0.019-1.739-0.319-2.337-1.263c-8.74-13.771-17.532-27.509-26.27-41.281c-0.604-0.95-1.25-1.266-2.343-1.257
	c-6.304,0.048-12.608,0.023-18.912,0.023c-0.498,0-0.995,0-1.661,0c0,14.643,0,29.118,0,43.673c-4.598,0-9.025,0-13.442,0
	c-0.271-1.065-0.367-107.692-0.102-109.911c0.33-0.036,0.684-0.106,1.035-0.106c14.834,0.005,29.666-0.044,44.499,0.051
	c6.75,0.043,13.119,1.742,18.862,5.392c7.909,5.026,12.385,12.335,13.88,21.494c0.915,5.604,0.715,11.199-0.963,16.653
	c-3.399,11.046-10.943,17.755-21.991,20.706c-0.849,0.226-1.715,0.388-2.581,0.544c-0.807,0.147-1.623,0.25-2.657,0.403
	C318.458,154.093,328.258,168.905,338.246,184.003z M272.105,128.134c0.438,0.028,0.799,0.071,1.157,0.071
	c9.222,0.003,18.442,0.036,27.662-0.027c1.932-0.013,3.897-0.21,5.782-0.623c5.73-1.252,10.31-4.26,13.372-9.356
	c2.559-4.258,3.277-8.92,2.774-13.783c-0.454-4.401-2.071-8.342-5.138-11.603c-4.099-4.358-9.293-6.452-15.141-6.57
	c-9.818-0.199-19.644-0.087-29.467-0.1c-0.312,0-0.624,0.055-1.003,0.091C272.105,100.192,272.105,114.078,272.105,128.134z"/>
<path fill="#FFFFFF" d="M415.323,165.558c1.963,2.675,3.871,5.273,5.83,7.942c-0.266,0.299-0.484,0.582-0.742,0.823
	c-6.316,5.881-13.758,9.467-22.252,10.902c-6.709,1.133-13.404,1.097-19.99-0.675c-13.29-3.575-22.371-11.896-26.818-24.901
	c-3.827-11.189-3.598-22.455,1.051-33.41c4.472-10.546,12.004-18.184,22.975-21.791c12.321-4.05,24.177-2.816,34.969,4.77
	c6.221,4.372,10.267,10.476,12.917,17.534c2.514,6.693,3.311,13.653,3.118,20.756c-0.006,0.176-0.064,0.349-0.125,0.659
	c-21.37,0-42.714,0-64.261,0c0.148,1.293,0.224,2.432,0.417,3.549c1.136,6.535,3.898,12.233,8.786,16.809
	c4.199,3.932,9.215,6.187,14.878,6.893c9.07,1.132,17.389-0.963,24.872-6.231c1.208-0.852,2.297-1.873,3.438-2.818
	C414.661,166.14,414.93,165.898,415.323,165.558z M414.277,138.847c-0.263-1.899-0.398-3.608-0.747-5.273
	c-1.212-5.776-3.808-10.829-8.24-14.802c-5.01-4.492-11.011-6.287-17.652-6.22c-7.066,0.07-13.123,2.488-17.993,7.683
	c-3.777,4.03-6.055,8.835-7.199,14.195c-0.305,1.423-0.61,2.873-0.495,4.416C379.349,138.847,396.664,138.847,414.277,138.847z"/>
<path fill="#FFFFFF" d="M496.189,143.582c0-1.708,0.004-3.421-0.001-5.129c-0.008-3.243,0.075-6.492-0.057-9.731
	c-0.172-4.265-1.851-7.894-5.086-10.74c-2.569-2.262-5.596-3.648-8.926-4.25c-11.3-2.041-21.094,0.873-29.213,9.097
	c-0.385,0.391-0.693,0.856-1.18,1.461c-2.057-3.048-3.935-5.832-5.853-8.675c0.304-0.336,0.561-0.648,0.847-0.932
	c7.354-7.331,16.208-11.365,26.567-12.158c5.355-0.411,10.646-0.138,15.861,1.186c4.278,1.086,8.21,2.877,11.541,5.835
	c4.877,4.334,7.127,9.932,7.708,16.292c0.156,1.705,0.174,3.426,0.176,5.138c0.012,17.057,0.007,34.111,0.007,51.17
	c0,0.59,0,1.18,0,1.838c-4.19,0-8.198,0-12.365,0c0-2.904,0-5.748,0-8.899c-0.491,0.437-0.763,0.65-1.003,0.896
	c-5.186,5.276-11.514,8.303-18.766,9.486c-5.521,0.9-10.986,0.778-16.33-1.072c-6.307-2.182-11.387-5.929-14.777-11.766
	c-2.241-3.857-3.217-8.074-3.282-12.498c-0.076-5.097,0.911-9.952,3.582-14.372c3.269-5.409,8.058-8.994,14.021-10.747
	c10.758-3.166,21.089-1.997,30.682,4.009c1.71,1.069,3.156,2.563,4.718,3.868c0.305,0.255,0.578,0.547,0.868,0.821
	C496.016,143.67,496.102,143.626,496.189,143.582z M496.189,159.606c0-2.176-0.027-4.354,0.014-6.529
	c0.017-0.794-0.163-1.458-0.739-1.996c-1.281-1.199-2.47-2.526-3.87-3.566c-4.323-3.205-9.287-4.726-14.604-5.125
	c-4.061-0.305-8.042,0.063-11.85,1.665c-7.657,3.22-11.729,10.633-10.202,18.773c1.278,6.821,5.526,11.12,11.978,13.126
	c7.532,2.341,14.832,1.22,21.783-2.343c2.666-1.366,4.939-3.252,6.841-5.584c0.464-0.568,0.677-1.148,0.664-1.89
	C496.163,163.961,496.189,161.784,496.189,159.606z"/>
<path fill="#FFFFFF" d="M589.668,164.561c2.741,2.523,5.421,4.99,8.173,7.523c-0.311,0.431-0.555,0.812-0.84,1.158
	c-5.674,6.946-12.914,11.09-21.832,12.3c-7.983,1.084-15.736,0.338-23.116-2.977c-9.906-4.449-16.619-11.98-20.277-22.114
	c-4.109-11.379-4.083-22.867,0.532-34.077c5.448-13.232,15.396-21.146,29.563-23.512c6.962-1.163,13.855-0.701,20.561,1.647
	c6.32,2.213,11.289,6.241,15.441,11.656c-2.72,2.451-5.418,4.882-8.188,7.379c-0.327-0.378-0.603-0.673-0.854-0.988
	c-4.737-5.957-10.915-8.98-18.52-9.162c-8.159-0.196-15.233,2.286-20.812,8.406c-3.716,4.077-5.915,8.937-6.961,14.317
	c-1.447,7.443-1.065,14.776,1.781,21.853c2.82,7.014,7.537,12.338,14.719,15.051c7.587,2.865,15.139,2.78,22.426-1.13
	c2.855-1.531,5.19-3.708,7.241-6.198C588.993,165.341,589.293,165,589.668,164.561z"/>
<path fill="#FFFFFF" d="M617.829,115.194c-4.467,0-8.719,0-12.94,0c-0.314-1.032-0.406-8.629-0.142-10.847c4.267,0,8.554,0,13.035,0
	c0.096-3.72,0.032-7.31,0.043-10.897c0.012-3.562,0.003-7.124,0.003-10.653c1.103-0.307,10.336-0.399,12.556-0.135
	c0,7.136,0,14.294,0,21.616c5.456,0,10.757,0,16.133,0c0,3.664,0,7.164,0,10.852c-1.758,0.063-3.501,0.024-5.24,0.03
	c-1.808,0.007-3.615,0.001-5.422,0.001c-1.75,0-3.499,0-5.349,0c-0.031,0.592-0.076,1.042-0.076,1.491
	c-0.003,15.849-0.002,31.7-0.003,47.55c0,1.767,0.1,3.518,0.665,5.214c1.383,4.139,4.649,6.102,8.967,5.395
	c2.289-0.376,4.361-1.216,6.12-2.762c0.166-0.146,0.362-0.259,0.62-0.441c1.121,2.881,2.195,5.685,3.307,8.473
	c0.255,0.642,0.047,1.022-0.433,1.432c-2.046,1.745-4.38,2.952-6.964,3.627c-4.239,1.106-8.528,1.228-12.796,0.204
	c-5.771-1.383-9.461-4.985-11.123-10.694c-0.802-2.75-0.955-5.564-0.958-8.393c-0.012-16.359-0.006-32.718-0.006-49.079
	C617.829,116.578,617.829,115.98,617.829,115.194z"/>
<path fill="#FFFFFF" d="M152.027,129.811c-0.003,8.497-6.917,15.453-15.37,15.464c-8.591,0.01-15.543-6.923-15.533-15.489
	c0.01-8.537,6.944-15.472,15.463-15.465C145.107,114.327,152.032,121.273,152.027,129.811z"/>
</svg>
