<?xml version="1.0" encoding="utf-8"?>
<!-- Generator: Adobe Illustrator 16.0.0, SVG Export Plug-In . SVG Version: 6.00 Build 0)  -->
<!DOCTYPE svg PUBLIC "-//W3C//DTD SVG 1.0//EN" "http://www.w3.org/TR/2001/REC-SVG-20010904/DTD/svg10.dtd">
<svg version="1.0" id="Layer_1" xmlns="http://www.w3.org/2000/svg" xmlns:xlink="http://www.w3.org/1999/xlink" x="0px" y="0px"
	 width="1239.314px" height="256px" viewBox="-363.656 0 1239.314 256" enable-background="new -363.656 0 1239.314 256"
	 xml:space="preserve">
<g>
	<path fill="#FFFFFF" d="M-363.656,127.128c0-37.547-0.006-75.094,0.003-112.641c0.003-10.739,3.713-14.47,14.571-14.473
		c74.892-0.02,149.784-0.018,224.676-0.001c11.195,0.003,15.173,4.088,15.174,15.437c0.006,74.892,0.006,149.784,0,224.676
		c0,11.728-4.214,15.868-16.159,15.869c-74.085,0.006-148.169,0.006-222.254,0c-12.52-0.001-16.008-3.546-16.009-16.228
		C-363.657,202.223-363.655,164.675-363.656,127.128z M-137.17,108.61c-19.133-5.899-38.107-6.772-56.959,0.08
		c-27.396,9.958-28.239,44.394-11.401,57.592c7.622,5.975,16.951,9.767,25.483,14.589c4.697,2.654,9.904,4.755,13.903,8.229
		c8.758,7.61,6.689,17.211-4.35,20.703c-10.137,3.209-20.364,2.289-30.119-1.832c-5.081-2.146-9.85-5.029-15.293-7.857
		c0,7.381,0.245,14.406-0.093,21.404c-0.197,4.08,1.031,6.006,5.067,7.328c17.718,5.807,35.665,6.154,53.495,1.674
		c12.685-3.185,22.312-11.334,24.945-24.535c2.791-13.987,1.065-27.631-11.918-36.727c-6.214-4.354-13.202-7.602-19.837-11.354
		c-6.271-3.549-13.021-6.476-18.682-10.818c-6.616-5.076-5.437-14.501,2.201-17.714c5-2.102,11.019-3.393,16.328-2.794
		c9.162,1.033,18.125,3.816,27.231,5.881C-137.17,125.414-137.17,117.405-137.17,108.61z M-327.524,106.39
		c0,7.489,0,14.813,0,22.734c12.013,0,23.626,0,35.67,0c0,7.009,0,13.422,0,19.834c-0.001,25.812-0.047,51.622,0.091,77.435
		c0.009,1.83,1.292,5.211,2.098,5.246c8.758,0.381,17.538,0.237,26.781,0.237c0-34.751,0-68.544,0-103.032
		c12.258,0,24.029,0,35.725,0c0-8.031,0-15.349,0-22.907c-32.936,0-65.39-0.002-97.845,0.017
		C-325.768,105.955-326.531,106.211-327.524,106.39z"/>
	<path fill="#FFFFFF" d="M172.042,82.104c8.581,0,16.563,0,25.122,0c0,6.233,0,12.169,0,18.941
		c4.288-4.593,7.439-9.006,11.542-12.197c25.522-19.847,60.213-9.484,70.065,21.322c7.574,23.689,6.02,47.051-7.851,68.309
		c-12.535,19.217-39.625,25.656-59.384,14.418c-5.192-2.951-9.244-7.901-14.161-12.235c0,22.336,0,44.608,0,67.399
		c-8.651,0-16.784,0-25.335,0C172.042,192.831,172.042,137.691,172.042,82.104z M197.199,139.855c0,4.92-0.078,8.351,0.016,11.777
		c0.302,11.108,8.879,22.753,18.811,25.629c13.043,3.776,25.105,0.124,31.942-10.568c9.235-14.45,10.046-30.383,5.26-46.316
		c-6.294-20.955-31.483-26.643-46.763-10.991C197.712,118.353,196.505,129.598,197.199,139.855z"/>
	<path fill="#FFFFFF" d="M98.214,171.803c10.23-29.808,20.419-59.493,30.752-89.602c8.392,0,16.94,0,26.286,0
		c-4.639,11.849-9.163,23.367-13.66,34.897c-12.308,31.562-24.458,63.186-36.969,94.667c-6.164,15.512-15.079,28.977-31.5,35.424
		c-8.039,3.156-16.456,3.996-24.876,1.61c-1.391-0.396-3.206-2.397-3.291-3.753c-0.364-5.797-0.155-11.627-0.155-17.568
		c4.041,0.342,7.562,0.76,11.093,0.916c10.569,0.474,17.419-4.928,21.67-14.127c2.271-4.918,4.708-9.822,6.277-14.977
		c0.784-2.573,0.495-5.973-0.516-8.52c-14.13-35.647-28.473-71.21-42.744-106.803c-0.205-0.51-0.162-1.119-0.299-2.179
		c8.626,0,17.061-0.154,25.479,0.151c1.415,0.051,3.554,1.824,4.02,3.242c9.189,27.986,18.18,56.037,27.232,84.068
		C97.312,170.174,97.84,171.02,98.214,171.803z"/>
	<path fill="#FFFFFF" d="M400.042,145.962c-26.468,0-51.796,0-77.063,0c-1.609,17.701,11.688,31.929,29.524,32.779
		c13.476,0.643,25.872-2.171,38.136-10.864c0,7.34,0.129,13.448-0.121,19.543c-0.043,1.074-1.457,2.557-2.588,3.051
		c-22.734,9.946-45.837,13.344-68.344,0.254c-15.988-9.299-21.637-25.248-23.046-42.849c-1.772-22.133,2.653-42.158,20.806-57.032
		c15.928-13.053,34.077-14.84,52.77-8.263c17.593,6.19,25.316,20.899,28.095,38.335
		C399.488,128.949,399.443,137.191,400.042,145.962z M323.493,127.375c17.493,0,34.551,0,51.586,0
		c0.804-16.697-7.972-28.024-22.349-29.237C337.9,96.886,325.537,109.117,323.493,127.375z"/>
	<path fill="#FFFFFF" d="M15.642,195.441c-9.164,0-17.558,0-26.631,0c0-23.008,0-45.746,0-68.484c0-22.547,0-45.093,0-68.177
		c-15.449,0-30.285,0-45.856,0c0-6.917-0.131-13.313,0.136-19.691c0.042-1.011,1.727-2.325,2.931-2.813
		c1.218-0.495,2.781-0.157,4.194-0.157c34.71-0.003,69.422-0.008,104.133,0.012c2.167,0.001,4.333,0.201,6.751,0.321
		c0,7.515,0,14.498,0,22.035c-14.99,0-29.825,0-45.657,0c0,23.239,0,45.94,0,68.641C15.642,149.704,15.642,172.279,15.642,195.441z"
		/>
	<path fill="#FFFFFF" d="M723.373,103.672c5.615-10.37,13.817-18.002,24.848-21.574c26.128-8.461,51.633,0.697,60.111,30.517
		c5.722,20.121,4.131,39.92-4.901,58.814c-15.794,33.041-61.334,38.102-80.832,5.104c0,24.393,0,47.721,0,71.548
		c-3.683,0-6.735,0-10.131,0c0-55.294,0-110.475,0-165.975c3.153,0,6.079,0,9.513,0c0,7.011,0,13.947,0,20.882
		C722.444,103.217,722.908,103.445,723.373,103.672z M722.404,140.18c0.6,6.383,0.652,12.875,1.905,19.127
		c3.084,15.402,15.746,26.696,32.515,29.758c13.473,2.457,27.473-4.241,35.663-17.543c9.657-15.687,11.27-32.93,7.947-50.564
		c-2.659-14.139-9.667-26.235-24.247-30.421c-15.281-4.388-30.041-2.083-41.491,10.381C724.514,112,721.83,125.548,722.404,140.18z"
		/>
	<path fill="#FFFFFF" d="M490.532,50.147c-12.105-6.026-24.078-6.664-36.254-6.061c-21.656,1.073-35.341,22.103-26.364,41.678
		c2.367,5.164,7.243,9.753,12.018,13.119c10.335,7.289,21.615,13.236,31.992,20.474c6.686,4.662,13.797,9.691,18.391,16.198
		c16.664,23.61,4.026,53.899-24.717,61.272c-17.203,4.412-33.55,1.132-49.579-5.074c-1.371-0.53-2.636-2.751-2.919-4.366
		c-0.478-2.732-0.131-5.607-0.131-8.283c8.378,2.863,16.388,6.947,24.799,8.11c8.755,1.209,18.126,0.716,26.813-1.06
		c10.951-2.234,18.875-9.412,20.866-20.986c2.288-13.299-2.105-24.339-13.518-31.965c-8.524-5.698-17.437-10.818-25.968-16.509
		c-7.014-4.679-14.378-9.129-20.438-14.887c-17.677-16.793-15.697-44.66,4.219-58.768c18.218-12.905,38.251-11.541,58.432-5.354
		c1.044,0.32,2.076,2.216,2.253,3.495C490.78,43.738,490.532,46.376,490.532,50.147z"/>
	<path fill="#FFFFFF" d="M593.8,95.848c-11.743-6.398-23.505-8.617-35.639-6.426c-16.966,3.064-27.788,13.729-33.153,29.808
		c-5.354,16.042-4.994,32.256,2.121,47.583c9.816,21.142,35.346,28.729,58.006,18.02c2.492-1.18,4.93-2.475,7.474-3.757
		c1.956,9.829,1.831,10.368-6.941,13.56c-19.6,7.124-38.481,6.242-55.418-6.876c-10.979-8.504-16.797-20.53-18.506-34.11
		c-2.856-22.685,0.604-43.521,18.311-60.319c16.244-15.411,41.998-17.273,60.377-10.197C596.664,85.53,592.377,91.044,593.8,95.848z
		"/>
	<path fill="#FFFFFF" d="M835.558,92.324c-6.986,0-13.191,0-19.882,0c0-3.058,0-5.767,0-9.454c4.668,0,9.637-0.28,14.558,0.083
		c4.411,0.325,5.644-1.386,5.399-5.548c-0.307-5.231-0.075-10.494-0.075-15.743c-0.001-9.264-0.001-9.264,10.201-11.394
		c0,10.668,0,21.224,0,32.496c10.188,0,19.747,0,29.562,0c0,3.453,0,6.163,0,9.589c-9.874,0-19.439,0-29.553,0
		c0,6.911-0.007,13.118,0.001,19.325c0.028,19.381-0.421,38.776,0.231,58.137c0.622,18.391,9.891,23.845,26.838,16.865
		c0.708-0.291,1.474-0.443,2.249-0.67c1.25,9.12,1.037,9.477-6.826,11.694c-17.773,5.008-31.972-5.175-32.396-24.168
		c-0.551-24.82-0.244-49.659-0.307-74.489C835.555,97.058,835.558,95.068,835.558,92.324z"/>
	<path fill="#FFFFFF" d="M607.426,81.793c3.453,0,6.407,0,10.01,0c0,7.162,0,14.081,0,21c0.347,0.077,0.691,0.153,1.037,0.23
		c1.802-3.169,3.369-6.5,5.447-9.479c6.493-9.314,15.06-14.703,26.904-14.292c10.558,0.366,11.106,0.76,9.936,11.915
		c-3.047-0.771-6.026-1.97-9.085-2.219c-12.099-0.982-22.131,4.839-27.298,17.621c-3.404,8.423-5.931,17.683-6.426,26.701
		c-1.003,18.293-0.36,36.676-0.396,55.021c-0.004,2.188-0.002,4.378-0.002,6.989c-3.519,0-6.62,0-10.128,0
		C607.426,157.659,607.426,120.07,607.426,81.793z"/>
	<path fill="#FFFFFF" d="M687.379,195.447c-1.315,0.105-2.308,0.238-3.302,0.256c-2.012,0.035-4.024,0.011-6.518,0.011
		c0-37.86,0-75.474,0-113.512c3.044,0,6.179,0,9.818,0C687.379,119.648,687.379,157.256,687.379,195.447z"/>
	<path fill="#FFFFFF" d="M691.598,44.4c0.109,5.058-3.515,9.208-8.188,9.381c-4.854,0.178-8.687-3.567-8.813-8.614
		c-0.127-5.003,3.624-9.029,8.416-9.033C687.685,36.131,691.498,39.803,691.598,44.4z"/>
</g>
</svg>
