<?xml version="1.0" encoding="utf-8"?>
<!-- Generator: Adobe Illustrator 16.0.0, SVG Export Plug-In . SVG Version: 6.00 Build 0)  -->
<!DOCTYPE svg PUBLIC "-//W3C//DTD SVG 1.1//EN" "http://www.w3.org/Graphics/SVG/1.1/DTD/svg11.dtd">
<svg version="1.1" id="Layer_1" xmlns="http://www.w3.org/2000/svg" xmlns:xlink="http://www.w3.org/1999/xlink" x="0px" y="0px"
	 width="956.12px" height="256px" viewBox="0 0 956.12 256" enable-background="new 0 0 956.12 256" xml:space="preserve">
<rect x="-0.016" fill="#1A202C" width="955.444" height="256"/>
<path fill="#FFFFFF" d="M51.676,127.81c0-22.561-0.003-45.122,0.002-67.684c0.002-6.453,2.231-8.694,8.755-8.696
	c45.001-0.012,90.002-0.011,135.003,0c6.727,0.002,9.117,2.457,9.118,9.276c0.003,45.001,0.003,90.002,0,135.003
	c0,7.047-2.532,9.535-9.71,9.535c-44.516,0.004-89.032,0.004-133.548,0c-7.523,0-9.619-2.131-9.619-9.751
	C51.676,172.933,51.677,150.371,51.676,127.81z M187.767,116.683c-11.497-3.544-22.897-4.069-34.226,0.048
	c-16.461,5.983-16.968,26.675-6.851,34.606c4.58,3.59,10.186,5.868,15.313,8.766c2.822,1.596,5.951,2.857,8.354,4.944
	c5.262,4.573,4.019,10.342-2.614,12.44c-6.091,1.929-12.236,1.376-18.098-1.101c-3.053-1.289-5.918-3.022-9.189-4.721
	c0,4.435,0.147,8.655-0.056,12.86c-0.118,2.452,0.62,3.609,3.044,4.403c10.646,3.489,21.431,3.698,32.144,1.006
	c7.623-1.913,13.407-6.811,14.989-14.742c1.677-8.404,0.64-16.604-7.162-22.068c-3.734-2.616-7.933-4.568-11.919-6.822
	c-3.768-2.133-7.824-3.892-11.226-6.501c-3.976-3.05-3.267-8.713,1.323-10.644c3.004-1.263,6.621-2.039,9.811-1.679
	c5.505,0.621,10.891,2.293,16.362,3.533C187.767,126.78,187.767,121.968,187.767,116.683z M73.387,115.349c0,4.5,0,8.901,0,13.66
	c7.219,0,14.197,0,21.434,0c0,4.212,0,8.065,0,11.918c0,15.51-0.028,31.019,0.055,46.529c0.005,1.1,0.776,3.131,1.261,3.152
	c5.262,0.229,10.538,0.143,16.092,0.143c0-20.882,0-41.187,0-61.91c7.365,0,14.438,0,21.466,0c0-4.826,0-9.223,0-13.764
	c-19.791,0-39.291-0.001-58.792,0.01C74.442,115.087,73.984,115.241,73.387,115.349z"/>
<path fill="#FFFFFF" d="M407.595,87.333c6.071,0,11.719,0,17.775,0c0,4.411,0,8.61,0,13.402c3.033-3.249,5.264-6.372,8.167-8.63
	c18.058-14.042,42.604-6.71,49.575,15.087c5.358,16.761,4.259,33.291-5.555,48.332c-8.87,13.597-28.038,18.153-42.019,10.201
	c-3.675-2.088-6.541-5.59-10.021-8.656c0,15.804,0,31.563,0,47.688c-6.12,0-11.875,0-17.925,0
	C407.595,165.679,407.595,126.664,407.595,87.333z M425.395,128.195c0,3.481-0.055,5.909,0.011,8.332
	c0.215,7.86,6.283,16.1,13.311,18.134c9.229,2.673,17.764,0.088,22.602-7.477c6.534-10.225,7.107-21.498,3.721-32.771
	c-4.453-14.827-22.275-18.851-33.087-7.777C425.757,112.981,424.904,120.938,425.395,128.195z"/>
<path fill="#FFFFFF" d="M355.357,150.8c7.238-21.091,14.447-42.094,21.759-63.398c5.938,0,11.986,0,18.599,0
	c-3.283,8.384-6.483,16.533-9.666,24.692c-8.708,22.332-17.306,44.708-26.158,66.983c-4.361,10.976-10.669,20.503-22.288,25.064
	c-5.688,2.232-11.644,2.827-17.601,1.139c-0.984-0.281-2.269-1.695-2.329-2.655c-0.258-4.103-0.11-8.227-0.11-12.431
	c2.859,0.242,5.351,0.538,7.849,0.648c7.479,0.336,12.325-3.487,15.333-9.995c1.607-3.479,3.332-6.95,4.441-10.598
	c0.555-1.82,0.35-4.227-0.365-6.029c-9.998-25.222-20.146-50.385-30.244-75.569c-0.145-0.361-0.115-0.792-0.211-1.542
	c6.103,0,12.071-0.109,18.028,0.107c1,0.036,2.514,1.29,2.844,2.294c6.502,19.801,12.863,39.649,19.269,59.483
	C354.719,149.647,355.093,150.246,355.357,150.8z"/>
<path fill="#FFFFFF" d="M568.918,132.516c-18.728,0-36.648,0-54.526,0c-1.139,12.524,8.27,22.592,20.89,23.193
	c9.535,0.455,18.307-1.535,26.984-7.688c0,5.194,0.091,9.516-0.087,13.829c-0.029,0.76-1.03,1.809-1.83,2.158
	c-16.086,7.037-32.434,9.441-48.357,0.18c-11.313-6.58-15.31-17.864-16.308-30.318c-1.253-15.66,1.878-29.829,14.723-40.354
	c11.27-9.235,24.11-10.5,37.338-5.846c12.448,4.38,17.912,14.788,19.879,27.125C568.527,120.479,568.496,126.311,568.918,132.516z
	 M514.755,119.365c12.379,0,24.446,0,36.5,0c0.57-11.814-5.64-19.829-15.813-20.687C524.951,97.792,516.203,106.446,514.755,119.365
	z"/>
<path fill="#FFFFFF" d="M296.933,167.525c-6.484,0-12.424,0-18.843,0c0-16.279,0-32.368,0-48.457c0-15.953,0-31.906,0-48.239
	c-10.931,0-21.428,0-32.446,0c0-4.894-0.092-9.42,0.097-13.933c0.03-0.715,1.222-1.645,2.074-1.99
	c0.861-0.35,1.967-0.111,2.967-0.111c24.559-0.002,49.12-0.005,73.68,0.008c1.534,0,3.066,0.142,4.777,0.228
	c0,5.317,0,10.258,0,15.591c-10.606,0-21.103,0-32.305,0c0,16.443,0,32.505,0,48.567
	C296.933,135.164,296.933,151.138,296.933,167.525z"/>
<path fill="#FFFFFF" d="M797.694,102.593c3.973-7.337,9.777-12.737,17.582-15.265c18.486-5.987,36.533,0.493,42.531,21.593
	c4.049,14.237,2.924,28.246-3.467,41.615c-11.176,23.378-43.398,26.959-57.193,3.61c0,17.26,0,33.766,0,50.625
	c-2.607,0-4.768,0-7.17,0c0-39.124,0-78.168,0-117.438c2.232,0,4.303,0,6.732,0c0,4.961,0,9.868,0,14.775
	C797.036,102.271,797.366,102.433,797.694,102.593z M797.009,128.425c0.426,4.516,0.461,9.11,1.348,13.534
	c2.182,10.897,11.141,18.888,23.006,21.055c9.533,1.738,19.439-3,25.234-12.413c6.834-11.099,7.973-23.299,5.623-35.776
	c-1.881-10.004-6.84-18.563-17.156-21.524c-10.813-3.105-21.256-1.474-29.357,7.345
	C798.501,108.486,796.603,118.072,797.009,128.425z"/>
<path fill="#FFFFFF" d="M632.946,64.722c-8.566-4.264-17.038-4.716-25.653-4.289c-15.323,0.76-25.005,15.64-18.653,29.49
	c1.675,3.653,5.124,6.9,8.503,9.282c7.313,5.157,15.294,9.365,22.637,14.486c4.731,3.299,9.762,6.857,13.012,11.461
	c11.791,16.706,2.848,38.138-17.489,43.354c-12.173,3.123-23.738,0.802-35.08-3.59c-0.97-0.376-1.865-1.946-2.065-3.09
	c-0.338-1.932-0.093-3.967-0.093-5.86c5.928,2.025,11.597,4.915,17.547,5.738c6.196,0.855,12.825,0.507,18.972-0.749
	c7.75-1.581,13.355-6.66,14.765-14.851c1.617-9.409-1.49-17.221-9.567-22.616c-6.03-4.032-12.336-7.655-18.372-11.682
	c-4.963-3.31-10.174-6.459-14.462-10.533c-12.507-11.883-11.105-31.6,2.985-41.582c12.891-9.132,27.064-8.166,41.345-3.789
	c0.736,0.226,1.469,1.568,1.592,2.473C633.12,60.187,632.946,62.053,632.946,64.722z"/>
<path fill="#FFFFFF" d="M706.013,97.058c-8.307-4.527-16.631-6.098-25.217-4.547c-12.002,2.168-19.66,9.714-23.457,21.091
	c-3.787,11.351-3.533,22.823,1.502,33.668c6.945,14.959,25.01,20.327,41.043,12.75c1.762-0.836,3.488-1.752,5.287-2.658
	c1.385,6.954,1.295,7.336-4.91,9.594c-13.869,5.041-27.229,4.418-39.213-4.864c-7.768-6.017-11.885-14.526-13.094-24.134
	c-2.021-16.052,0.428-30.795,12.957-42.68c11.494-10.905,29.715-12.222,42.719-7.215C708.042,89.757,705.007,93.658,706.013,97.058z
	"/>
<path fill="#FFFFFF" d="M877.071,94.564c-4.941,0-9.332,0-14.066,0c0-2.164,0-4.08,0-6.689c3.303,0,6.818-0.198,10.301,0.059
	c3.119,0.229,3.992-0.981,3.82-3.925c-0.219-3.702-0.055-7.425-0.055-11.139c0-6.555,0-6.555,7.217-8.063c0,7.549,0,15.018,0,22.993
	c7.211,0,13.975,0,20.918,0c0,2.443,0,4.361,0,6.785c-6.986,0-13.754,0-20.91,0c0,4.89-0.006,9.281,0,13.673
	c0.021,13.713-0.297,27.438,0.164,41.136c0.439,13.013,6.998,16.872,18.99,11.933c0.5-0.206,1.041-0.313,1.59-0.474
	c0.885,6.453,0.734,6.705-4.83,8.273c-12.574,3.544-22.621-3.661-22.92-17.1c-0.391-17.562-0.174-35.137-0.219-52.706
	C877.069,97.914,877.071,96.506,877.071,94.564z"/>
<path fill="#FFFFFF" d="M715.655,87.113c2.443,0,4.533,0,7.082,0c0,5.068,0,9.963,0,14.859c0.246,0.054,0.49,0.107,0.734,0.163
	c1.275-2.243,2.385-4.599,3.854-6.707c4.594-6.591,10.656-10.404,19.037-10.113c7.469,0.259,7.857,0.538,7.029,8.431
	c-2.154-0.546-4.264-1.394-6.428-1.57c-8.561-0.695-15.66,3.424-19.314,12.468c-2.408,5.959-4.197,12.512-4.547,18.892
	c-0.711,12.943-0.256,25.951-0.279,38.931c-0.004,1.548-0.002,3.097-0.002,4.945c-2.49,0-4.686,0-7.168,0
	C715.655,140.793,715.655,114.196,715.655,87.113z"/>
<path fill="#FFFFFF" d="M772.228,167.53c-0.932,0.073-1.635,0.168-2.338,0.181c-1.424,0.025-2.848,0.008-4.611,0.008
	c0-26.789,0-53.402,0-80.316c2.154,0,4.373,0,6.947,0C772.228,113.897,772.228,140.507,772.228,167.53z"/>
<path fill="#FFFFFF" d="M775.212,60.655c0.078,3.579-2.488,6.516-5.793,6.638c-3.436,0.125-6.146-2.524-6.236-6.095
	c-0.09-3.54,2.564-6.389,5.953-6.392C772.442,54.804,775.142,57.402,775.212,60.655z"/>
</svg>
